<?plantuml 1.2026.2?><svg xmlns="http://www.w3.org/2000/svg" xmlns:xlink="http://www.w3.org/1999/xlink" contentStyleType="text/css" data-diagram-type="DESCRIPTION" height="1000px" preserveAspectRatio="none" style="width:1196px;height:1000px;background:#FEFEFE;" version="1.1" viewBox="0 0 1196 1000" width="1196px" zoomAndPan="magnify"><title>Dataplattform - Kommune datadeling
Bronse, S&#248;lv og Gull-lag</title><defs/><g><rect fill="#FEFEFE" height="1000" style="stroke:none;stroke-width:1;" width="1196" x="0" y="0"/><g class="title" data-source-line="26"><text fill="#000000" font-family="Arial" font-size="14" font-weight="bold" lengthAdjust="spacing" textLength="261.1936" x="460.4032" y="24.9659">Dataplattform - Kommune datadeling</text><text fill="#000000" font-family="Arial" font-size="14" font-weight="bold" lengthAdjust="spacing" textLength="165.0769" x="508.4616" y="44.0339">Bronse, S&#248;lv og Gull-lag</text></g><!--cluster sources--><g class="cluster" data-qualified-name="sources" data-source-line="30" id="ent0002"><path d="M8.5,65.4448 L183.9569,65.4448 A3.75,3.75 0 0 1 186.4569,67.9448 L193.4569,89.1509 L1186.5,89.1509 A2.5,2.5 0 0 1 1189,91.6509 L1189,237.9448 A2.5,2.5 0 0 1 1186.5,240.4448 L8.5,240.4448 A2.5,2.5 0 0 1 6,237.9448 L6,67.9448 A2.5,2.5 0 0 1 8.5,65.4448" fill="#FFF8F0" style="stroke:#000000;stroke-width:1.5;"/><line style="stroke:#000000;stroke-width:1.5;" x1="6" x2="193.4569" y1="89.1509" y2="89.1509"/><text fill="#000000" font-family="Arial" font-size="13" font-weight="bold" lengthAdjust="spacing" textLength="174.4569" x="10" y="81.3419">Kildesystemer (kommuner)</text></g><!--cluster k1--><g class="cluster" data-qualified-name="sources.k1" data-source-line="31" id="ent0003"><path d="M32.5,109.4448 L111.1881,109.4448 A3.75,3.75 0 0 1 113.6881,111.9448 L120.6881,133.1509 L435.5,133.1509 A2.5,2.5 0 0 1 438,135.6509 L438,213.9448 A2.5,2.5 0 0 1 435.5,216.4448 L32.5,216.4448 A2.5,2.5 0 0 1 30,213.9448 L30,111.9448 A2.5,2.5 0 0 1 32.5,109.4448" fill="#FFE8D0" style="stroke:#000000;stroke-width:1.5;"/><line style="stroke:#000000;stroke-width:1.5;" x1="30" x2="120.6881" y1="133.1509" y2="133.1509"/><text fill="#000000" font-family="Arial" font-size="13" font-weight="bold" lengthAdjust="spacing" textLength="77.6881" x="34" y="125.3419">Kommune 1</text></g><!--cluster k2--><g class="cluster" data-qualified-name="sources.k2" data-source-line="36" id="ent0007"><path d="M464.5,109.4448 L543.1881,109.4448 A3.75,3.75 0 0 1 545.6881,111.9448 L552.6881,133.1509 L730.5,133.1509 A2.5,2.5 0 0 1 733,135.6509 L733,213.9448 A2.5,2.5 0 0 1 730.5,216.4448 L464.5,216.4448 A2.5,2.5 0 0 1 462,213.9448 L462,111.9448 A2.5,2.5 0 0 1 464.5,109.4448" fill="#FFE8D0" style="stroke:#000000;stroke-width:1.5;"/><line style="stroke:#000000;stroke-width:1.5;" x1="462" x2="552.6881" y1="133.1509" y2="133.1509"/><text fill="#000000" font-family="Arial" font-size="13" font-weight="bold" lengthAdjust="spacing" textLength="77.6881" x="466" y="125.3419">Kommune 2</text></g><!--cluster k3--><g class="cluster" data-qualified-name="sources.k3" data-source-line="40" id="ent0010"><path d="M759.5,109.4448 L838.1881,109.4448 A3.75,3.75 0 0 1 840.6881,111.9448 L847.6881,133.1509 L1162.5,133.1509 A2.5,2.5 0 0 1 1165,135.6509 L1165,213.9448 A2.5,2.5 0 0 1 1162.5,216.4448 L759.5,216.4448 A2.5,2.5 0 0 1 757,213.9448 L757,111.9448 A2.5,2.5 0 0 1 759.5,109.4448" fill="#FFE8D0" style="stroke:#000000;stroke-width:1.5;"/><line style="stroke:#000000;stroke-width:1.5;" x1="757" x2="847.6881" y1="133.1509" y2="133.1509"/><text fill="#000000" font-family="Arial" font-size="13" font-weight="bold" lengthAdjust="spacing" textLength="77.6881" x="761" y="125.3419">Kommune 3</text></g><!--cluster bronze--><g class="cluster" data-qualified-name="bronze" data-source-line="49" id="ent0014"><path d="M301.5,291.4448 L521.9337,291.4448 A3.75,3.75 0 0 1 524.4337,293.9448 L531.4337,315.1509 L869.5,315.1509 A2.5,2.5 0 0 1 872,317.6509 L872,404.9448 A2.5,2.5 0 0 1 869.5,407.4448 L301.5,407.4448 A2.5,2.5 0 0 1 299,404.9448 L299,293.9448 A2.5,2.5 0 0 1 301.5,291.4448" fill="#FFF3E0" style="stroke:#000000;stroke-width:1.5;"/><line style="stroke:#000000;stroke-width:1.5;" x1="299" x2="531.4337" y1="315.1509" y2="315.1509"/><text fill="#000000" font-family="Arial" font-size="13" font-weight="bold" lengthAdjust="spacing" textLength="219.4337" x="303" y="307.3419">Bronselag - R&#229; data per kommune</text></g><!--cluster silver--><g class="cluster" data-qualified-name="silver" data-source-line="62" id="ent0021"><path d="M280.5,476.4448 L494.0274,476.4448 A3.75,3.75 0 0 1 496.5274,478.9448 L503.5274,500.1509 L878.5,500.1509 A2.5,2.5 0 0 1 881,502.6509 L881,589.9448 A2.5,2.5 0 0 1 878.5,592.4448 L280.5,592.4448 A2.5,2.5 0 0 1 278,589.9448 L278,478.9448 A2.5,2.5 0 0 1 280.5,476.4448" fill="#F0F4FF" style="stroke:#000000;stroke-width:1.5;"/><line style="stroke:#000000;stroke-width:1.5;" x1="278" x2="503.5274" y1="500.1509" y2="500.1509"/><text fill="#000000" font-family="Arial" font-size="13" font-weight="bold" lengthAdjust="spacing" textLength="212.5274" x="282" y="492.3419">S&#248;lvlag - Renset og standardisert</text></g><!--cluster gold--><g class="cluster" data-qualified-name="gold" data-source-line="75" id="ent0028"><path d="M317.5,643.4448 L528.7459,643.4448 A3.75,3.75 0 0 1 531.2459,645.9448 L538.2459,667.1509 L848.5,667.1509 A2.5,2.5 0 0 1 851,669.6509 L851,774.9448 A2.5,2.5 0 0 1 848.5,777.4448 L317.5,777.4448 A2.5,2.5 0 0 1 315,774.9448 L315,645.9448 A2.5,2.5 0 0 1 317.5,643.4448" fill="#F0FFF0" style="stroke:#000000;stroke-width:1.5;"/><line style="stroke:#000000;stroke-width:1.5;" x1="315" x2="538.2459" y1="667.1509" y2="667.1509"/><text fill="#000000" font-family="Arial" font-size="13" font-weight="bold" lengthAdjust="spacing" textLength="210.2459" x="319" y="659.3419">Gullag - Kombinert og aggregert</text></g><!--cluster consumers--><g class="cluster" data-qualified-name="consumers" data-source-line="87" id="ent0034"><path d="M324.5,846.4448 L413.0908,846.4448 A3.75,3.75 0 0 1 415.5908,848.9448 L422.5908,870.1509 L871.5,870.1509 A2.5,2.5 0 0 1 874,872.6509 L874,990.9448 A2.5,2.5 0 0 1 871.5,993.4448 L324.5,993.4448 A2.5,2.5 0 0 1 322,990.9448 L322,848.9448 A2.5,2.5 0 0 1 324.5,846.4448" fill="#F5F0FF" style="stroke:#000000;stroke-width:1.5;"/><line style="stroke:#000000;stroke-width:1.5;" x1="322" x2="422.5908" y1="870.1509" y2="870.1509"/><text fill="#000000" font-family="Arial" font-size="13" font-weight="bold" lengthAdjust="spacing" textLength="87.5908" x="326" y="862.3419">Konsumenter</text></g><!--entity sysA1--><g class="entity" data-qualified-name="sources.k1.sysA1" data-source-line="32" id="ent0004"><rect fill="#F0F4FF" height="55.412" rx="5" ry="5" style="stroke:#4A6FA5;stroke-width:0.5;" width="102.2381" x="320" y="145.4448"/><text fill="#1A1A2E" font-family="Arial" font-size="13" lengthAdjust="spacing" textLength="55.77" x="330" y="169.3419">Sak/arkiv</text><text fill="#1A1A2E" font-family="Arial" font-size="13" lengthAdjust="spacing" textLength="82.2381" x="330" y="187.0479">(Kommune 1)</text></g><!--entity sysA2--><g class="entity" data-qualified-name="sources.k1.sysA2" data-source-line="33" id="ent0005"><rect fill="#F0F4FF" height="55.412" rx="5" ry="5" style="stroke:#4A6FA5;stroke-width:0.5;" width="102.2381" x="46" y="145.4448"/><text fill="#1A1A2E" font-family="Arial" font-size="13" lengthAdjust="spacing" textLength="81.5491" x="56" y="169.3419">Pleie/omsorg</text><text fill="#1A1A2E" font-family="Arial" font-size="13" lengthAdjust="spacing" textLength="82.2381" x="56" y="187.0479">(Kommune 1)</text></g><!--entity sysA3--><g class="entity" data-qualified-name="sources.k1.sysA3" data-source-line="34" id="ent0006"><rect fill="#F0F4FF" height="55.412" rx="5" ry="5" style="stroke:#4A6FA5;stroke-width:0.5;" width="102.2381" x="183" y="145.4448"/><text fill="#1A1A2E" font-family="Arial" font-size="13" lengthAdjust="spacing" textLength="56.3681" x="193" y="169.3419">&#216;konomi</text><text fill="#1A1A2E" font-family="Arial" font-size="13" lengthAdjust="spacing" textLength="82.2381" x="193" y="187.0479">(Kommune 1)</text></g><!--entity sysB1--><g class="entity" data-qualified-name="sources.k2.sysB1" data-source-line="37" id="ent0008"><rect fill="#F0F4FF" height="55.412" rx="5" ry="5" style="stroke:#4A6FA5;stroke-width:0.5;" width="102.2381" x="478" y="145.4448"/><text fill="#1A1A2E" font-family="Arial" font-size="13" lengthAdjust="spacing" textLength="55.77" x="488" y="169.3419">Sak/arkiv</text><text fill="#1A1A2E" font-family="Arial" font-size="13" lengthAdjust="spacing" textLength="82.2381" x="488" y="187.0479">(Kommune 2)</text></g><!--entity sysB2--><g class="entity" data-qualified-name="sources.k2.sysB2" data-source-line="38" id="ent0009"><rect fill="#F0F4FF" height="55.412" rx="5" ry="5" style="stroke:#4A6FA5;stroke-width:0.5;" width="102.2381" x="615" y="145.4448"/><text fill="#1A1A2E" font-family="Arial" font-size="13" lengthAdjust="spacing" textLength="32.63" x="625" y="169.3419">Skole</text><text fill="#1A1A2E" font-family="Arial" font-size="13" lengthAdjust="spacing" textLength="82.2381" x="625" y="187.0479">(Kommune 2)</text></g><!--entity sysC1--><g class="entity" data-qualified-name="sources.k3.sysC1" data-source-line="41" id="ent0011"><rect fill="#F0F4FF" height="55.412" rx="5" ry="5" style="stroke:#4A6FA5;stroke-width:0.5;" width="102.2381" x="1047" y="145.4448"/><text fill="#1A1A2E" font-family="Arial" font-size="13" lengthAdjust="spacing" textLength="55.77" x="1057" y="169.3419">Sak/arkiv</text><text fill="#1A1A2E" font-family="Arial" font-size="13" lengthAdjust="spacing" textLength="82.2381" x="1057" y="187.0479">(Kommune 3)</text></g><!--entity sysC2--><g class="entity" data-qualified-name="sources.k3.sysC2" data-source-line="42" id="ent0012"><rect fill="#F0F4FF" height="55.412" rx="5" ry="5" style="stroke:#4A6FA5;stroke-width:0.5;" width="102.2381" x="773" y="145.4448"/><text fill="#1A1A2E" font-family="Arial" font-size="13" lengthAdjust="spacing" textLength="81.5491" x="783" y="169.3419">Pleie/omsorg</text><text fill="#1A1A2E" font-family="Arial" font-size="13" lengthAdjust="spacing" textLength="82.2381" x="783" y="187.0479">(Kommune 3)</text></g><!--entity sysC3--><g class="entity" data-qualified-name="sources.k3.sysC3" data-source-line="43" id="ent0013"><rect fill="#F0F4FF" height="55.412" rx="5" ry="5" style="stroke:#4A6FA5;stroke-width:0.5;" width="102.2381" x="910" y="145.4448"/><text fill="#1A1A2E" font-family="Arial" font-size="13" lengthAdjust="spacing" textLength="61.9971" x="920" y="169.3419">Plan/bygg</text><text fill="#1A1A2E" font-family="Arial" font-size="13" lengthAdjust="spacing" textLength="82.2381" x="920" y="187.0479">(Kommune 3)</text></g><!--entity bronzeA--><g class="entity" data-qualified-name="bronze.bronzeA" data-source-line="50" id="ent0015"><path d="M315,337.4448 C315,327.4448 362.219,327.4448 362.219,327.4448 C362.219,327.4448 409.4381,327.4448 409.4381,337.4448 L409.4381,381.8569 C409.4381,391.8569 362.219,391.8569 362.219,391.8569 C362.219,391.8569 315,391.8569 315,381.8569 L315,337.4448" fill="#EAF4EA" style="stroke:#3A7D44;stroke-width:0.5;"/><path d="M315,337.4448 C315,347.4448 362.219,347.4448 362.219,347.4448 C362.219,347.4448 409.4381,347.4448 409.4381,337.4448" fill="none" style="stroke:#3A7D44;stroke-width:0.5;"/><text fill="#1A1A2E" font-family="Arial" font-size="13" lengthAdjust="spacing" textLength="43.277" x="325" y="365.3419">Bronse</text><text fill="#1A1A2E" font-family="Arial" font-size="13" lengthAdjust="spacing" textLength="74.4381" x="325" y="383.0479">Kommune 1</text></g><!--entity bronzeB--><g class="entity" data-qualified-name="bronze.bronzeB" data-source-line="51" id="ent0016"><path d="M633,337.4448 C633,327.4448 680.219,327.4448 680.219,327.4448 C680.219,327.4448 727.4381,327.4448 727.4381,337.4448 L727.4381,381.8569 C727.4381,391.8569 680.219,391.8569 680.219,391.8569 C680.219,391.8569 633,391.8569 633,381.8569 L633,337.4448" fill="#EAF4EA" style="stroke:#3A7D44;stroke-width:0.5;"/><path d="M633,337.4448 C633,347.4448 680.219,347.4448 680.219,347.4448 C680.219,347.4448 727.4381,347.4448 727.4381,337.4448" fill="none" style="stroke:#3A7D44;stroke-width:0.5;"/><text fill="#1A1A2E" font-family="Arial" font-size="13" lengthAdjust="spacing" textLength="43.277" x="643" y="365.3419">Bronse</text><text fill="#1A1A2E" font-family="Arial" font-size="13" lengthAdjust="spacing" textLength="74.4381" x="643" y="383.0479">Kommune 2</text></g><!--entity bronzeC--><g class="entity" data-qualified-name="bronze.bronzeC" data-source-line="52" id="ent0017"><path d="M762,337.4448 C762,327.4448 809.219,327.4448 809.219,327.4448 C809.219,327.4448 856.4381,327.4448 856.4381,337.4448 L856.4381,381.8569 C856.4381,391.8569 809.219,391.8569 809.219,391.8569 C809.219,391.8569 762,391.8569 762,381.8569 L762,337.4448" fill="#EAF4EA" style="stroke:#3A7D44;stroke-width:0.5;"/><path d="M762,337.4448 C762,347.4448 809.219,347.4448 809.219,347.4448 C809.219,347.4448 856.4381,347.4448 856.4381,337.4448" fill="none" style="stroke:#3A7D44;stroke-width:0.5;"/><text fill="#1A1A2E" font-family="Arial" font-size="13" lengthAdjust="spacing" textLength="43.277" x="772" y="365.3419">Bronse</text><text fill="#1A1A2E" font-family="Arial" font-size="13" lengthAdjust="spacing" textLength="74.4381" x="772" y="383.0479">Kommune 3</text></g><g class="entity" data-qualified-name="bronze.GMN18" data-source-line="54" id="ent0019"><path d="M444.5,327.9448 L444.5,355.4448 L409.2,359.4448 L444.5,363.4448 L444.5,391.0629 A0,0 0 0 0 444.5,391.0629 L597.1511,391.0629 A0,0 0 0 0 597.1511,391.0629 L597.1511,337.9448 L587.1511,327.9448 L444.5,327.9448 A0,0 0 0 0 444.5,327.9448" fill="#FEFFDD" style="stroke:#181818;stroke-width:0.5;"/><path d="M587.1511,327.9448 L587.1511,337.9448 L597.1511,337.9448 L587.1511,327.9448" fill="#FEFFDD" style="stroke:#181818;stroke-width:0.5;"/><text fill="#000000" font-family="Arial" font-size="13" lengthAdjust="spacing" textLength="118.3651" x="450.5" y="346.8419">Ubehandlet r&#229;data,</text><text fill="#000000" font-family="Arial" font-size="13" lengthAdjust="spacing" textLength="131.6511" x="450.5" y="364.5479">isolert per kommune.</text><text fill="#000000" font-family="Arial" font-size="13" lengthAdjust="spacing" textLength="119.6001" x="450.5" y="382.2539">Ingen krysskobling.</text></g><!--entity silverA--><g class="entity" data-qualified-name="silver.silverA" data-source-line="63" id="ent0022"><path d="M294,522.4448 C294,512.4448 341.219,512.4448 341.219,512.4448 C341.219,512.4448 388.4381,512.4448 388.4381,522.4448 L388.4381,566.8569 C388.4381,576.8569 341.219,576.8569 341.219,576.8569 C341.219,576.8569 294,576.8569 294,566.8569 L294,522.4448" fill="#EAF4EA" style="stroke:#3A7D44;stroke-width:0.5;"/><path d="M294,522.4448 C294,532.4448 341.219,532.4448 341.219,532.4448 C341.219,532.4448 388.4381,532.4448 388.4381,522.4448" fill="none" style="stroke:#3A7D44;stroke-width:0.5;"/><text fill="#1A1A2E" font-family="Arial" font-size="13" lengthAdjust="spacing" textLength="24.96" x="304" y="550.3419">S&#248;lv</text><text fill="#1A1A2E" font-family="Arial" font-size="13" lengthAdjust="spacing" textLength="74.4381" x="304" y="568.0479">Kommune 1</text></g><!--entity silverB--><g class="entity" data-qualified-name="silver.silverB" data-source-line="64" id="ent0023"><path d="M642,522.4448 C642,512.4448 689.219,512.4448 689.219,512.4448 C689.219,512.4448 736.4381,512.4448 736.4381,522.4448 L736.4381,566.8569 C736.4381,576.8569 689.219,576.8569 689.219,576.8569 C689.219,576.8569 642,576.8569 642,566.8569 L642,522.4448" fill="#EAF4EA" style="stroke:#3A7D44;stroke-width:0.5;"/><path d="M642,522.4448 C642,532.4448 689.219,532.4448 689.219,532.4448 C689.219,532.4448 736.4381,532.4448 736.4381,522.4448" fill="none" style="stroke:#3A7D44;stroke-width:0.5;"/><text fill="#1A1A2E" font-family="Arial" font-size="13" lengthAdjust="spacing" textLength="24.96" x="652" y="550.3419">S&#248;lv</text><text fill="#1A1A2E" font-family="Arial" font-size="13" lengthAdjust="spacing" textLength="74.4381" x="652" y="568.0479">Kommune 2</text></g><!--entity silverC--><g class="entity" data-qualified-name="silver.silverC" data-source-line="65" id="ent0024"><path d="M771,522.4448 C771,512.4448 818.219,512.4448 818.219,512.4448 C818.219,512.4448 865.4381,512.4448 865.4381,522.4448 L865.4381,566.8569 C865.4381,576.8569 818.219,576.8569 818.219,576.8569 C818.219,576.8569 771,576.8569 771,566.8569 L771,522.4448" fill="#EAF4EA" style="stroke:#3A7D44;stroke-width:0.5;"/><path d="M771,522.4448 C771,532.4448 818.219,532.4448 818.219,532.4448 C818.219,532.4448 865.4381,532.4448 865.4381,522.4448" fill="none" style="stroke:#3A7D44;stroke-width:0.5;"/><text fill="#1A1A2E" font-family="Arial" font-size="13" lengthAdjust="spacing" textLength="24.96" x="781" y="550.3419">S&#248;lv</text><text fill="#1A1A2E" font-family="Arial" font-size="13" lengthAdjust="spacing" textLength="74.4381" x="781" y="568.0479">Kommune 3</text></g><g class="entity" data-qualified-name="silver.GMN25" data-source-line="67" id="ent0026"><path d="M423,512.9448 L423,540.4448 L388.24,544.4448 L423,548.4448 L423,576.0629 A0,0 0 0 0 423,576.0629 L606.7861,576.0629 A0,0 0 0 0 606.7861,576.0629 L606.7861,522.9448 L596.7861,512.9448 L423,512.9448 A0,0 0 0 0 423,512.9448" fill="#FEFFDD" style="stroke:#181818;stroke-width:0.5;"/><path d="M596.7861,512.9448 L596.7861,522.9448 L606.7861,522.9448 L596.7861,512.9448" fill="#FEFFDD" style="stroke:#181818;stroke-width:0.5;"/><text fill="#000000" font-family="Arial" font-size="13" lengthAdjust="spacing" textLength="112.2811" x="429" y="531.8419">Validert, renset og</text><text fill="#000000" font-family="Arial" font-size="13" lengthAdjust="spacing" textLength="125.9571" x="429" y="549.5479">harmonisert til felles</text><text fill="#000000" font-family="Arial" font-size="13" lengthAdjust="spacing" textLength="162.7861" x="429" y="567.2539">datamodell per kommune.</text></g><!--entity goldNational--><g class="entity" data-qualified-name="gold.goldNational" data-source-line="76" id="ent0029"><path d="M331.5,698.4448 C331.5,688.4448 394.033,688.4448 394.033,688.4448 C394.033,688.4448 456.5661,688.4448 456.5661,698.4448 L456.5661,742.8569 C456.5661,752.8569 394.033,752.8569 394.033,752.8569 C394.033,752.8569 331.5,752.8569 331.5,742.8569 L331.5,698.4448" fill="#EAF4EA" style="stroke:#3A7D44;stroke-width:0.5;"/><path d="M331.5,698.4448 C331.5,708.4448 394.033,708.4448 394.033,708.4448 C394.033,708.4448 456.5661,708.4448 456.5661,698.4448" fill="none" style="stroke:#3A7D44;stroke-width:0.5;"/><text fill="#1A1A2E" font-family="Arial" font-size="13" lengthAdjust="spacing" textLength="24.206" x="341.5" y="726.3419">Gull</text><text fill="#1A1A2E" font-family="Arial" font-size="13" lengthAdjust="spacing" textLength="105.0661" x="341.5" y="744.0479">Nasjonal oversikt</text></g><!--entity goldCross--><g class="entity" data-qualified-name="gold.goldCross" data-source-line="77" id="ent0030"><path d="M719.5,689.4448 C719.5,679.4448 777.1385,679.4448 777.1385,679.4448 C777.1385,679.4448 834.7771,679.4448 834.7771,689.4448 L834.7771,751.5629 C834.7771,761.5629 777.1385,761.5629 777.1385,761.5629 C777.1385,761.5629 719.5,761.5629 719.5,751.5629 L719.5,689.4448" fill="#EAF4EA" style="stroke:#3A7D44;stroke-width:0.5;"/><path d="M719.5,689.4448 C719.5,699.4448 777.1385,699.4448 777.1385,699.4448 C777.1385,699.4448 834.7771,699.4448 834.7771,689.4448" fill="none" style="stroke:#3A7D44;stroke-width:0.5;"/><text fill="#1A1A2E" font-family="Arial" font-size="13" lengthAdjust="spacing" textLength="24.206" x="729.5" y="717.3419">Gull</text><text fill="#1A1A2E" font-family="Arial" font-size="13" lengthAdjust="spacing" textLength="95.2771" x="729.5" y="735.0479">Tverskommune</text><text fill="#1A1A2E" font-family="Arial" font-size="13" lengthAdjust="spacing" textLength="46.163" x="729.5" y="752.7539">analyse</text></g><g class="entity" data-qualified-name="gold.GMN31" data-source-line="79" id="ent0032"><path d="M491.5,688.9448 L491.5,716.4448 L456.52,720.4448 L491.5,724.4448 L491.5,752.0629 A0,0 0 0 0 491.5,752.0629 L684.5161,752.0629 A0,0 0 0 0 684.5161,752.0629 L684.5161,698.9448 L674.5161,688.9448 L491.5,688.9448 A0,0 0 0 0 491.5,688.9448" fill="#FEFFDD" style="stroke:#181818;stroke-width:0.5;"/><path d="M674.5161,688.9448 L674.5161,698.9448 L684.5161,698.9448 L674.5161,688.9448" fill="#FEFFDD" style="stroke:#181818;stroke-width:0.5;"/><text fill="#000000" font-family="Arial" font-size="13" lengthAdjust="spacing" textLength="151.7881" x="497.5" y="707.8419">Data fra flere kommuner</text><text fill="#000000" font-family="Arial" font-size="13" lengthAdjust="spacing" textLength="147.7321" x="497.5" y="725.5479">kombinert og aggregert</text><text fill="#000000" font-family="Arial" font-size="13" lengthAdjust="spacing" textLength="172.0161" x="497.5" y="743.2539">for analyse og rapportering.</text></g><!--entity analyst--><g class="entity" data-qualified-name="consumers.analyst" data-source-line="88" id="ent0035"><ellipse cx="369.154" cy="899.4448" fill="#FFF5E6" rx="8" ry="8" style="stroke:#CC7A00;stroke-width:0.5;"/><path d="M369.154,907.4448 L369.154,934.4448 M356.154,915.4448 L382.154,915.4448 M369.154,934.4448 L356.154,949.4448 M369.154,934.4448 L382.154,949.4448" fill="none" style="stroke:#CC7A00;stroke-width:0.5;"/><text fill="#000000" font-family="Arial" font-size="13" lengthAdjust="spacing" textLength="61.308" x="338.5" y="964.8419">Analytiker</text></g><!--entity manager--><g class="entity" data-qualified-name="consumers.manager" data-source-line="89" id="ent0036"><ellipse cx="633.954" cy="890.9448" fill="#FFF5E6" rx="8" ry="8" style="stroke:#CC7A00;stroke-width:0.5;"/><path d="M633.954,898.9448 L633.954,925.9448 M620.954,906.9448 L646.954,906.9448 M633.954,925.9448 L620.954,940.9448 M633.954,925.9448 L646.954,940.9448" fill="none" style="stroke:#CC7A00;stroke-width:0.5;"/><text fill="#000000" font-family="Arial" font-size="13" lengthAdjust="spacing" textLength="43.056" x="582.5" y="956.3419">Leder /</text><text fill="#000000" font-family="Arial" font-size="13" lengthAdjust="spacing" textLength="102.9081" x="582.5" y="974.0479">beslutningstaker</text></g><!--entity reportService--><g class="entity" data-qualified-name="consumers.reportService" data-source-line="90" id="ent0037"><rect fill="#F0F4FF" height="55.412" rx="5" ry="5" style="stroke:#4A6FA5;stroke-width:0.5;" width="111.7931" x="435" y="902.4448"/><text fill="#1A1A2E" font-family="Arial" font-size="13" lengthAdjust="spacing" textLength="91.7931" x="445" y="926.3419">Rapporterings-</text><text fill="#1A1A2E" font-family="Arial" font-size="13" lengthAdjust="spacing" textLength="48.997" x="445" y="944.0479">tjeneste</text></g><!--entity partner--><g class="entity" data-qualified-name="consumers.partner" data-source-line="91" id="ent0038"><rect fill="#F0F4FF" height="55.412" rx="5" ry="5" style="stroke:#4A6FA5;stroke-width:0.5;" width="137.3251" x="720.5" y="902.4448"/><text fill="#1A1A2E" font-family="Arial" font-size="13" lengthAdjust="spacing" textLength="45.825" x="730.5" y="926.3419">Ekstern</text><text fill="#1A1A2E" font-family="Arial" font-size="13" lengthAdjust="spacing" textLength="117.3251" x="730.5" y="944.0479">samarbeidspartner</text></g><!--link sysA1 to bronzeA--><g class="link" data-entity-1="ent0004" data-entity-2="ent0015" data-link-type="dependency" data-source-line="96" id="lnk39"><path d="M369.69,200.7748 C368.05,234.3548 365.542,285.7719 363.812,321.2719" fill="none" id="sysA1-to-bronzeA" style="stroke:#555555;stroke-width:1.5;"/><polygon fill="#555555" points="363.52,327.2648,367.9533,318.4702,363.7634,322.2708,359.9628,318.0808,363.52,327.2648" style="stroke:#555555;stroke-width:1.5;"/><text fill="#000000" font-family="Arial" font-size="13" lengthAdjust="spacing" textLength="56.7711" x="368" y="271.3419">Innlesing</text></g><!--link sysA2 to bronzeA--><g class="link" data-entity-1="ent0005" data-entity-2="ent0015" data-link-type="dependency" data-source-line="97" id="lnk40"><path d="M117.82,200.7548 C130.43,215.8948 147.43,234.5248 165,248.4448 C211.97,285.6648 267.7491,315.1131 309.3791,334.8631" fill="none" id="sysA2-to-bronzeA" style="stroke:#555555;stroke-width:1.5;"/><polygon fill="#555555" points="314.8,337.4348,308.3832,329.9633,310.2826,335.2917,304.9542,337.1911,314.8,337.4348" style="stroke:#555555;stroke-width:1.5;"/><text fill="#000000" font-family="Arial" font-size="13" lengthAdjust="spacing" textLength="56.7711" x="201" y="271.3419">Innlesing</text></g><!--link sysA3 to bronzeA--><g class="link" data-entity-1="ent0006" data-entity-2="ent0015" data-link-type="dependency" data-source-line="98" id="lnk41"><path d="M250.99,200.4748 C264.33,221.0948 283.5,250.3248 301,275.4448 C313.06,292.7548 323.39,306.9299 334.87,322.3699" fill="none" id="sysA3-to-bronzeA" style="stroke:#555555;stroke-width:1.5;"/><polygon fill="#555555" points="338.45,327.1848,336.2899,317.5758,335.4667,323.1724,329.87,322.3491,338.45,327.1848" style="stroke:#555555;stroke-width:1.5;"/><text fill="#000000" font-family="Arial" font-size="13" lengthAdjust="spacing" textLength="56.7711" x="302" y="271.3419">Innlesing</text></g><!--link sysB1 to bronzeB--><g class="link" data-entity-1="ent0008" data-entity-2="ent0016" data-link-type="dependency" data-source-line="100" id="lnk42"><path d="M546.98,200.4948 C561.81,221.6548 583.92,251.5748 606,275.4448 C609.63,279.3748 611.24,279.6348 615,283.4448 C628.68,297.2948 639.079,308.9506 650.749,322.7706" fill="none" id="sysB1-to-bronzeB" style="stroke:#555555;stroke-width:1.5;"/><polygon fill="#555555" points="654.62,327.3548,651.8696,317.8978,651.3941,323.5347,645.7573,323.0592,654.62,327.3548" style="stroke:#555555;stroke-width:1.5;"/><text fill="#000000" font-family="Arial" font-size="13" lengthAdjust="spacing" textLength="56.7711" x="607" y="271.3419">Innlesing</text></g><!--link sysB2 to bronzeB--><g class="link" data-entity-1="ent0009" data-entity-2="ent0016" data-link-type="dependency" data-source-line="101" id="lnk43"><path d="M668.04,200.7748 C670.58,234.3548 674.4867,285.782 677.1767,321.282" fill="none" id="sysB2-to-bronzeB" style="stroke:#555555;stroke-width:1.5;"/><polygon fill="#555555" points="677.63,327.2648,680.9385,317.9883,677.2522,322.2791,672.9614,318.5928,677.63,327.2648" style="stroke:#555555;stroke-width:1.5;"/><text fill="#000000" font-family="Arial" font-size="13" lengthAdjust="spacing" textLength="56.7711" x="674" y="271.3419">Innlesing</text></g><!--link sysC1 to bronzeC--><g class="link" data-entity-1="ent0011" data-entity-2="ent0017" data-link-type="dependency" data-source-line="103" id="lnk44"><path d="M1077.71,200.7148 C1065.16,216.0248 1048.03,234.8348 1030,248.4448 C975.43,289.6148 908.6417,319.9585 861.8417,338.6585" fill="none" id="sysC1-to-bronzeC" style="stroke:#555555;stroke-width:1.5;"/><polygon fill="#555555" points="856.27,340.8848,866.1117,341.2599,860.9131,339.0296,863.1433,333.8309,856.27,340.8848" style="stroke:#555555;stroke-width:1.5;"/><text fill="#000000" font-family="Arial" font-size="13" lengthAdjust="spacing" textLength="56.7711" x="1014" y="271.3419">Innlesing</text></g><!--link sysC2 to bronzeC--><g class="link" data-entity-1="ent0012" data-entity-2="ent0017" data-link-type="dependency" data-source-line="104" id="lnk45"><path d="M821.82,200.7748 C819.09,234.3548 814.9068,285.7846 812.0168,321.2846" fill="none" id="sysC2-to-bronzeC" style="stroke:#555555;stroke-width:1.5;"/><polygon fill="#555555" points="811.53,327.2648,816.2471,318.6191,811.9357,322.2813,808.2734,317.97,811.53,327.2648" style="stroke:#555555;stroke-width:1.5;"/><text fill="#000000" font-family="Arial" font-size="13" lengthAdjust="spacing" textLength="56.7711" x="817" y="271.3419">Innlesing</text></g><!--link sysC3 to bronzeC--><g class="link" data-entity-1="ent0013" data-entity-2="ent0017" data-link-type="dependency" data-source-line="105" id="lnk46"><path d="M940.97,200.5748 C925.25,221.2548 902.64,250.5048 882,275.4448 C867.56,292.8848 854.913,307.4065 841.173,322.8165" fill="none" id="sysC3-to-bronzeC" style="stroke:#555555;stroke-width:1.5;"/><polygon fill="#555555" points="837.18,327.2948,846.1551,323.2393,840.5075,323.5629,840.184,317.9153,837.18,327.2948" style="stroke:#555555;stroke-width:1.5;"/><text fill="#000000" font-family="Arial" font-size="13" lengthAdjust="spacing" textLength="56.7711" x="896" y="271.3419">Innlesing</text></g><!--link bronzeA to silverA--><g class="link" data-entity-1="ent0015" data-entity-2="ent0022" data-link-type="dependency" data-source-line="107" id="lnk47"><path d="M358.44,391.4848 C354.58,425.1348 349.1343,472.574 345.2643,506.284" fill="none" id="bronzeA-to-silverA" style="stroke:#555555;stroke-width:1.5;"/><polygon fill="#555555" points="344.58,512.2448,349.5804,503.7598,345.1503,507.2775,341.6326,502.8474,344.58,512.2448" style="stroke:#555555;stroke-width:1.5;"/><text fill="#000000" font-family="Arial" font-size="13" lengthAdjust="spacing" textLength="61.9581" x="373.303" y="438.3419">Rensing &amp;</text><text fill="#000000" font-family="Arial" font-size="13" lengthAdjust="spacing" textLength="96.5641" x="356" y="456.0479">standardisering</text></g><!--link bronzeB to silverB--><g class="link" data-entity-1="ent0016" data-entity-2="ent0023" data-link-type="dependency" data-source-line="108" id="lnk48"><path d="M678.23,391.5148 C677.72,401.6848 677.25,413.0448 677,423.4448 C676.61,439.8848 675.82,444.0448 677,460.4448 C678.24,477.7248 679.9602,490.9521 682.4802,506.5021" fill="none" id="bronzeB-to-silverB" style="stroke:#555555;stroke-width:1.5;"/><polygon fill="#555555" points="683.44,512.4248,685.9487,502.9009,682.6401,507.4892,678.0518,504.1806,683.44,512.4248" style="stroke:#555555;stroke-width:1.5;"/><text fill="#000000" font-family="Arial" font-size="13" lengthAdjust="spacing" textLength="61.9581" x="695.303" y="438.3419">Rensing &amp;</text><text fill="#000000" font-family="Arial" font-size="13" lengthAdjust="spacing" textLength="96.5641" x="678" y="456.0479">standardisering</text></g><!--link bronzeC to silverC--><g class="link" data-entity-1="ent0017" data-entity-2="ent0024" data-link-type="dependency" data-source-line="109" id="lnk49"><path d="M810.53,391.4848 C812.18,425.1348 814.5149,472.5421 816.1749,506.2521" fill="none" id="bronzeC-to-silverC" style="stroke:#555555;stroke-width:1.5;"/><polygon fill="#555555" points="816.47,512.2448,820.0225,503.059,816.2241,507.2509,812.0322,503.4525,816.47,512.2448" style="stroke:#555555;stroke-width:1.5;"/><text fill="#000000" font-family="Arial" font-size="13" lengthAdjust="spacing" textLength="61.9581" x="831.303" y="438.3419">Rensing &amp;</text><text fill="#000000" font-family="Arial" font-size="13" lengthAdjust="spacing" textLength="96.5641" x="814" y="456.0479">standardisering</text></g><!--link silverA to goldNational--><g class="link" data-entity-1="ent0022" data-entity-2="ent0029" data-link-type="dependency" data-source-line="111" id="lnk50"><path d="M331.75,576.7548 C328.62,592.2848 327.02,611.1448 332,627.4448 C338.81,649.7348 349.3347,666.7778 362.4447,683.5478" fill="none" id="silverA-to-goldNational" style="stroke:#555555;stroke-width:1.5;"/><polygon fill="#555555" points="366.14,688.2748,363.7483,678.7208,363.0605,684.3357,357.4457,683.6479,366.14,688.2748" style="stroke:#555555;stroke-width:1.5;"/><text fill="#000000" font-family="Arial" font-size="13" lengthAdjust="spacing" textLength="77.0771" x="333" y="623.3419">Aggregering</text></g><!--link silverB to goldNational--><g class="link" data-entity-1="ent0023" data-entity-2="ent0029" data-link-type="dependency" data-source-line="112" id="lnk51"><path d="M660.89,576.6748 C650.6,586.0348 638.21,595.2048 625,600.4448 C607.01,607.5848 467.28,597.9848 451,608.4448 C423.21,626.3048 409.955,656.5076 402.445,682.6776" fill="none" id="silverB-to-goldNational" style="stroke:#555555;stroke-width:1.5;"/><polygon fill="#555555" points="400.79,688.4448,407.1173,680.8973,402.1692,683.6388,399.4277,678.6906,400.79,688.4448" style="stroke:#555555;stroke-width:1.5;"/><text fill="#000000" font-family="Arial" font-size="13" lengthAdjust="spacing" textLength="77.0771" x="452" y="623.3419">Aggregering</text></g><!--link silverC to goldNational--><g class="link" data-entity-1="ent0024" data-entity-2="ent0029" data-link-type="dependency" data-source-line="113" id="lnk52"><path d="M809.81,576.6448 C803.28,594.8048 792.15,616.2548 774,627.4448 C745.62,644.9448 504.47,621.9048 474,635.4448 C449.16,646.4848 431.8571,664.4352 417.6571,683.4752" fill="none" id="silverC-to-goldNational" style="stroke:#555555;stroke-width:1.5;"/><polygon fill="#555555" points="414.07,688.2848,422.657,683.4617,417.0592,684.2768,416.2441,678.6789,414.07,688.2848" style="stroke:#555555;stroke-width:1.5;"/><text fill="#000000" font-family="Arial" font-size="13" lengthAdjust="spacing" textLength="77.0771" x="794" y="623.3419">Aggregering</text></g><!--link silverA to goldCross--><g class="link" data-entity-1="ent0022" data-entity-2="ent0030" data-link-type="dependency" data-source-line="115" id="lnk53"><path d="M369.16,576.5448 C379.46,585.9048 391.83,595.0948 405,600.4448 C431.61,611.2548 505.75,603.2448 534,608.4448 C561.93,613.5848 567.11,622.1248 595,627.4448 C618.42,631.9048 680.62,624.8948 702,635.4448 C721.81,645.2148 735.0863,657.9833 747.8163,674.4933" fill="none" id="silverA-to-goldCross" style="stroke:#555555;stroke-width:1.5;"/><polygon fill="#555555" points="751.48,679.2448,749.1522,669.675,748.4269,675.2852,742.8168,674.5599,751.48,679.2448" style="stroke:#555555;stroke-width:1.5;"/><text fill="#000000" font-family="Arial" font-size="13" lengthAdjust="spacing" textLength="78.0391" x="596" y="623.3419">Krysskobling</text></g><!--link silverB to goldCross--><g class="link" data-entity-1="ent0023" data-entity-2="ent0030" data-link-type="dependency" data-source-line="116" id="lnk54"><path d="M682.72,576.7748 C681.1,592.8448 681.71,612.1848 690,627.4448 C693.06,633.0748 697.16,631.2448 702,635.4448 C717.21,648.6448 728.3976,660.2845 741.0276,674.9045" fill="none" id="silverB-to-goldCross" style="stroke:#555555;stroke-width:1.5;"/><polygon fill="#555555" points="744.95,679.4448,742.0934,670.0194,741.6814,675.6612,736.0395,675.2492,744.95,679.4448" style="stroke:#555555;stroke-width:1.5;"/><text fill="#000000" font-family="Arial" font-size="13" lengthAdjust="spacing" textLength="78.0391" x="691" y="623.3419">Krysskobling</text></g><!--link silverC to goldCross--><g class="link" data-entity-1="ent0024" data-entity-2="ent0030" data-link-type="dependency" data-source-line="117" id="lnk55"><path d="M865.06,570.8248 C885.86,585.6748 903.49,605.7348 893,627.4448 C880.59,653.1348 862.107,670.4938 839.517,685.7038" fill="none" id="silverC-to-goldCross" style="stroke:#555555;stroke-width:1.5;"/><polygon fill="#555555" points="834.54,689.0548,844.2395,687.3463,838.6875,686.2623,839.7715,680.7103,834.54,689.0548" style="stroke:#555555;stroke-width:1.5;"/><text fill="#000000" font-family="Arial" font-size="13" lengthAdjust="spacing" textLength="78.0391" x="897" y="623.3419">Krysskobling</text></g><!--link goldNational to analyst--><g class="link" data-entity-1="ent0029" data-entity-2="ent0035" data-link-type="dependency" data-source-line="119" id="lnk56"><path d="M390.26,752.5048 C385.82,789.3648 379.1271,844.8578 374.3371,884.6478" fill="none" id="goldNational-to-analyst" style="stroke:#555555;stroke-width:1.5;"/><polygon fill="#555555" points="373.62,890.6048,378.667,882.1474,374.2176,885.6407,370.7243,881.1913,373.62,890.6048" style="stroke:#555555;stroke-width:1.5;"/><text fill="#000000" font-family="Arial" font-size="13" lengthAdjust="spacing" textLength="47.177" x="387" y="817.3419">Analyse</text></g><!--link goldNational to reportService--><g class="link" data-entity-1="ent0029" data-entity-2="ent0037" data-link-type="dependency" data-source-line="120" id="lnk57"><path d="M417.79,752.6148 C426.47,764.9048 435.89,779.4148 443,793.4448 C461.33,829.6248 474.0645,868.7006 482.1345,896.6306" fill="none" id="goldNational-to-reportService" style="stroke:#555555;stroke-width:1.5;"/><polygon fill="#555555" points="483.8,902.3948,485.1446,892.6382,482.4121,897.5913,477.459,894.8588,483.8,902.3948" style="stroke:#555555;stroke-width:1.5;"/><text fill="#000000" font-family="Arial" font-size="13" lengthAdjust="spacing" textLength="81.3801" x="461" y="817.3419">Rapportering</text></g><!--link goldCross to manager--><g class="link" data-entity-1="ent0030" data-entity-2="ent0036" data-link-type="dependency" data-source-line="121" id="lnk58"><path d="M737.8,761.7748 C727.01,770.8548 714.73,779.5448 702,785.4448 C681.98,794.7248 668.43,777.6648 653,793.4448 C630.5,816.4548 626.241,847.08 627.461,876.45" fill="none" id="goldCross-to-manager" style="stroke:#555555;stroke-width:1.5;"/><polygon fill="#555555" points="627.71,882.4448,631.333,873.2866,627.5025,877.4491,623.3399,873.6186,627.71,882.4448" style="stroke:#555555;stroke-width:1.5;"/><text fill="#000000" font-family="Arial" font-size="13" lengthAdjust="spacing" textLength="60.3591" x="683.2045" y="808.3419">Innsikt p&#229;</text><text fill="#000000" font-family="Arial" font-size="13" lengthAdjust="spacing" textLength="118.7681" x="654" y="826.0479">tvers av kommuner</text></g><!--link goldCross to partner--><g class="link" data-entity-1="ent0030" data-entity-2="ent0038" data-link-type="dependency" data-source-line="122" id="lnk59"><path d="M779.31,761.4548 C781.71,802.9048 785.0429,860.5349 787.1129,896.2549" fill="none" id="goldCross-to-partner" style="stroke:#555555;stroke-width:1.5;"/><polygon fill="#555555" points="787.46,902.2448,790.9326,893.0285,787.1707,897.2532,782.946,893.4913,787.46,902.2448" style="stroke:#555555;stroke-width:1.5;"/><text fill="#000000" font-family="Arial" font-size="13" lengthAdjust="spacing" textLength="56.836" x="801.5955" y="808.3419">Deling av</text><text fill="#000000" font-family="Arial" font-size="13" lengthAdjust="spacing" textLength="92.0271" x="784" y="826.0479">aggregert data</text></g><?plantuml-src tLTDRXit5DxFAGW7Q1F0YgqPAGcwA30QQuB2XH5OQLVQK1fgp0o754ZAWLeOw26ww0LyX-vravwaZpypegIH72yTMW8Clk_Z--7xeLH5-H9BNACPdbUb52jUP889YLxbO_CNgHPHa0LUCPqBhczmJL0gAMRTyWdzWw1-4WXJASLNV_BGhdtXvpiwhpXH2lNV3gD0AibSOruoWlwC4ApHWQMN-I3FdKp8WaY_FqZVvUdGxXkZ_6u_xQVnsExUkaCa9nBrBwE7K6k1DPvXTLJfECq7u_HGQPA-lneCZYZTqO3d6aJ7VChpuVZTuV5PzZwzjAPggY4aLs3cac6j5qBMg8UkHLslEB7c5uHHNaxvI0gko3cQRFvbzqYKwEEAiHx3PHJzYFxx-o_ueCbgkMGKug3MIfDQ-VqNyOcY9OGFbmITNLDM4ES2-FAwSj6GRyuGLaY9bPmJPOFx8R_qeTzoVUZw5bpr3MxyuQh1cRLDnRC9hYwmhEZzbBzkcLxFMgNzBiudHYYv4BKIikocnLsqpJ-LuAActPJ4KXwwVOcTB_7pVObR3QDENoQLOAGR7v-oA74M9S-tA6arPC-9Ra2BkscONypMvH5E4zw7e5XCGK63OtWDIVQ22kL8qRZ-0Fq0-iVjvj7s3hG4rtpvs5ZCdC-cTf9nSsjja_HdJFbk4JbI-WGs3h2Z9x19WCqibWjDaAJbdKPYiQFHhDzcv0xpWX6DvERHd7lUogY259OwTFLjA_o5buIZIgwLgiJCD58d8xomAdSIOaBPFHpolII47HG-7mY4NvkXeQ1W2YmBgY1chZoSrtx-7gI4FMK_8nmdFGsD0-ZeD3G9e5tv4EepwtVCA4nJVGujm7lMokwmh0Mt_Y5D6LeGneXgnSQ6Mi1GPOSPqvaL7mKhNdPET2M7UJpOr80hc55kWWNPWSjIahB9ZD9uRl8YpmzRXJbWoc-m-Y8uPaZ0_IXQROatM5CZwQHzDcWV-Yd705ihqb8pAPJgo8A3OyqoJoUqaF25Ba2Q-vIjlEhqhnN3Wmjv_GOWyN8ff2RoTAV8e9sju6sYlgUKk7PESV3UNiMyTV9LFZHPu7F0lNZFKXCrJIkFTa7K8U9N0ZMABgPyHXHRQGunXVRJ46fWbFwYWa5-6zo0wasv_aBWvuHssI69aKs8lATpiiySLm2JVCeLhh6S4LeeUA9hxlNv_tVkqIKF4rzV_3tQgxHFLjJh_TmCKFGJJ40ExG-2QQNnIMboL1hP5sGW7ksJH_5HQMGVUu4usoTdyKbfSbGQDSOQW9yI033p3iJe1qY6OE0PHcFWbZ3w5a8M4BBJXAYnmp32dWMqr3SWwvdN_asmx2dOWLRRHG5q7Jn-3dIU06MdGT6EBGRgEu2nopNKGyXE_Pee1iKURLKPg6yFxhRDP47BpIEq0pCv4BxVDlfTcgzoe5tPtyq0XG7Jj7qxYAB_0G00?></g></svg>