<?xml version="1.0" encoding="utf-8"?>
<!-- Generator: Adobe Illustrator 17.1.0, SVG Export Plug-In . SVG Version: 6.00 Build 0)  -->
<!DOCTYPE svg PUBLIC "-//W3C//DTD SVG 1.1//EN" "http://www.w3.org/Graphics/SVG/1.1/DTD/svg11.dtd" [
	<!ENTITY ns_extend "http://ns.adobe.com/Extensibility/1.0/">
	<!ENTITY ns_ai "http://ns.adobe.com/AdobeIllustrator/10.0/">
	<!ENTITY ns_graphs "http://ns.adobe.com/Graphs/1.0/">
	<!ENTITY ns_vars "http://ns.adobe.com/Variables/1.0/">
	<!ENTITY ns_imrep "http://ns.adobe.com/ImageReplacement/1.0/">
	<!ENTITY ns_sfw "http://ns.adobe.com/SaveForWeb/1.0/">
	<!ENTITY ns_custom "http://ns.adobe.com/GenericCustomNamespace/1.0/">
	<!ENTITY ns_adobe_xpath "http://ns.adobe.com/XPath/1.0/">
]>
<svg version="1.1" id="Layer_1" xmlns:x="&ns_extend;" xmlns:i="&ns_ai;" xmlns:graph="&ns_graphs;"
	 xmlns="http://www.w3.org/2000/svg" xmlns:xlink="http://www.w3.org/1999/xlink" x="0px" y="0px" viewBox="0 0 255.118 127.56"
	 enable-background="new 0 0 255.118 127.56" xml:space="preserve">
<metadata>
	<sfw  xmlns="&ns_sfw;">
		<slices></slices>
		<sliceSourceBounds  width="255.118" height="127.56" x="294.271" y="269.463" bottomLeftOrigin="true"></sliceSourceBounds>
	</sfw>
</metadata>
<g>
	<rect x="0" y="0.001" fill="#001A58" width="127.56" height="127.559"/>
	<rect x="127.56" y="0" fill="#003976" width="127.559" height="127.56"/>
	<rect x="128.268" y="0.709" fill="#FFFFFF" stroke="#001A58" width="126.142" height="126.142"/>
	<path fill="#FFFFFF" d="M94.105,31.32c-10.744,0-22.525,5.742-23.397,14.952c-0.649,7.256,4.066,10.885,7.584,14.402
		c5.628,5.628,11.053,9.646,11.053,13.865c0,6.496-6.271,13.569-14.41,13.569c-9.04,0-13.88-5.54-16.027-8.05L42.776,61.214
		c-0.626-0.731-0.606-1.07,0-1.625l33.246-27.394h-7.379L35.075,59.332l8.891-27.138h-7.163L17.538,91.001H24.7l9.562-29.187
		l16.954,19.872c5.311,5.517,11.696,10.825,22.094,10.825c10.604,0,16.931-3.843,21.797-9.965c4.815-6.06,3.775-13.876-0.522-17.971
		c-3.608-3.438-6.867-6.45-9.399-9.026c-2.26-2.29-6.456-6.062-6.456-10.751c0-6.968,8.841-9.689,15.701-9.689
		c3.622,0,9.803,1.312,13.914,4.101l1.508-3.933C104.992,33.1,98.981,31.32,94.105,31.32z"/>
	<path fill="#001A58" d="M185.519,30.801l-16.855,8.115c-0.755,0.362-1.071,1.267-0.707,2.022c0.361,0.753,1.266,1.071,2.021,0.708
		l16.854-8.113c0.754-0.365,1.07-1.27,0.706-2.023C187.178,30.755,186.273,30.438,185.519,30.801z"/>
	<path fill="#001A58" d="M162.848,46.553l-4.163,18.233c-0.187,0.814,0.323,1.63,1.14,1.814c0.815,0.187,1.628-0.325,1.814-1.139
		l4.164-18.235c0.187-0.816-0.324-1.628-1.139-1.814C163.847,45.227,163.034,45.735,162.848,46.553z"/>
	<path fill="#001A58" d="M161.585,72.641c-0.655,0.521-0.763,1.474-0.241,2.13l11.658,14.622c0.522,0.654,1.476,0.762,2.131,0.24
		c0.654-0.521,0.761-1.475,0.24-2.129l-11.66-14.624C163.191,72.226,162.24,72.118,161.585,72.641z"/>
	<path fill="#001A58" d="M180.469,91.778c0,0.838,0.679,1.516,1.515,1.516l18.702,0.002c0.836,0,1.515-0.679,1.515-1.517
		c0-0.835-0.679-1.515-1.515-1.515l-18.702-0.002C181.148,90.263,180.469,90.942,180.469,91.778z"/>
	<path fill="#001A58" d="M218.086,72.576l-11.663,14.623c-0.521,0.654-0.415,1.606,0.238,2.129c0.654,0.521,1.608,0.414,2.131-0.24
		l11.662-14.621c0.521-0.654,0.414-1.607-0.24-2.129C219.561,71.816,218.607,71.923,218.086,72.576z"/>
	<path fill="#001A58" d="M216.98,45.484c-0.815,0.187-1.326,0.999-1.14,1.813L220,65.532c0.186,0.815,0.997,1.325,1.815,1.14
		c0.814-0.185,1.325-0.997,1.139-1.814l-4.158-18.233C218.608,45.809,217.794,45.298,216.98,45.484z"/>
	<path fill="#001A58" d="M184.497,39.197c0.159,0.024,3.108,0.452,6.581,0.452c3.472,0,6.418-0.428,6.544-0.446
		c0.651-0.092,1.613-0.302,2.368-1.056c0.249-0.248,0.441-0.534,0.607-0.832l-2.74-1.32c-0.003,0.003-0.006,0.008-0.01,0.01
		c-0.045,0.045-0.193,0.134-0.657,0.199c-0.037,0.005-2.87,0.416-6.111,0.416c-3.24,0-6.076-0.411-6.105-0.415
		c-0.562-0.097-0.613-0.147-0.669-0.202c-0.042-0.042-0.102-0.123-0.142-0.232l-2.729,1.313c0.181,0.39,0.417,0.75,0.729,1.062
		C182.89,38.873,183.683,39.059,184.497,39.197z"/>
	<path fill="#001A58" d="M184.121,29.172c0-0.229,0.115-0.377,0.186-0.446c0.046-0.046,0.193-0.134,0.658-0.2
		c0.037-0.004,2.871-0.414,6.112-0.414c3.24,0,6.075,0.41,6.104,0.413c0.563,0.098,0.615,0.147,0.669,0.203
		c0.068,0.067,0.183,0.216,0.183,0.444v1.637l3.031,1.46v-3.097c0-0.976-0.381-1.896-1.072-2.589
		c-0.729-0.725-1.52-0.912-2.334-1.051c-0.161-0.024-3.107-0.451-6.58-0.451c-3.474,0-6.421,0.428-6.545,0.445
		c-0.649,0.092-1.613,0.302-2.367,1.057c-0.693,0.692-1.074,1.613-1.074,2.589v2.808l3.03-1.458V29.172z"/>
	<path fill="#001A58" d="M160.526,47.506c-0.18-0.143-0.226-0.327-0.236-0.426c-0.007-0.062,0.017-0.233,0.256-0.639
		c0.019-0.031,1.466-2.502,3.485-5.036c2.021-2.534,4.109-4.494,4.13-4.515c0.428-0.379,0.499-0.388,0.576-0.397
		c0.095-0.01,0.282-0.007,0.462,0.136c0,0,0.341,0.271,0.841,0.671l3.029-1.46c-1.052-0.84-1.982-1.581-1.982-1.581
		c-0.763-0.609-1.718-0.884-2.692-0.774c-1.019,0.116-1.658,0.618-2.275,1.169c-0.118,0.109-2.291,2.147-4.457,4.862
		c-2.164,2.715-3.669,5.286-3.731,5.395c-0.335,0.566-0.77,1.452-0.651,2.51c0.11,0.976,0.593,1.846,1.357,2.456l2.176,1.734
		l0.749-3.279L160.526,47.506z"/>
	<path fill="#001A58" d="M166.32,54.632c1.021-0.115,1.66-0.62,2.276-1.169c0.118-0.109,2.291-2.148,4.456-4.863
		c2.166-2.716,3.671-5.287,3.732-5.396c0.297-0.502,0.672-1.254,0.672-2.154c0-0.115-0.006-0.233-0.02-0.354
		c-0.06-0.524-0.232-1.012-0.492-1.449l-2.783,1.341c0.01,0.008,0.029,0.023,0.029,0.023c0.179,0.14,0.225,0.325,0.236,0.423
		c0.005,0.062-0.019,0.233-0.257,0.64c-0.02,0.031-1.465,2.504-3.484,5.036c-2.021,2.533-4.11,4.495-4.131,4.515
		c-0.427,0.38-0.498,0.389-0.573,0.397c-0.067,0.007-0.175,0.003-0.292-0.04l-0.675,2.955
		C165.436,54.642,165.877,54.682,166.32,54.632z"/>
	<path fill="#001A58" d="M160.392,77.124c-0.222,0.052-0.395-0.03-0.479-0.082c-0.053-0.032-0.174-0.158-0.34-0.596
		c-0.016-0.035-1.045-2.708-1.764-5.867c-0.723-3.162-0.953-6.017-0.957-6.045c-0.008-0.144-0.011-0.255-0.011-0.343
		c0-0.258,0.029-0.307,0.06-0.354c0.051-0.082,0.171-0.228,0.393-0.278c0,0,0.332-0.075,0.832-0.188l0.748-3.279l-2.253,0.513
		c-0.951,0.217-1.765,0.792-2.285,1.622c-0.546,0.868-0.552,1.683-0.507,2.508c0.014,0.163,0.252,3.133,1.023,6.519
		c0.773,3.385,1.847,6.166,1.892,6.282c0.233,0.613,0.654,1.506,1.557,2.073c0.831,0.522,1.814,0.688,2.767,0.471l2.886-0.659
		l-2.097-2.631L160.392,77.124z"/>
	<path fill="#001A58" d="M169.575,77.036c0.545-0.867,0.552-1.682,0.507-2.51c-0.014-0.16-0.252-3.13-1.024-6.518
		c-0.773-3.385-1.847-6.163-1.891-6.281c-0.235-0.612-0.655-1.506-1.557-2.072c-0.505-0.318-1.066-0.486-1.643-0.534l-0.701,3.074
		c0.16-0.035,0.254-0.058,0.254-0.058c0.223-0.05,0.394,0.028,0.478,0.082c0.052,0.034,0.172,0.159,0.339,0.599
		c0.016,0.034,1.045,2.707,1.766,5.865c0.721,3.161,0.952,6.017,0.954,6.045c0.03,0.571-0.009,0.634-0.046,0.696
		c-0.018,0.026-0.057,0.065-0.09,0.101c0.577,0.725,1.219,1.527,1.887,2.366C169.101,77.646,169.367,77.37,169.575,77.036z"/>
	<path fill="#001A58" d="M188.625,87.934c-0.341-0.967-0.973-1.479-1.647-1.959c-0.135-0.091-2.605-1.755-5.733-3.262
		c-3.128-1.507-5.968-2.4-6.089-2.438c-0.627-0.2-1.588-0.427-2.591-0.076c-0.489,0.169-0.924,0.441-1.29,0.784
		c0.672,0.846,1.324,1.663,1.921,2.412c0-0.002,0.005-0.015,0.005-0.015c0.102-0.206,0.27-0.289,0.361-0.32
		c0.062-0.022,0.234-0.038,0.685,0.105c0.032,0.009,2.764,0.87,5.685,2.276c2.919,1.406,5.295,3.006,5.319,3.021
		c0.465,0.331,0.49,0.402,0.513,0.472c0.032,0.091,0.069,0.268-0.023,0.469h3.077C188.853,88.913,188.793,88.413,188.625,87.934z"/>
	<path fill="#001A58" d="M182.967,95.169c-0.095,0.196-0.248,0.285-0.361,0.323c-0.061,0.021-0.232,0.037-0.681-0.106
		c-0.035-0.011-2.768-0.872-5.686-2.277c-2.919-1.407-5.296-3.005-5.32-3.021c-0.465-0.334-0.489-0.401-0.514-0.473
		c-0.031-0.092-0.071-0.276,0.026-0.481c0,0,0.195-0.404,0.479-0.989l-2.098-2.632l-1.109,2.307
		c-0.426,0.879-0.482,1.872-0.158,2.798c0.339,0.965,0.971,1.477,1.645,1.959c0.136,0.092,2.606,1.757,5.734,3.263
		c3.129,1.506,5.971,2.399,6.092,2.437c0.624,0.2,1.583,0.429,2.588,0.079c0.929-0.325,1.671-0.99,2.096-1.872l1.122-2.328h-3.365
		L182.967,95.169z"/>
	<path fill="#001A58" d="M211.694,88.947c0.093,0.195,0.066,0.372,0.028,0.485c-0.018,0.048-0.104,0.194-0.507,0.464
		c-0.031,0.022-2.408,1.621-5.328,3.027c-2.921,1.405-5.651,2.268-5.678,2.276c-0.553,0.155-0.62,0.132-0.691,0.108
		c-0.089-0.031-0.262-0.116-0.359-0.321c0-0.001-0.159-0.335-0.398-0.832h-3.365l1.033,2.144c0.424,0.88,1.165,1.544,2.09,1.869
		c0.965,0.338,1.76,0.162,2.558-0.063c0.158-0.05,2.998-0.944,6.127-2.45c3.129-1.507,5.6-3.17,5.703-3.241
		c0.544-0.362,1.321-0.971,1.676-1.977c0.323-0.926,0.267-1.921-0.158-2.802l-1.27-2.637l-2.098,2.629L211.694,88.947z"/>
	<path fill="#001A58" d="M207.007,80.08c-0.155,0.048-2.996,0.941-6.125,2.448c-3.128,1.507-5.598,3.171-5.701,3.239
		c-0.549,0.367-1.324,0.975-1.676,1.978c-0.191,0.543-0.235,1.108-0.165,1.659l3.134,0.002c-0.051-0.104-0.083-0.175-0.083-0.175
		c-0.101-0.204-0.059-0.389-0.027-0.481c0.02-0.061,0.115-0.204,0.508-0.467c0.03-0.021,2.406-1.619,5.325-3.025
		c2.92-1.406,5.652-2.267,5.68-2.274c0.55-0.157,0.618-0.133,0.689-0.108c0.037,0.013,0.091,0.039,0.145,0.075l1.884-2.359
		c-0.311-0.242-0.649-0.444-1.03-0.577C208.598,79.677,207.805,79.853,207.007,80.08z"/>
	<path fill="#001A58" d="M227.318,61.834c-0.521-0.83-1.335-1.405-2.288-1.624l-2.379-0.543c0.29,1.274,0.551,2.412,0.747,3.279
		l0.958,0.22c0.209,0.047,0.331,0.178,0.393,0.278c0.029,0.046,0.09,0.202,0.048,0.685c-0.003,0.041-0.233,2.896-0.954,6.054
		c-0.722,3.162-1.751,5.834-1.762,5.861c-0.221,0.53-0.283,0.566-0.346,0.607c-0.081,0.051-0.254,0.131-0.476,0.079
		c0,0-0.535-0.121-1.282-0.292l-2.097,2.631l2.702,0.615c0.952,0.219,1.935,0.053,2.763-0.467c0.871-0.547,1.227-1.279,1.547-2.042
		c0.059-0.153,1.133-2.931,1.903-6.317c0.773-3.387,1.013-6.355,1.021-6.482C227.874,63.726,227.885,62.738,227.318,61.834z"/>
	<path fill="#001A58" d="M214.642,75.032c-0.034-0.056-0.087-0.221-0.048-0.691c0.002-0.034,0.235-2.889,0.955-6.053
		c0.72-3.159,1.752-5.829,1.761-5.855c0.222-0.529,0.284-0.568,0.35-0.609c0.079-0.051,0.252-0.129,0.475-0.079l0.126,0.029
		c-0.21-0.929-0.446-1.96-0.692-3.039c-0.536,0.062-1.055,0.229-1.524,0.524c-0.868,0.548-1.226,1.279-1.545,2.044
		c-0.059,0.149-1.132,2.928-1.904,6.313c-0.771,3.388-1.011,6.355-1.021,6.48c-0.055,0.656-0.062,1.64,0.498,2.542
		c0.241,0.384,0.551,0.707,0.9,0.971l1.9-2.379C214.761,75.165,214.678,75.088,214.642,75.032z"/>
	<path fill="#001A58" d="M212.478,36.753c0.171-0.137,0.35-0.149,0.469-0.135c0.051,0.006,0.212,0.057,0.562,0.39
		c0.029,0.025,2.118,1.987,4.139,4.521c2.019,2.534,3.467,5.005,3.481,5.03c0.228,0.416,0.262,0.535,0.262,0.608
		c0,0.014-0.001,0.027-0.003,0.039c-0.012,0.095-0.056,0.281-0.235,0.423c0,0-0.441,0.353-1.055,0.843
		c0.204,0.896,0.461,2.028,0.748,3.279l2.196-1.752c0.764-0.609,1.246-1.48,1.356-2.452c0.114-1.02-0.235-1.755-0.633-2.481
		c-0.081-0.141-1.585-2.712-3.751-5.427c-2.163-2.715-4.337-4.753-4.429-4.838c-0.475-0.45-1.238-1.072-2.3-1.193
		c-0.975-0.11-1.934,0.167-2.696,0.776l-1.935,1.542l3.03,1.458L212.478,36.753z"/>
	<path fill="#001A58" d="M204.877,43.297c0.081,0.14,1.584,2.712,3.749,5.425c2.166,2.713,4.336,4.753,4.428,4.839
		c0.479,0.452,1.246,1.073,2.3,1.193c0.438,0.051,0.87,0.01,1.284-0.09c-0.236-1.039-0.465-2.043-0.672-2.952
		c-0.109,0.035-0.207,0.039-0.27,0.031s-0.225-0.068-0.569-0.393c-0.024-0.022-2.111-1.984-4.133-4.518
		c-2.02-2.532-3.467-5.004-3.479-5.028c-0.277-0.503-0.271-0.575-0.261-0.65c0.011-0.097,0.057-0.28,0.235-0.423l0.075-0.06
		l-2.8-1.348c-0.275,0.449-0.462,0.952-0.521,1.491C204.129,41.837,204.478,42.572,204.877,43.297z"/>
	<path fill="#001A58" d="M193.856,31.434c-0.362,0.753-0.046,1.658,0.708,2.02l16.848,8.116c0.756,0.363,1.66,0.047,2.025-0.707
		c0.363-0.755,0.048-1.659-0.707-2.022l-16.851-8.116C195.123,30.362,194.219,30.679,193.856,31.434z"/>
</g>
</svg>
