<?plantuml 1.2026.2?><svg xmlns="http://www.w3.org/2000/svg" xmlns:xlink="http://www.w3.org/1999/xlink" contentStyleType="text/css" data-diagram-type="DESCRIPTION" height="1009px" preserveAspectRatio="none" style="width:1196px;height:1009px;background:#FEFEFE;" version="1.1" viewBox="0 0 1196 1009" width="1196px" zoomAndPan="magnify"><title>Dataplattform - Kommune datadeling</title><defs/><g><rect fill="#FEFEFE" height="1009" style="stroke:none;stroke-width:1;" width="1196" x="0" y="0"/><g class="title" data-source-line="26"><text fill="#000000" font-family="Arial" font-size="14" font-weight="bold" lengthAdjust="spacing" textLength="261.1936" x="460.4032" y="24.9659">Dataplattform - Kommune datadeling</text></g><!--cluster sources--><g class="cluster" data-qualified-name="sources" data-source-line="31" id="ent0002"><path d="M8.5,46.3769 L183.9569,46.3769 A3.75,3.75 0 0 1 186.4569,48.8769 L193.4569,70.0829 L1186.5,70.0829 A2.5,2.5 0 0 1 1189,72.5829 L1189,218.8769 A2.5,2.5 0 0 1 1186.5,221.3769 L8.5,221.3769 A2.5,2.5 0 0 1 6,218.8769 L6,48.8769 A2.5,2.5 0 0 1 8.5,46.3769" fill="#FFF8F0" style="stroke:#000000;stroke-width:1.5;"/><line style="stroke:#000000;stroke-width:1.5;" x1="6" x2="193.4569" y1="70.0829" y2="70.0829"/><text fill="#000000" font-family="Arial" font-size="13" font-weight="bold" lengthAdjust="spacing" textLength="174.4569" x="10" y="62.2739">Kildesystemer (kommuner)</text></g><!--cluster k1--><g class="cluster" data-qualified-name="sources.k1" data-source-line="32" id="ent0003"><path d="M32.5,90.3769 L111.1881,90.3769 A3.75,3.75 0 0 1 113.6881,92.8769 L120.6881,114.0829 L435.5,114.0829 A2.5,2.5 0 0 1 438,116.5829 L438,194.8769 A2.5,2.5 0 0 1 435.5,197.3769 L32.5,197.3769 A2.5,2.5 0 0 1 30,194.8769 L30,92.8769 A2.5,2.5 0 0 1 32.5,90.3769" fill="#FFE8D0" style="stroke:#000000;stroke-width:1.5;"/><line style="stroke:#000000;stroke-width:1.5;" x1="30" x2="120.6881" y1="114.0829" y2="114.0829"/><text fill="#000000" font-family="Arial" font-size="13" font-weight="bold" lengthAdjust="spacing" textLength="77.6881" x="34" y="106.2739">Kommune 1</text></g><!--cluster k2--><g class="cluster" data-qualified-name="sources.k2" data-source-line="37" id="ent0007"><path d="M464.5,90.3769 L543.1881,90.3769 A3.75,3.75 0 0 1 545.6881,92.8769 L552.6881,114.0829 L730.5,114.0829 A2.5,2.5 0 0 1 733,116.5829 L733,194.8769 A2.5,2.5 0 0 1 730.5,197.3769 L464.5,197.3769 A2.5,2.5 0 0 1 462,194.8769 L462,92.8769 A2.5,2.5 0 0 1 464.5,90.3769" fill="#FFE8D0" style="stroke:#000000;stroke-width:1.5;"/><line style="stroke:#000000;stroke-width:1.5;" x1="462" x2="552.6881" y1="114.0829" y2="114.0829"/><text fill="#000000" font-family="Arial" font-size="13" font-weight="bold" lengthAdjust="spacing" textLength="77.6881" x="466" y="106.2739">Kommune 2</text></g><!--cluster k3--><g class="cluster" data-qualified-name="sources.k3" data-source-line="41" id="ent0010"><path d="M759.5,90.3769 L838.1881,90.3769 A3.75,3.75 0 0 1 840.6881,92.8769 L847.6881,114.0829 L1162.5,114.0829 A2.5,2.5 0 0 1 1165,116.5829 L1165,194.8769 A2.5,2.5 0 0 1 1162.5,197.3769 L759.5,197.3769 A2.5,2.5 0 0 1 757,194.8769 L757,92.8769 A2.5,2.5 0 0 1 759.5,90.3769" fill="#FFE8D0" style="stroke:#000000;stroke-width:1.5;"/><line style="stroke:#000000;stroke-width:1.5;" x1="757" x2="847.6881" y1="114.0829" y2="114.0829"/><text fill="#000000" font-family="Arial" font-size="13" font-weight="bold" lengthAdjust="spacing" textLength="77.6881" x="761" y="106.2739">Kommune 3</text></g><!--cluster bronze--><g class="cluster" data-qualified-name="bronze" data-source-line="50" id="ent0014"><path d="M301.5,272.3769 L521.9337,272.3769 A3.75,3.75 0 0 1 524.4337,274.8769 L531.4337,296.0829 L869.5,296.0829 A2.5,2.5 0 0 1 872,298.5829 L872,385.8769 A2.5,2.5 0 0 1 869.5,388.3769 L301.5,388.3769 A2.5,2.5 0 0 1 299,385.8769 L299,274.8769 A2.5,2.5 0 0 1 301.5,272.3769" fill="#FFF3E0" style="stroke:#000000;stroke-width:1.5;"/><line style="stroke:#000000;stroke-width:1.5;" x1="299" x2="531.4337" y1="296.0829" y2="296.0829"/><text fill="#000000" font-family="Arial" font-size="13" font-weight="bold" lengthAdjust="spacing" textLength="219.4337" x="303" y="288.2739">Bronselag - R&#229; data per kommune</text></g><!--cluster silver--><g class="cluster" data-qualified-name="silver" data-source-line="63" id="ent0021"><path d="M280.5,457.3769 L494.0274,457.3769 A3.75,3.75 0 0 1 496.5274,459.8769 L503.5274,481.0829 L878.5,481.0829 A2.5,2.5 0 0 1 881,483.5829 L881,570.8769 A2.5,2.5 0 0 1 878.5,573.3769 L280.5,573.3769 A2.5,2.5 0 0 1 278,570.8769 L278,459.8769 A2.5,2.5 0 0 1 280.5,457.3769" fill="#F0F4FF" style="stroke:#000000;stroke-width:1.5;"/><line style="stroke:#000000;stroke-width:1.5;" x1="278" x2="503.5274" y1="481.0829" y2="481.0829"/><text fill="#000000" font-family="Arial" font-size="13" font-weight="bold" lengthAdjust="spacing" textLength="212.5274" x="282" y="473.2739">S&#248;lvlag - Renset og standardisert</text></g><!--cluster gold--><g class="cluster" data-qualified-name="gold" data-source-line="76" id="ent0028"><path d="M317.5,624.3769 L528.7459,624.3769 A3.75,3.75 0 0 1 531.2459,626.8769 L538.2459,648.0829 L848.5,648.0829 A2.5,2.5 0 0 1 851,650.5829 L851,755.8769 A2.5,2.5 0 0 1 848.5,758.3769 L317.5,758.3769 A2.5,2.5 0 0 1 315,755.8769 L315,626.8769 A2.5,2.5 0 0 1 317.5,624.3769" fill="#F0FFF0" style="stroke:#000000;stroke-width:1.5;"/><line style="stroke:#000000;stroke-width:1.5;" x1="315" x2="538.2459" y1="648.0829" y2="648.0829"/><text fill="#000000" font-family="Arial" font-size="13" font-weight="bold" lengthAdjust="spacing" textLength="210.2459" x="319" y="640.2739">Gullag - Kombinert og aggregert</text></g><!--cluster consumers--><g class="cluster" data-qualified-name="consumers" data-source-line="88" id="ent0034"><path d="M324.5,827.3769 L413.0908,827.3769 A3.75,3.75 0 0 1 415.5908,829.8769 L422.5908,851.0829 L871.5,851.0829 A2.5,2.5 0 0 1 874,853.5829 L874,971.8769 A2.5,2.5 0 0 1 871.5,974.3769 L324.5,974.3769 A2.5,2.5 0 0 1 322,971.8769 L322,829.8769 A2.5,2.5 0 0 1 324.5,827.3769" fill="#F5F0FF" style="stroke:#000000;stroke-width:1.5;"/><line style="stroke:#000000;stroke-width:1.5;" x1="322" x2="422.5908" y1="851.0829" y2="851.0829"/><text fill="#000000" font-family="Arial" font-size="13" font-weight="bold" lengthAdjust="spacing" textLength="87.5908" x="326" y="843.2739">Konsumenter</text></g><!--entity sysA1--><g class="entity" data-qualified-name="sources.k1.sysA1" data-source-line="33" id="ent0004"><rect fill="#F0F4FF" height="55.412" rx="5" ry="5" style="stroke:#4A6FA5;stroke-width:0.5;" width="102.2381" x="320" y="126.3769"/><text fill="#1A1A2E" font-family="Arial" font-size="13" lengthAdjust="spacing" textLength="55.77" x="330" y="150.2739">Sak/arkiv</text><text fill="#1A1A2E" font-family="Arial" font-size="13" lengthAdjust="spacing" textLength="82.2381" x="330" y="167.9799">(Kommune 1)</text></g><!--entity sysA2--><g class="entity" data-qualified-name="sources.k1.sysA2" data-source-line="34" id="ent0005"><rect fill="#F0F4FF" height="55.412" rx="5" ry="5" style="stroke:#4A6FA5;stroke-width:0.5;" width="102.2381" x="46" y="126.3769"/><text fill="#1A1A2E" font-family="Arial" font-size="13" lengthAdjust="spacing" textLength="81.5491" x="56" y="150.2739">Pleie/omsorg</text><text fill="#1A1A2E" font-family="Arial" font-size="13" lengthAdjust="spacing" textLength="82.2381" x="56" y="167.9799">(Kommune 1)</text></g><!--entity sysA3--><g class="entity" data-qualified-name="sources.k1.sysA3" data-source-line="35" id="ent0006"><rect fill="#F0F4FF" height="55.412" rx="5" ry="5" style="stroke:#4A6FA5;stroke-width:0.5;" width="102.2381" x="183" y="126.3769"/><text fill="#1A1A2E" font-family="Arial" font-size="13" lengthAdjust="spacing" textLength="56.3681" x="193" y="150.2739">&#216;konomi</text><text fill="#1A1A2E" font-family="Arial" font-size="13" lengthAdjust="spacing" textLength="82.2381" x="193" y="167.9799">(Kommune 1)</text></g><!--entity sysB1--><g class="entity" data-qualified-name="sources.k2.sysB1" data-source-line="38" id="ent0008"><rect fill="#F0F4FF" height="55.412" rx="5" ry="5" style="stroke:#4A6FA5;stroke-width:0.5;" width="102.2381" x="478" y="126.3769"/><text fill="#1A1A2E" font-family="Arial" font-size="13" lengthAdjust="spacing" textLength="55.77" x="488" y="150.2739">Sak/arkiv</text><text fill="#1A1A2E" font-family="Arial" font-size="13" lengthAdjust="spacing" textLength="82.2381" x="488" y="167.9799">(Kommune 2)</text></g><!--entity sysB2--><g class="entity" data-qualified-name="sources.k2.sysB2" data-source-line="39" id="ent0009"><rect fill="#F0F4FF" height="55.412" rx="5" ry="5" style="stroke:#4A6FA5;stroke-width:0.5;" width="102.2381" x="615" y="126.3769"/><text fill="#1A1A2E" font-family="Arial" font-size="13" lengthAdjust="spacing" textLength="32.63" x="625" y="150.2739">Skole</text><text fill="#1A1A2E" font-family="Arial" font-size="13" lengthAdjust="spacing" textLength="82.2381" x="625" y="167.9799">(Kommune 2)</text></g><!--entity sysC1--><g class="entity" data-qualified-name="sources.k3.sysC1" data-source-line="42" id="ent0011"><rect fill="#F0F4FF" height="55.412" rx="5" ry="5" style="stroke:#4A6FA5;stroke-width:0.5;" width="102.2381" x="1047" y="126.3769"/><text fill="#1A1A2E" font-family="Arial" font-size="13" lengthAdjust="spacing" textLength="55.77" x="1057" y="150.2739">Sak/arkiv</text><text fill="#1A1A2E" font-family="Arial" font-size="13" lengthAdjust="spacing" textLength="82.2381" x="1057" y="167.9799">(Kommune 3)</text></g><!--entity sysC2--><g class="entity" data-qualified-name="sources.k3.sysC2" data-source-line="43" id="ent0012"><rect fill="#F0F4FF" height="55.412" rx="5" ry="5" style="stroke:#4A6FA5;stroke-width:0.5;" width="102.2381" x="773" y="126.3769"/><text fill="#1A1A2E" font-family="Arial" font-size="13" lengthAdjust="spacing" textLength="81.5491" x="783" y="150.2739">Pleie/omsorg</text><text fill="#1A1A2E" font-family="Arial" font-size="13" lengthAdjust="spacing" textLength="82.2381" x="783" y="167.9799">(Kommune 3)</text></g><!--entity sysC3--><g class="entity" data-qualified-name="sources.k3.sysC3" data-source-line="44" id="ent0013"><rect fill="#F0F4FF" height="55.412" rx="5" ry="5" style="stroke:#4A6FA5;stroke-width:0.5;" width="102.2381" x="910" y="126.3769"/><text fill="#1A1A2E" font-family="Arial" font-size="13" lengthAdjust="spacing" textLength="61.9971" x="920" y="150.2739">Plan/bygg</text><text fill="#1A1A2E" font-family="Arial" font-size="13" lengthAdjust="spacing" textLength="82.2381" x="920" y="167.9799">(Kommune 3)</text></g><!--entity bronzeA--><g class="entity" data-qualified-name="bronze.bronzeA" data-source-line="51" id="ent0015"><path d="M315,318.3769 C315,308.3769 362.219,308.3769 362.219,308.3769 C362.219,308.3769 409.4381,308.3769 409.4381,318.3769 L409.4381,362.789 C409.4381,372.789 362.219,372.789 362.219,372.789 C362.219,372.789 315,372.789 315,362.789 L315,318.3769" fill="#EAF4EA" style="stroke:#3A7D44;stroke-width:0.5;"/><path d="M315,318.3769 C315,328.3769 362.219,328.3769 362.219,328.3769 C362.219,328.3769 409.4381,328.3769 409.4381,318.3769" fill="none" style="stroke:#3A7D44;stroke-width:0.5;"/><text fill="#1A1A2E" font-family="Arial" font-size="13" lengthAdjust="spacing" textLength="43.277" x="325" y="346.2739">Bronse</text><text fill="#1A1A2E" font-family="Arial" font-size="13" lengthAdjust="spacing" textLength="74.4381" x="325" y="363.9799">Kommune 1</text></g><!--entity bronzeB--><g class="entity" data-qualified-name="bronze.bronzeB" data-source-line="52" id="ent0016"><path d="M633,318.3769 C633,308.3769 680.219,308.3769 680.219,308.3769 C680.219,308.3769 727.4381,308.3769 727.4381,318.3769 L727.4381,362.789 C727.4381,372.789 680.219,372.789 680.219,372.789 C680.219,372.789 633,372.789 633,362.789 L633,318.3769" fill="#EAF4EA" style="stroke:#3A7D44;stroke-width:0.5;"/><path d="M633,318.3769 C633,328.3769 680.219,328.3769 680.219,328.3769 C680.219,328.3769 727.4381,328.3769 727.4381,318.3769" fill="none" style="stroke:#3A7D44;stroke-width:0.5;"/><text fill="#1A1A2E" font-family="Arial" font-size="13" lengthAdjust="spacing" textLength="43.277" x="643" y="346.2739">Bronse</text><text fill="#1A1A2E" font-family="Arial" font-size="13" lengthAdjust="spacing" textLength="74.4381" x="643" y="363.9799">Kommune 2</text></g><!--entity bronzeC--><g class="entity" data-qualified-name="bronze.bronzeC" data-source-line="53" id="ent0017"><path d="M762,318.3769 C762,308.3769 809.219,308.3769 809.219,308.3769 C809.219,308.3769 856.4381,308.3769 856.4381,318.3769 L856.4381,362.789 C856.4381,372.789 809.219,372.789 809.219,372.789 C809.219,372.789 762,372.789 762,362.789 L762,318.3769" fill="#EAF4EA" style="stroke:#3A7D44;stroke-width:0.5;"/><path d="M762,318.3769 C762,328.3769 809.219,328.3769 809.219,328.3769 C809.219,328.3769 856.4381,328.3769 856.4381,318.3769" fill="none" style="stroke:#3A7D44;stroke-width:0.5;"/><text fill="#1A1A2E" font-family="Arial" font-size="13" lengthAdjust="spacing" textLength="43.277" x="772" y="346.2739">Bronse</text><text fill="#1A1A2E" font-family="Arial" font-size="13" lengthAdjust="spacing" textLength="74.4381" x="772" y="363.9799">Kommune 3</text></g><g class="entity" data-qualified-name="bronze.GMN18" data-source-line="55" id="ent0019"><path d="M444.5,308.8769 L444.5,336.3769 L409.2,340.3769 L444.5,344.3769 L444.5,371.995 A0,0 0 0 0 444.5,371.995 L597.1511,371.995 A0,0 0 0 0 597.1511,371.995 L597.1511,318.8769 L587.1511,308.8769 L444.5,308.8769 A0,0 0 0 0 444.5,308.8769" fill="#FEFFDD" style="stroke:#181818;stroke-width:0.5;"/><path d="M587.1511,308.8769 L587.1511,318.8769 L597.1511,318.8769 L587.1511,308.8769" fill="#FEFFDD" style="stroke:#181818;stroke-width:0.5;"/><text fill="#000000" font-family="Arial" font-size="13" lengthAdjust="spacing" textLength="118.3651" x="450.5" y="327.7739">Ubehandlet r&#229;data,</text><text fill="#000000" font-family="Arial" font-size="13" lengthAdjust="spacing" textLength="131.6511" x="450.5" y="345.4799">isolert per kommune.</text><text fill="#000000" font-family="Arial" font-size="13" lengthAdjust="spacing" textLength="119.6001" x="450.5" y="363.186">Ingen krysskobling.</text></g><!--entity silverA--><g class="entity" data-qualified-name="silver.silverA" data-source-line="64" id="ent0022"><path d="M294,503.3769 C294,493.3769 341.219,493.3769 341.219,493.3769 C341.219,493.3769 388.4381,493.3769 388.4381,503.3769 L388.4381,547.789 C388.4381,557.789 341.219,557.789 341.219,557.789 C341.219,557.789 294,557.789 294,547.789 L294,503.3769" fill="#EAF4EA" style="stroke:#3A7D44;stroke-width:0.5;"/><path d="M294,503.3769 C294,513.3769 341.219,513.3769 341.219,513.3769 C341.219,513.3769 388.4381,513.3769 388.4381,503.3769" fill="none" style="stroke:#3A7D44;stroke-width:0.5;"/><text fill="#1A1A2E" font-family="Arial" font-size="13" lengthAdjust="spacing" textLength="24.96" x="304" y="531.2739">S&#248;lv</text><text fill="#1A1A2E" font-family="Arial" font-size="13" lengthAdjust="spacing" textLength="74.4381" x="304" y="548.9799">Kommune 1</text></g><!--entity silverB--><g class="entity" data-qualified-name="silver.silverB" data-source-line="65" id="ent0023"><path d="M642,503.3769 C642,493.3769 689.219,493.3769 689.219,493.3769 C689.219,493.3769 736.4381,493.3769 736.4381,503.3769 L736.4381,547.789 C736.4381,557.789 689.219,557.789 689.219,557.789 C689.219,557.789 642,557.789 642,547.789 L642,503.3769" fill="#EAF4EA" style="stroke:#3A7D44;stroke-width:0.5;"/><path d="M642,503.3769 C642,513.3769 689.219,513.3769 689.219,513.3769 C689.219,513.3769 736.4381,513.3769 736.4381,503.3769" fill="none" style="stroke:#3A7D44;stroke-width:0.5;"/><text fill="#1A1A2E" font-family="Arial" font-size="13" lengthAdjust="spacing" textLength="24.96" x="652" y="531.2739">S&#248;lv</text><text fill="#1A1A2E" font-family="Arial" font-size="13" lengthAdjust="spacing" textLength="74.4381" x="652" y="548.9799">Kommune 2</text></g><!--entity silverC--><g class="entity" data-qualified-name="silver.silverC" data-source-line="66" id="ent0024"><path d="M771,503.3769 C771,493.3769 818.219,493.3769 818.219,493.3769 C818.219,493.3769 865.4381,493.3769 865.4381,503.3769 L865.4381,547.789 C865.4381,557.789 818.219,557.789 818.219,557.789 C818.219,557.789 771,557.789 771,547.789 L771,503.3769" fill="#EAF4EA" style="stroke:#3A7D44;stroke-width:0.5;"/><path d="M771,503.3769 C771,513.3769 818.219,513.3769 818.219,513.3769 C818.219,513.3769 865.4381,513.3769 865.4381,503.3769" fill="none" style="stroke:#3A7D44;stroke-width:0.5;"/><text fill="#1A1A2E" font-family="Arial" font-size="13" lengthAdjust="spacing" textLength="24.96" x="781" y="531.2739">S&#248;lv</text><text fill="#1A1A2E" font-family="Arial" font-size="13" lengthAdjust="spacing" textLength="74.4381" x="781" y="548.9799">Kommune 3</text></g><g class="entity" data-qualified-name="silver.GMN25" data-source-line="68" id="ent0026"><path d="M423,493.8769 L423,521.3769 L388.24,525.3769 L423,529.3769 L423,556.995 A0,0 0 0 0 423,556.995 L606.7861,556.995 A0,0 0 0 0 606.7861,556.995 L606.7861,503.8769 L596.7861,493.8769 L423,493.8769 A0,0 0 0 0 423,493.8769" fill="#FEFFDD" style="stroke:#181818;stroke-width:0.5;"/><path d="M596.7861,493.8769 L596.7861,503.8769 L606.7861,503.8769 L596.7861,493.8769" fill="#FEFFDD" style="stroke:#181818;stroke-width:0.5;"/><text fill="#000000" font-family="Arial" font-size="13" lengthAdjust="spacing" textLength="112.2811" x="429" y="512.7739">Validert, renset og</text><text fill="#000000" font-family="Arial" font-size="13" lengthAdjust="spacing" textLength="125.9571" x="429" y="530.4799">harmonisert til felles</text><text fill="#000000" font-family="Arial" font-size="13" lengthAdjust="spacing" textLength="162.7861" x="429" y="548.186">datamodell per kommune.</text></g><!--entity goldNational--><g class="entity" data-qualified-name="gold.goldNational" data-source-line="77" id="ent0029"><path d="M331.5,679.3769 C331.5,669.3769 394.033,669.3769 394.033,669.3769 C394.033,669.3769 456.5661,669.3769 456.5661,679.3769 L456.5661,723.789 C456.5661,733.789 394.033,733.789 394.033,733.789 C394.033,733.789 331.5,733.789 331.5,723.789 L331.5,679.3769" fill="#EAF4EA" style="stroke:#3A7D44;stroke-width:0.5;"/><path d="M331.5,679.3769 C331.5,689.3769 394.033,689.3769 394.033,689.3769 C394.033,689.3769 456.5661,689.3769 456.5661,679.3769" fill="none" style="stroke:#3A7D44;stroke-width:0.5;"/><text fill="#1A1A2E" font-family="Arial" font-size="13" lengthAdjust="spacing" textLength="24.206" x="341.5" y="707.2739">Gull</text><text fill="#1A1A2E" font-family="Arial" font-size="13" lengthAdjust="spacing" textLength="105.0661" x="341.5" y="724.9799">Nasjonal oversikt</text></g><!--entity goldCross--><g class="entity" data-qualified-name="gold.goldCross" data-source-line="78" id="ent0030"><path d="M719.5,670.3769 C719.5,660.3769 777.1385,660.3769 777.1385,660.3769 C777.1385,660.3769 834.7771,660.3769 834.7771,670.3769 L834.7771,732.495 C834.7771,742.495 777.1385,742.495 777.1385,742.495 C777.1385,742.495 719.5,742.495 719.5,732.495 L719.5,670.3769" fill="#EAF4EA" style="stroke:#3A7D44;stroke-width:0.5;"/><path d="M719.5,670.3769 C719.5,680.3769 777.1385,680.3769 777.1385,680.3769 C777.1385,680.3769 834.7771,680.3769 834.7771,670.3769" fill="none" style="stroke:#3A7D44;stroke-width:0.5;"/><text fill="#1A1A2E" font-family="Arial" font-size="13" lengthAdjust="spacing" textLength="24.206" x="729.5" y="698.2739">Gull</text><text fill="#1A1A2E" font-family="Arial" font-size="13" lengthAdjust="spacing" textLength="95.2771" x="729.5" y="715.9799">Tverskommune</text><text fill="#1A1A2E" font-family="Arial" font-size="13" lengthAdjust="spacing" textLength="46.163" x="729.5" y="733.686">analyse</text></g><g class="entity" data-qualified-name="gold.GMN31" data-source-line="80" id="ent0032"><path d="M491.5,669.8769 L491.5,697.3769 L456.52,701.3769 L491.5,705.3769 L491.5,732.995 A0,0 0 0 0 491.5,732.995 L684.5161,732.995 A0,0 0 0 0 684.5161,732.995 L684.5161,679.8769 L674.5161,669.8769 L491.5,669.8769 A0,0 0 0 0 491.5,669.8769" fill="#FEFFDD" style="stroke:#181818;stroke-width:0.5;"/><path d="M674.5161,669.8769 L674.5161,679.8769 L684.5161,679.8769 L674.5161,669.8769" fill="#FEFFDD" style="stroke:#181818;stroke-width:0.5;"/><text fill="#000000" font-family="Arial" font-size="13" lengthAdjust="spacing" textLength="151.7881" x="497.5" y="688.7739">Data fra flere kommuner</text><text fill="#000000" font-family="Arial" font-size="13" lengthAdjust="spacing" textLength="147.7321" x="497.5" y="706.4799">kombinert og aggregert</text><text fill="#000000" font-family="Arial" font-size="13" lengthAdjust="spacing" textLength="172.0161" x="497.5" y="724.186">for analyse og rapportering.</text></g><!--entity analyst--><g class="entity" data-qualified-name="consumers.analyst" data-source-line="89" id="ent0035"><ellipse cx="369.154" cy="880.3769" fill="#FFF5E6" rx="8" ry="8" style="stroke:#CC7A00;stroke-width:0.5;"/><path d="M369.154,888.3769 L369.154,915.3769 M356.154,896.3769 L382.154,896.3769 M369.154,915.3769 L356.154,930.3769 M369.154,915.3769 L382.154,930.3769" fill="none" style="stroke:#CC7A00;stroke-width:0.5;"/><text fill="#000000" font-family="Arial" font-size="13" lengthAdjust="spacing" textLength="61.308" x="338.5" y="945.7739">Analytiker</text></g><!--entity manager--><g class="entity" data-qualified-name="consumers.manager" data-source-line="90" id="ent0036"><ellipse cx="633.954" cy="871.8769" fill="#FFF5E6" rx="8" ry="8" style="stroke:#CC7A00;stroke-width:0.5;"/><path d="M633.954,879.8769 L633.954,906.8769 M620.954,887.8769 L646.954,887.8769 M633.954,906.8769 L620.954,921.8769 M633.954,906.8769 L646.954,921.8769" fill="none" style="stroke:#CC7A00;stroke-width:0.5;"/><text fill="#000000" font-family="Arial" font-size="13" lengthAdjust="spacing" textLength="43.056" x="582.5" y="937.2739">Leder /</text><text fill="#000000" font-family="Arial" font-size="13" lengthAdjust="spacing" textLength="102.9081" x="582.5" y="954.9799">beslutningstaker</text></g><!--entity reportService--><g class="entity" data-qualified-name="consumers.reportService" data-source-line="91" id="ent0037"><rect fill="#F0F4FF" height="55.412" rx="5" ry="5" style="stroke:#4A6FA5;stroke-width:0.5;" width="111.7931" x="435" y="883.3769"/><text fill="#1A1A2E" font-family="Arial" font-size="13" lengthAdjust="spacing" textLength="91.7931" x="445" y="907.2739">Rapporterings-</text><text fill="#1A1A2E" font-family="Arial" font-size="13" lengthAdjust="spacing" textLength="48.997" x="445" y="924.9799">tjeneste</text></g><!--entity partner--><g class="entity" data-qualified-name="consumers.partner" data-source-line="92" id="ent0038"><rect fill="#F0F4FF" height="55.412" rx="5" ry="5" style="stroke:#4A6FA5;stroke-width:0.5;" width="137.3251" x="720.5" y="883.3769"/><text fill="#1A1A2E" font-family="Arial" font-size="13" lengthAdjust="spacing" textLength="45.825" x="730.5" y="907.2739">Ekstern</text><text fill="#1A1A2E" font-family="Arial" font-size="13" lengthAdjust="spacing" textLength="117.3251" x="730.5" y="924.9799">samarbeidspartner</text></g><!--link sysA1 to bronzeA--><g class="link" data-entity-1="ent0004" data-entity-2="ent0015" data-link-type="dependency" data-source-line="97" id="lnk39"><path d="M369.69,181.7069 C368.05,215.2869 365.542,266.704 363.812,302.204" fill="none" id="sysA1-to-bronzeA" style="stroke:#555555;stroke-width:1.5;"/><polygon fill="#555555" points="363.52,308.1969,367.9533,299.4023,363.7634,303.2028,359.9628,299.0129,363.52,308.1969" style="stroke:#555555;stroke-width:1.5;"/><text fill="#000000" font-family="Arial" font-size="13" lengthAdjust="spacing" textLength="56.7711" x="368" y="252.2739">Innlesing</text></g><!--link sysA2 to bronzeA--><g class="link" data-entity-1="ent0005" data-entity-2="ent0015" data-link-type="dependency" data-source-line="98" id="lnk40"><path d="M117.82,181.6869 C130.43,196.8269 147.43,215.4569 165,229.3769 C211.97,266.5969 267.7491,296.0452 309.3791,315.7952" fill="none" id="sysA2-to-bronzeA" style="stroke:#555555;stroke-width:1.5;"/><polygon fill="#555555" points="314.8,318.3669,308.3832,310.8953,310.2826,316.2238,304.9542,318.1232,314.8,318.3669" style="stroke:#555555;stroke-width:1.5;"/><text fill="#000000" font-family="Arial" font-size="13" lengthAdjust="spacing" textLength="56.7711" x="201" y="252.2739">Innlesing</text></g><!--link sysA3 to bronzeA--><g class="link" data-entity-1="ent0006" data-entity-2="ent0015" data-link-type="dependency" data-source-line="99" id="lnk41"><path d="M250.99,181.4069 C264.33,202.0269 283.5,231.2569 301,256.3769 C313.06,273.6869 323.39,287.862 334.87,303.302" fill="none" id="sysA3-to-bronzeA" style="stroke:#555555;stroke-width:1.5;"/><polygon fill="#555555" points="338.45,308.1169,336.2899,298.5079,335.4667,304.1045,329.87,303.2812,338.45,308.1169" style="stroke:#555555;stroke-width:1.5;"/><text fill="#000000" font-family="Arial" font-size="13" lengthAdjust="spacing" textLength="56.7711" x="302" y="252.2739">Innlesing</text></g><!--link sysB1 to bronzeB--><g class="link" data-entity-1="ent0008" data-entity-2="ent0016" data-link-type="dependency" data-source-line="101" id="lnk42"><path d="M546.98,181.4269 C561.81,202.5869 583.92,232.5069 606,256.3769 C609.63,260.3069 611.24,260.5669 615,264.3769 C628.68,278.2269 639.079,289.8827 650.749,303.7027" fill="none" id="sysB1-to-bronzeB" style="stroke:#555555;stroke-width:1.5;"/><polygon fill="#555555" points="654.62,308.2869,651.8696,298.8299,651.3941,304.4667,645.7573,303.9913,654.62,308.2869" style="stroke:#555555;stroke-width:1.5;"/><text fill="#000000" font-family="Arial" font-size="13" lengthAdjust="spacing" textLength="56.7711" x="607" y="252.2739">Innlesing</text></g><!--link sysB2 to bronzeB--><g class="link" data-entity-1="ent0009" data-entity-2="ent0016" data-link-type="dependency" data-source-line="102" id="lnk43"><path d="M668.04,181.7069 C670.58,215.2869 674.4867,266.7141 677.1767,302.2141" fill="none" id="sysB2-to-bronzeB" style="stroke:#555555;stroke-width:1.5;"/><polygon fill="#555555" points="677.63,308.1969,680.9385,298.9204,677.2522,303.2112,672.9614,299.5249,677.63,308.1969" style="stroke:#555555;stroke-width:1.5;"/><text fill="#000000" font-family="Arial" font-size="13" lengthAdjust="spacing" textLength="56.7711" x="674" y="252.2739">Innlesing</text></g><!--link sysC1 to bronzeC--><g class="link" data-entity-1="ent0011" data-entity-2="ent0017" data-link-type="dependency" data-source-line="104" id="lnk44"><path d="M1077.71,181.6469 C1065.16,196.9569 1048.03,215.7669 1030,229.3769 C975.43,270.5469 908.6417,300.8906 861.8417,319.5906" fill="none" id="sysC1-to-bronzeC" style="stroke:#555555;stroke-width:1.5;"/><polygon fill="#555555" points="856.27,321.8169,866.1117,322.1919,860.9131,319.9617,863.1433,314.763,856.27,321.8169" style="stroke:#555555;stroke-width:1.5;"/><text fill="#000000" font-family="Arial" font-size="13" lengthAdjust="spacing" textLength="56.7711" x="1014" y="252.2739">Innlesing</text></g><!--link sysC2 to bronzeC--><g class="link" data-entity-1="ent0012" data-entity-2="ent0017" data-link-type="dependency" data-source-line="105" id="lnk45"><path d="M821.82,181.7069 C819.09,215.2869 814.9068,266.7167 812.0168,302.2167" fill="none" id="sysC2-to-bronzeC" style="stroke:#555555;stroke-width:1.5;"/><polygon fill="#555555" points="811.53,308.1969,816.2471,299.5512,811.9357,303.2134,808.2734,298.902,811.53,308.1969" style="stroke:#555555;stroke-width:1.5;"/><text fill="#000000" font-family="Arial" font-size="13" lengthAdjust="spacing" textLength="56.7711" x="817" y="252.2739">Innlesing</text></g><!--link sysC3 to bronzeC--><g class="link" data-entity-1="ent0013" data-entity-2="ent0017" data-link-type="dependency" data-source-line="106" id="lnk46"><path d="M940.97,181.5069 C925.25,202.1869 902.64,231.4369 882,256.3769 C867.56,273.8169 854.913,288.3386 841.173,303.7486" fill="none" id="sysC3-to-bronzeC" style="stroke:#555555;stroke-width:1.5;"/><polygon fill="#555555" points="837.18,308.2269,846.1551,304.1714,840.5075,304.495,840.184,298.8474,837.18,308.2269" style="stroke:#555555;stroke-width:1.5;"/><text fill="#000000" font-family="Arial" font-size="13" lengthAdjust="spacing" textLength="56.7711" x="896" y="252.2739">Innlesing</text></g><!--link bronzeA to silverA--><g class="link" data-entity-1="ent0015" data-entity-2="ent0022" data-link-type="dependency" data-source-line="108" id="lnk47"><path d="M358.44,372.4169 C354.58,406.0669 349.1343,453.5061 345.2643,487.2161" fill="none" id="bronzeA-to-silverA" style="stroke:#555555;stroke-width:1.5;"/><polygon fill="#555555" points="344.58,493.1769,349.5804,484.6919,345.1503,488.2095,341.6326,483.7794,344.58,493.1769" style="stroke:#555555;stroke-width:1.5;"/><text fill="#000000" font-family="Arial" font-size="13" lengthAdjust="spacing" textLength="61.9581" x="373.303" y="419.2739">Rensing &amp;</text><text fill="#000000" font-family="Arial" font-size="13" lengthAdjust="spacing" textLength="96.5641" x="356" y="436.9799">standardisering</text></g><!--link bronzeB to silverB--><g class="link" data-entity-1="ent0016" data-entity-2="ent0023" data-link-type="dependency" data-source-line="109" id="lnk48"><path d="M678.23,372.4469 C677.72,382.6169 677.25,393.9769 677,404.3769 C676.61,420.8169 675.82,424.9769 677,441.3769 C678.24,458.6569 679.9602,471.8842 682.4802,487.4342" fill="none" id="bronzeB-to-silverB" style="stroke:#555555;stroke-width:1.5;"/><polygon fill="#555555" points="683.44,493.3569,685.9487,483.8329,682.6401,488.4213,678.0518,485.1127,683.44,493.3569" style="stroke:#555555;stroke-width:1.5;"/><text fill="#000000" font-family="Arial" font-size="13" lengthAdjust="spacing" textLength="61.9581" x="695.303" y="419.2739">Rensing &amp;</text><text fill="#000000" font-family="Arial" font-size="13" lengthAdjust="spacing" textLength="96.5641" x="678" y="436.9799">standardisering</text></g><!--link bronzeC to silverC--><g class="link" data-entity-1="ent0017" data-entity-2="ent0024" data-link-type="dependency" data-source-line="110" id="lnk49"><path d="M810.53,372.4169 C812.18,406.0669 814.5149,453.4742 816.1749,487.1842" fill="none" id="bronzeC-to-silverC" style="stroke:#555555;stroke-width:1.5;"/><polygon fill="#555555" points="816.47,493.1769,820.0225,483.9911,816.2241,488.183,812.0322,484.3845,816.47,493.1769" style="stroke:#555555;stroke-width:1.5;"/><text fill="#000000" font-family="Arial" font-size="13" lengthAdjust="spacing" textLength="61.9581" x="831.303" y="419.2739">Rensing &amp;</text><text fill="#000000" font-family="Arial" font-size="13" lengthAdjust="spacing" textLength="96.5641" x="814" y="436.9799">standardisering</text></g><!--link silverA to goldNational--><g class="link" data-entity-1="ent0022" data-entity-2="ent0029" data-link-type="dependency" data-source-line="112" id="lnk50"><path d="M331.75,557.6869 C328.62,573.2169 327.02,592.0769 332,608.3769 C338.81,630.6669 349.3347,647.7099 362.4447,664.4799" fill="none" id="silverA-to-goldNational" style="stroke:#555555;stroke-width:1.5;"/><polygon fill="#555555" points="366.14,669.2069,363.7483,659.6529,363.0605,665.2678,357.4457,664.58,366.14,669.2069" style="stroke:#555555;stroke-width:1.5;"/><text fill="#000000" font-family="Arial" font-size="13" lengthAdjust="spacing" textLength="77.0771" x="333" y="604.2739">Aggregering</text></g><!--link silverB to goldNational--><g class="link" data-entity-1="ent0023" data-entity-2="ent0029" data-link-type="dependency" data-source-line="113" id="lnk51"><path d="M660.89,557.6069 C650.6,566.9669 638.21,576.1369 625,581.3769 C607.01,588.5169 467.28,578.9169 451,589.3769 C423.21,607.2369 409.955,637.4397 402.445,663.6097" fill="none" id="silverB-to-goldNational" style="stroke:#555555;stroke-width:1.5;"/><polygon fill="#555555" points="400.79,669.3769,407.1173,661.8294,402.1692,664.5709,399.4277,659.6227,400.79,669.3769" style="stroke:#555555;stroke-width:1.5;"/><text fill="#000000" font-family="Arial" font-size="13" lengthAdjust="spacing" textLength="77.0771" x="452" y="604.2739">Aggregering</text></g><!--link silverC to goldNational--><g class="link" data-entity-1="ent0024" data-entity-2="ent0029" data-link-type="dependency" data-source-line="114" id="lnk52"><path d="M809.81,557.5769 C803.28,575.7369 792.15,597.1869 774,608.3769 C745.62,625.8769 504.47,602.8369 474,616.3769 C449.16,627.4169 431.8571,645.3672 417.6571,664.4072" fill="none" id="silverC-to-goldNational" style="stroke:#555555;stroke-width:1.5;"/><polygon fill="#555555" points="414.07,669.2169,422.657,664.3938,417.0592,665.2089,416.2441,659.611,414.07,669.2169" style="stroke:#555555;stroke-width:1.5;"/><text fill="#000000" font-family="Arial" font-size="13" lengthAdjust="spacing" textLength="77.0771" x="794" y="604.2739">Aggregering</text></g><!--link silverA to goldCross--><g class="link" data-entity-1="ent0022" data-entity-2="ent0030" data-link-type="dependency" data-source-line="116" id="lnk53"><path d="M369.16,557.4769 C379.46,566.8369 391.83,576.0269 405,581.3769 C431.61,592.1869 505.75,584.1769 534,589.3769 C561.93,594.5169 567.11,603.0569 595,608.3769 C618.42,612.8369 680.62,605.8269 702,616.3769 C721.81,626.1469 735.0863,638.9154 747.8163,655.4254" fill="none" id="silverA-to-goldCross" style="stroke:#555555;stroke-width:1.5;"/><polygon fill="#555555" points="751.48,660.1769,749.1522,650.6071,748.4269,656.2173,742.8168,655.492,751.48,660.1769" style="stroke:#555555;stroke-width:1.5;"/><text fill="#000000" font-family="Arial" font-size="13" lengthAdjust="spacing" textLength="78.0391" x="596" y="604.2739">Krysskobling</text></g><!--link silverB to goldCross--><g class="link" data-entity-1="ent0023" data-entity-2="ent0030" data-link-type="dependency" data-source-line="117" id="lnk54"><path d="M682.72,557.7069 C681.1,573.7769 681.71,593.1169 690,608.3769 C693.06,614.0069 697.16,612.1769 702,616.3769 C717.21,629.5769 728.3976,641.2165 741.0276,655.8365" fill="none" id="silverB-to-goldCross" style="stroke:#555555;stroke-width:1.5;"/><polygon fill="#555555" points="744.95,660.3769,742.0934,650.9514,741.6814,656.5933,736.0395,656.1813,744.95,660.3769" style="stroke:#555555;stroke-width:1.5;"/><text fill="#000000" font-family="Arial" font-size="13" lengthAdjust="spacing" textLength="78.0391" x="691" y="604.2739">Krysskobling</text></g><!--link silverC to goldCross--><g class="link" data-entity-1="ent0024" data-entity-2="ent0030" data-link-type="dependency" data-source-line="118" id="lnk55"><path d="M865.06,551.7569 C885.86,566.6069 903.49,586.6669 893,608.3769 C880.59,634.0669 862.107,651.4259 839.517,666.6359" fill="none" id="silverC-to-goldCross" style="stroke:#555555;stroke-width:1.5;"/><polygon fill="#555555" points="834.54,669.9869,844.2395,668.2783,838.6875,667.1944,839.7715,661.6424,834.54,669.9869" style="stroke:#555555;stroke-width:1.5;"/><text fill="#000000" font-family="Arial" font-size="13" lengthAdjust="spacing" textLength="78.0391" x="897" y="604.2739">Krysskobling</text></g><!--link goldNational to analyst--><g class="link" data-entity-1="ent0029" data-entity-2="ent0035" data-link-type="dependency" data-source-line="120" id="lnk56"><path d="M390.26,733.4369 C385.82,770.2969 379.1271,825.7899 374.3371,865.5799" fill="none" id="goldNational-to-analyst" style="stroke:#555555;stroke-width:1.5;"/><polygon fill="#555555" points="373.62,871.5369,378.667,863.0795,374.2176,866.5728,370.7243,862.1234,373.62,871.5369" style="stroke:#555555;stroke-width:1.5;"/><text fill="#000000" font-family="Arial" font-size="13" lengthAdjust="spacing" textLength="47.177" x="387" y="798.2739">Analyse</text></g><!--link goldNational to reportService--><g class="link" data-entity-1="ent0029" data-entity-2="ent0037" data-link-type="dependency" data-source-line="121" id="lnk57"><path d="M417.79,733.5469 C426.47,745.8369 435.89,760.3469 443,774.3769 C461.33,810.5569 474.0645,849.6327 482.1345,877.5627" fill="none" id="goldNational-to-reportService" style="stroke:#555555;stroke-width:1.5;"/><polygon fill="#555555" points="483.8,883.3269,485.1446,873.5703,482.4121,878.5234,477.459,875.7909,483.8,883.3269" style="stroke:#555555;stroke-width:1.5;"/><text fill="#000000" font-family="Arial" font-size="13" lengthAdjust="spacing" textLength="81.3801" x="461" y="798.2739">Rapportering</text></g><!--link goldCross to manager--><g class="link" data-entity-1="ent0030" data-entity-2="ent0036" data-link-type="dependency" data-source-line="122" id="lnk58"><path d="M737.8,742.7069 C727.01,751.7869 714.73,760.4769 702,766.3769 C681.98,775.6569 668.43,758.5969 653,774.3769 C630.5,797.3869 626.241,828.0121 627.461,857.3821" fill="none" id="goldCross-to-manager" style="stroke:#555555;stroke-width:1.5;"/><polygon fill="#555555" points="627.71,863.3769,631.333,854.2187,627.5025,858.3812,623.3399,854.5507,627.71,863.3769" style="stroke:#555555;stroke-width:1.5;"/><text fill="#000000" font-family="Arial" font-size="13" lengthAdjust="spacing" textLength="60.3591" x="683.2045" y="789.2739">Innsikt p&#229;</text><text fill="#000000" font-family="Arial" font-size="13" lengthAdjust="spacing" textLength="118.7681" x="654" y="806.9799">tvers av kommuner</text></g><!--link goldCross to partner--><g class="link" data-entity-1="ent0030" data-entity-2="ent0038" data-link-type="dependency" data-source-line="123" id="lnk59"><path d="M779.31,742.3869 C781.71,783.8369 785.0429,841.467 787.1129,877.187" fill="none" id="goldCross-to-partner" style="stroke:#555555;stroke-width:1.5;"/><polygon fill="#555555" points="787.46,883.1769,790.9326,873.9606,787.1707,878.1853,782.946,874.4234,787.46,883.1769" style="stroke:#555555;stroke-width:1.5;"/><text fill="#000000" font-family="Arial" font-size="13" lengthAdjust="spacing" textLength="56.836" x="801.5955" y="789.2739">Deling av</text><text fill="#000000" font-family="Arial" font-size="13" lengthAdjust="spacing" textLength="92.0271" x="784" y="806.9799">aggregert data</text></g><g class="caption" data-source-line="27"><text fill="#000000" font-family="Arial" font-size="14" lengthAdjust="spacing" textLength="155.8894" x="513.0553" y="996.3429">Bronse, S&#248;lv og Gull-lag</text></g><?plantuml-src tLVTRjis5BxNKn0kiBL0tCIItHQx620hLZ5a28gusvLlQ8jMM56aGT8kl2707c8NUu6ym-xz9dkI7LAKJ5koqrocYWq4Ej_7yyFpPrLGli8IbsYE5qKknPfdYM12ebVfnFm5ga5aP8dNJAU2wrjS4XHBYbctV4h_86WGUS9OIl7LdJoopx7myprT59meXGPlHu4dbMIXCSyPGNy629vnozAhT9YcbKp8Z4ZtVXY_I-EHVM-CScy7yI0E9_RjNNM8v4IYmLNmu6lDiCPph4ugdSJfS1AtbKRn--lXy8JI0mrueK5qogSq7KtUjOzFalVnbJLLKmqXkGOpLmnhlHIoH7rq8yfopOarFoECyZnOu9McWgFUM0gko0MQxlvb6oHoz77DM9_Xl1S4FwB__luBFcYwNgqOXO2ehTAaLExzY_W4mGhYY7E2UZUKPQHo0NnvNLHXaMzw22kan5ekYB9H_f1UkJlOSrqC1nPS30nkyk6wnfbddvEzAIukiIpePiPVDqodPwlYGHVd4oEKN8fI2Pbtqy8kskwVGd1HqcvAP2aFtRw4bI_Xytq96mtZJb-cXM2a6n-UioYgB8gURr7KQ4YU4rsF5dRJCB-SR_CJd3gy3rwnc8g2JiVm5fBi1HNAYQAf6WGq16WaTxj7sqJG2bnpvMDZCQzyDhKJJUfRQxgbEsF63uke8iLFO4CFEtu26tdOn6Avq0H9cjzh99O76itpsvpSOvunef7SFPfpBnePLP32Klkklcs4l_2SS5J8hLA5c9kEMia8pwpAWuIOKhQ1GxwNXB2JmkK3WV1hCpKK54o6PKOLnAmgZyfhDuXRAM5FESw8YXEVXuOUT7mU6ddGhdpmzPddTymeZ5Lz0It0UTR8xh4i1RV-8KqPMXB6Y6h4nePIm7HbxOpfp8gFWcKlEoUwaiDi3pOru0hcb9jWGNRWF9SahpCZDvwRl4ZJTgim1ypuBLPV1CSC2RWVHOizyHQRlGLsp2xQPuDsePzn3B2j8WqraKAfZYne7MiUiqEXfOGlT05ItwTiv4MdVuqODY_az1k0nAkLa9h8yvqYWNQsXjr4VKyfSLCvnS5xUnMBnibNwSXaWSk1QlNjnIPgcXOENGLH-uXV2TGekfpnEL5ihJd45DfFJIY1aRkByWRvdNS3gZ_Z-Wk1tnMwoWv9Z6nAv8Oko35pKW1CyXbNkCHoJcYcO5VNtEbp_n_SOvKyJ7nzyVTehzAkhAZV_xaUeEWdc80Ssf_vAM4tqxFIwAGqi1ka9nuVayVXIMbWbprFd1oJa_2iD3ef3MfZ3S1D2G2OUGTYz0CaWpVm3ACsS4yOVmiXyGZ9UK9Gss4OViy2MkmQaFNCQVycMF8KhANLTb40tNZBJqld6L1o7XGSs6AWhWCOkwg6seOSrA-9ebVimLwLWRhsKDsscInejNk4Tc0c1yARVQC_fBag1zgr_G4DK1WmTTktWoZu7m00?></g></svg>