<?plantuml 1.2026.2?><svg xmlns="http://www.w3.org/2000/svg" xmlns:xlink="http://www.w3.org/1999/xlink" contentStyleType="text/css" data-diagram-type="DESCRIPTION" height="640px" preserveAspectRatio="none" style="width:1032px;height:640px;background:#FAFAFA;" version="1.1" viewBox="0 0 1032 640" width="1032px" zoomAndPan="magnify"><title>Fiks Protokoller - Asynkron kommunikasjon</title><defs/><g><rect fill="#FAFAFA" height="640" style="stroke:none;stroke-width:1;" width="1032" x="0" y="0"/><g class="title" data-source-line="7"><text fill="#000000" font-family="Arial" font-size="22" font-weight="bold" lengthAdjust="spacing" textLength="473.073" x="274.9635" y="38.5181">Fiks Protokoller - Asynkron kommunikasjon</text></g><!--cluster broker--><g class="cluster" data-qualified-name="broker" data-source-line="43" id="ent0005"><rect fill="#FDFEFE" height="84" rx="2.5" ry="2.5" style="stroke:#2980B9;stroke-width:1;" width="1014" x="12" y="352.8241"/><text fill="#000000" font-family="Arial" font-size="14" font-weight="bold" lengthAdjust="spacing" textLength="159.9529" x="439.0235" y="369.79">Fiks Meldingsformidler</text></g><!--entity q_a--><g class="entity" data-qualified-name="broker.q_a" data-source-line="44" id="ent0006"><path d="M33,391.3241 L133.1457,391.3241 C138.1457,391.3241 138.1457,405.8581 138.1457,405.8581 C138.1457,405.8581 138.1457,420.392 133.1457,420.392 L33,420.392 C28,420.392 28,405.8581 28,405.8581 C28,405.8581 28,391.3241 33,391.3241" fill="#FEF9E7" style="stroke:#F39C12;stroke-width:1;"/><path d="M133.1457,391.3241 C128.1457,391.3241 128.1457,405.8581 128.1457,405.8581 C128.1457,420.392 133.1457,420.392 133.1457,420.392" fill="none" style="stroke:#F39C12;stroke-width:1;"/><text fill="#784212" font-family="Arial" font-size="14" lengthAdjust="spacing" textLength="90.1457" x="33" y="411.29">K&#248; [System A]</text></g><!--entity q_sys1--><g class="entity" data-qualified-name="broker.q_sys1" data-source-line="45" id="ent0007"><path d="M248,391.3241 L347.2077,391.3241 C352.2077,391.3241 352.2077,405.8581 352.2077,405.8581 C352.2077,405.8581 352.2077,420.392 347.2077,420.392 L248,420.392 C243,420.392 243,405.8581 243,405.8581 C243,405.8581 243,391.3241 248,391.3241" fill="#FEF9E7" style="stroke:#F39C12;stroke-width:1;"/><path d="M347.2077,391.3241 C342.2077,391.3241 342.2077,405.8581 342.2077,405.8581 C342.2077,420.392 347.2077,420.392 347.2077,420.392" fill="none" style="stroke:#F39C12;stroke-width:1;"/><text fill="#784212" font-family="Arial" font-size="14" lengthAdjust="spacing" textLength="89.2077" x="248" y="411.29">K&#248; [System 1]</text></g><!--entity q_b--><g class="entity" data-qualified-name="broker.q_b" data-source-line="46" id="ent0008"><path d="M469,391.3241 L569.2997,391.3241 C574.2997,391.3241 574.2997,405.8581 574.2997,405.8581 C574.2997,405.8581 574.2997,420.392 569.2997,420.392 L469,420.392 C464,420.392 464,405.8581 464,405.8581 C464,405.8581 464,391.3241 469,391.3241" fill="#FEF9E7" style="stroke:#F39C12;stroke-width:1;"/><path d="M569.2997,391.3241 C564.2997,391.3241 564.2997,405.8581 564.2997,405.8581 C564.2997,420.392 569.2997,420.392 569.2997,420.392" fill="none" style="stroke:#F39C12;stroke-width:1;"/><text fill="#784212" font-family="Arial" font-size="14" lengthAdjust="spacing" textLength="90.2997" x="469" y="411.29">K&#248; [System B]</text></g><!--entity q_sys2--><g class="entity" data-qualified-name="broker.q_sys2" data-source-line="47" id="ent0009"><path d="M691,391.3241 L790.2077,391.3241 C795.2077,391.3241 795.2077,405.8581 795.2077,405.8581 C795.2077,405.8581 795.2077,420.392 790.2077,420.392 L691,420.392 C686,420.392 686,405.8581 686,405.8581 C686,405.8581 686,391.3241 691,391.3241" fill="#FEF9E7" style="stroke:#F39C12;stroke-width:1;"/><path d="M790.2077,391.3241 C785.2077,391.3241 785.2077,405.8581 785.2077,405.8581 C785.2077,420.392 790.2077,420.392 790.2077,420.392" fill="none" style="stroke:#F39C12;stroke-width:1;"/><text fill="#784212" font-family="Arial" font-size="14" lengthAdjust="spacing" textLength="89.2077" x="691" y="411.29">K&#248; [System 2]</text></g><!--entity q_c--><g class="entity" data-qualified-name="broker.q_c" data-source-line="48" id="ent0010"><path d="M905,391.3241 L1005.0477,391.3241 C1010.0477,391.3241 1010.0477,405.8581 1010.0477,405.8581 C1010.0477,405.8581 1010.0477,420.392 1005.0477,420.392 L905,420.392 C900,420.392 900,405.8581 900,405.8581 C900,405.8581 900,391.3241 905,391.3241" fill="#FEF9E7" style="stroke:#F39C12;stroke-width:1;"/><path d="M1005.0477,391.3241 C1000.0477,391.3241 1000.0477,405.8581 1000.0477,405.8581 C1000.0477,420.392 1005.0477,420.392 1005.0477,420.392" fill="none" style="stroke:#F39C12;stroke-width:1;"/><text fill="#784212" font-family="Arial" font-size="14" lengthAdjust="spacing" textLength="90.0477" x="905" y="411.29">K&#248; [System C]</text></g><!--entity sys1--><g class="entity" data-qualified-name="sys1" data-source-line="37" id="ent0002"><polygon fill="#D6EAF8" points="32,215.3241,42,205.3241,134.2823,205.3241,134.2823,244.392,124.2823,254.392,32,254.392,32,215.3241" style="stroke:#2980B9;stroke-width:1;"/><line style="stroke:#2980B9;stroke-width:1;" x1="124.2823" x2="134.2823" y1="215.3241" y2="205.3241"/><line style="stroke:#2980B9;stroke-width:1;" x1="32" x2="124.2823" y1="215.3241" y2="215.3241"/><line style="stroke:#2980B9;stroke-width:1;" x1="124.2823" x2="124.2823" y1="215.3241" y2="254.392"/><text fill="#1A5276" font-family="Arial" font-size="14" font-weight="bold" lengthAdjust="spacing" textLength="50.1968" x="47" y="240.29">System</text><text fill="#1A5276" font-family="Arial" font-size="14" font-weight="bold" lengthAdjust="spacing" textLength="3.64" x="97.1968" y="240.29">&#160;</text><text fill="#1A5276" font-family="Arial" font-size="14" font-weight="bold" lengthAdjust="spacing" textLength="8.4455" x="100.8368" y="240.29">1</text></g><!--entity sys2--><g class="entity" data-qualified-name="sys2" data-source-line="38" id="ent0003"><polygon fill="#D6EAF8" points="246.5,215.3241,256.5,205.3241,348.7823,205.3241,348.7823,244.392,338.7823,254.392,246.5,254.392,246.5,215.3241" style="stroke:#2980B9;stroke-width:1;"/><line style="stroke:#2980B9;stroke-width:1;" x1="338.7823" x2="348.7823" y1="215.3241" y2="205.3241"/><line style="stroke:#2980B9;stroke-width:1;" x1="246.5" x2="338.7823" y1="215.3241" y2="215.3241"/><line style="stroke:#2980B9;stroke-width:1;" x1="338.7823" x2="338.7823" y1="215.3241" y2="254.392"/><text fill="#1A5276" font-family="Arial" font-size="14" font-weight="bold" lengthAdjust="spacing" textLength="50.1968" x="261.5" y="240.29">System</text><text fill="#1A5276" font-family="Arial" font-size="14" font-weight="bold" lengthAdjust="spacing" textLength="3.64" x="311.6968" y="240.29">&#160;</text><text fill="#1A5276" font-family="Arial" font-size="14" font-weight="bold" lengthAdjust="spacing" textLength="8.4455" x="315.3368" y="240.29">2</text></g><!--entity sysA--><g class="entity" data-qualified-name="sysA" data-source-line="57" id="ent0015"><polygon fill="#D6EAF8" points="246,510.3241,256,500.3241,349.2203,500.3241,349.2203,539.392,339.2203,549.392,246,549.392,246,510.3241" style="stroke:#2980B9;stroke-width:1;"/><line style="stroke:#2980B9;stroke-width:1;" x1="339.2203" x2="349.2203" y1="510.3241" y2="500.3241"/><line style="stroke:#2980B9;stroke-width:1;" x1="246" x2="339.2203" y1="510.3241" y2="510.3241"/><line style="stroke:#2980B9;stroke-width:1;" x1="339.2203" x2="339.2203" y1="510.3241" y2="549.392"/><text fill="#1A5276" font-family="Arial" font-size="14" font-weight="bold" lengthAdjust="spacing" textLength="50.1968" x="261" y="535.29">System</text><text fill="#1A5276" font-family="Arial" font-size="14" font-weight="bold" lengthAdjust="spacing" textLength="3.64" x="311.1968" y="535.29">&#160;</text><text fill="#1A5276" font-family="Arial" font-size="14" font-weight="bold" lengthAdjust="spacing" textLength="9.3835" x="314.8368" y="535.29">A</text></g><!--entity sysB--><g class="entity" data-qualified-name="sysB" data-source-line="58" id="ent0016"><polygon fill="#D6EAF8" points="467.5,510.3241,477.5,500.3241,570.8743,500.3241,570.8743,539.392,560.8743,549.392,467.5,549.392,467.5,510.3241" style="stroke:#2980B9;stroke-width:1;"/><line style="stroke:#2980B9;stroke-width:1;" x1="560.8743" x2="570.8743" y1="510.3241" y2="500.3241"/><line style="stroke:#2980B9;stroke-width:1;" x1="467.5" x2="560.8743" y1="510.3241" y2="510.3241"/><line style="stroke:#2980B9;stroke-width:1;" x1="560.8743" x2="560.8743" y1="510.3241" y2="549.392"/><text fill="#1A5276" font-family="Arial" font-size="14" font-weight="bold" lengthAdjust="spacing" textLength="50.1968" x="482.5" y="535.29">System</text><text fill="#1A5276" font-family="Arial" font-size="14" font-weight="bold" lengthAdjust="spacing" textLength="3.64" x="532.6968" y="535.29">&#160;</text><text fill="#1A5276" font-family="Arial" font-size="14" font-weight="bold" lengthAdjust="spacing" textLength="9.5375" x="536.3368" y="535.29">B</text></g><!--entity sysC--><g class="entity" data-qualified-name="sysC" data-source-line="59" id="ent0017"><polygon fill="#D6EAF8" points="689,510.3241,699,500.3241,792.1223,500.3241,792.1223,539.392,782.1223,549.392,689,549.392,689,510.3241" style="stroke:#2980B9;stroke-width:1;"/><line style="stroke:#2980B9;stroke-width:1;" x1="782.1223" x2="792.1223" y1="510.3241" y2="500.3241"/><line style="stroke:#2980B9;stroke-width:1;" x1="689" x2="782.1223" y1="510.3241" y2="510.3241"/><line style="stroke:#2980B9;stroke-width:1;" x1="782.1223" x2="782.1223" y1="510.3241" y2="549.392"/><text fill="#1A5276" font-family="Arial" font-size="14" font-weight="bold" lengthAdjust="spacing" textLength="50.1968" x="704" y="535.29">System</text><text fill="#1A5276" font-family="Arial" font-size="14" font-weight="bold" lengthAdjust="spacing" textLength="3.64" x="754.1968" y="535.29">&#160;</text><text fill="#1A5276" font-family="Arial" font-size="14" font-weight="bold" lengthAdjust="spacing" textLength="9.2855" x="757.8368" y="535.29">C</text></g><!--link sys1 to sys2--><!--link q_a to q_sys1--><!--link q_sys1 to q_b--><!--link q_b to q_sys2--><!--link q_sys2 to q_c--><!--link sysA to sysB--><!--link sysB to sysC--><!--link sys1 to q_a--><!--link sys1 to q_a--><g class="link" data-entity-1="ent0002" data-entity-2="ent0006" data-link-type="dependency" data-source-line="71" id="lnk24"><path d="M83,254.6241 C83,291.8341 83,354.9641 83,385.1241" fill="none" id="sys1-to-q_a" style="stroke:#2C3E50;stroke-width:1;"/><polygon fill="#2C3E50" points="83,391.1241,87,382.1241,83,386.1241,79,382.1241,83,391.1241" style="stroke:#2C3E50;stroke-width:1;"/><text fill="#5D6D7E" font-family="Arial" font-size="11" lengthAdjust="spacing" textLength="70.3885" x="37" y="327.583">send melding</text></g><!--link sys2 to q_c--><!--link sys2 to q_c--><g class="link" data-entity-1="ent0003" data-entity-2="ent0010" data-link-type="dependency" data-source-line="74" id="lnk27"><path d="M348.73,235.9041 C376.8,239.4241 412.38,244.0841 444,248.8241 C501.95,257.5041 517.29,256.0741 574,270.8241 C704.43,304.7541 848.0261,361.6995 913.9861,388.9995" fill="none" id="sys2-to-q_c" style="stroke:#2C3E50;stroke-width:1;"/><polygon fill="#2C3E50" points="919.53,391.2941,912.7438,384.1563,914.9101,389.382,909.6844,391.5482,919.53,391.2941" style="stroke:#2C3E50;stroke-width:1;"/><text fill="#5D6D7E" font-family="Arial" font-size="11" lengthAdjust="spacing" textLength="70.3885" x="595" y="273.583">send melding</text></g><!--link q_a to sysA--><!--link q_a to sysA--><g class="link" data-entity-1="ent0006" data-entity-2="ent0015" data-link-type="dependency" data-source-line="77" id="lnk28"><path d="M89.82,420.4341 C99.88,443.5841 122.88,488.1841 158,508.8241 C184.29,524.2741 212.2502,528.3508 239.9702,528.5508" fill="none" id="q_a-to-sysA" style="stroke:#2C3E50;stroke-width:1;"/><polygon fill="#2C3E50" points="245.97,528.5941,236.9991,524.5293,240.9701,528.558,236.9414,532.5291,245.97,528.5941" style="stroke:#2C3E50;stroke-width:1;"/><text fill="#5D6D7E" font-family="Arial" font-size="11" lengthAdjust="spacing" textLength="63.1725" x="159" y="505.583">konsumerer</text></g><!--link q_c to sysC--><!--link q_c to sysC--><g class="link" data-entity-1="ent0010" data-entity-2="ent0017" data-link-type="dependency" data-source-line="79" id="lnk30"><path d="M925.51,420.3541 C897.22,434.9341 852.74,458.2541 815,479.8241 C803.83,486.2141 796.9872,490.2512 786.0272,496.9612" fill="none" id="q_c-to-sysC" style="stroke:#2C3E50;stroke-width:1;"/><polygon fill="#2C3E50" points="780.91,500.0941,790.6743,498.8063,785.1743,497.4834,786.4972,491.9834,780.91,500.0941" style="stroke:#2C3E50;stroke-width:1;"/><text fill="#5D6D7E" font-family="Arial" font-size="11" lengthAdjust="spacing" textLength="63.1725" x="816" y="440.583">konsumerer</text></g><!--link sys1 to q_b--><g class="link" data-entity-1="ent0002" data-entity-2="ent0008" data-link-type="dependency" data-source-line="72" id="lnk25"><path d="M134.06,252.5441 C191.19,278.1941 287.64,320.6841 372,353.8241 C406.31,367.3041 440.0368,379.2909 469.2568,389.3509" fill="none" id="sys1-to-q_b" style="stroke:#2C3E50;stroke-width:1;"/><polygon fill="#2C3E50" points="474.93,391.3041,467.7223,384.5922,470.2023,389.6764,465.1181,392.1564,474.93,391.3041" style="stroke:#2C3E50;stroke-width:1;"/><text fill="#5D6D7E" font-family="Arial" font-size="11" lengthAdjust="spacing" textLength="70.3885" x="262.5" y="295.583">send melding</text></g><!--link sys2 to q_b--><g class="link" data-entity-1="ent0003" data-entity-2="ent0008" data-link-type="dependency" data-source-line="73" id="lnk26"><path d="M328.71,254.4941 C338.38,263.3741 348.62,273.9141 356.5,284.8241 C365.99,297.9641 360.88,306.0441 372,317.8241 C396.99,344.2841 412.8,338.0941 444,356.8241 C462.23,367.7641 477.3571,377.7676 491.9971,387.7776" fill="none" id="sys2-to-q_b" style="stroke:#2C3E50;stroke-width:1;"/><polygon fill="#2C3E50" points="496.95,391.1641,491.7783,382.7824,492.8226,388.342,487.2629,389.3863,496.95,391.1641" style="stroke:#2C3E50;stroke-width:1;"/><text fill="#5D6D7E" font-family="Arial" font-size="11" lengthAdjust="spacing" textLength="70.3885" x="373" y="314.583">send melding</text></g><!--link q_b to sysB--><g class="link" data-entity-1="ent0008" data-entity-2="ent0016" data-link-type="dependency" data-source-line="78" id="lnk29"><path d="M519,420.3441 C519,440.1941 519,470.0641 519,494.1641" fill="none" id="q_b-to-sysB" style="stroke:#2C3E50;stroke-width:1;"/><polygon fill="#2C3E50" points="519,500.1641,523,491.1641,519,495.1641,515,491.1641,519,500.1641" style="stroke:#2C3E50;stroke-width:1;"/><text fill="#5D6D7E" font-family="Arial" font-size="11" lengthAdjust="spacing" textLength="63.1725" x="476.5" y="465.083">konsumerer</text></g><!--link sysA to q_sys1--><g class="link" data-entity-1="ent0015" data-entity-2="ent0007" data-link-type="dependency" data-source-line="82" id="lnk31"><path d="M297.5,500.1641 C297.5,476.0641 297.5,446.1941 297.5,426.3441" fill="none" id="sysA-to-q_sys1" style="stroke:#2C3E50;stroke-width:1;"/><polygon fill="#2C3E50" points="297.5,420.3441,293.5,429.3441,297.5,425.3441,301.5,429.3441,297.5,420.3441" style="stroke:#2C3E50;stroke-width:1;"/><text fill="#5D6D7E" font-family="Arial" font-size="11" lengthAdjust="spacing" textLength="49.4666" x="262" y="465.083">send svar</text></g><!--link sysB to q_sys1--><g class="link" data-entity-1="ent0016" data-entity-2="ent0007" data-link-type="dependency" data-source-line="83" id="lnk32"><path d="M472.52,500.1641 C428.12,476.0941 367.3246,443.1339 330.6946,423.2739" fill="none" id="sysB-to-q_sys1" style="stroke:#2C3E50;stroke-width:1;"/><polygon fill="#2C3E50" points="325.42,420.4141,331.4254,428.2202,329.8155,422.7973,335.2385,421.1874,325.42,420.4141" style="stroke:#2C3E50;stroke-width:1;"/><text fill="#5D6D7E" font-family="Arial" font-size="11" lengthAdjust="spacing" textLength="49.4666" x="383.5" y="443.583">send svar</text></g><!--link sysB to q_sys2--><g class="link" data-entity-1="ent0016" data-entity-2="ent0009" data-link-type="dependency" data-source-line="84" id="lnk33"><path d="M565.21,500.3141 C609.64,476.2241 670.6752,443.1336 707.3652,423.2436" fill="none" id="sysB-to-q_sys2" style="stroke:#2C3E50;stroke-width:1;"/><polygon fill="#2C3E50" points="712.64,420.3841,702.8215,421.1568,708.2444,422.767,706.6342,428.1899,712.64,420.3841" style="stroke:#2C3E50;stroke-width:1;"/><text fill="#5D6D7E" font-family="Arial" font-size="11" lengthAdjust="spacing" textLength="49.4666" x="605.5" y="443.583">send svar</text></g><!--link sysC to q_sys2--><g class="link" data-entity-1="ent0017" data-entity-2="ent0009" data-link-type="dependency" data-source-line="85" id="lnk34"><path d="M740.5,500.1641 C740.5,476.0641 740.5,446.1941 740.5,426.3441" fill="none" id="sysC-to-q_sys2" style="stroke:#2C3E50;stroke-width:1;"/><polygon fill="#2C3E50" points="740.5,420.3441,736.5,429.3441,740.5,425.3441,744.5,429.3441,740.5,420.3441" style="stroke:#2C3E50;stroke-width:1;"/><text fill="#5D6D7E" font-family="Arial" font-size="11" lengthAdjust="spacing" textLength="49.4666" x="705" y="465.083">send svar</text></g><!--link q_sys1 to sys1--><g class="link" data-entity-1="ent0007" data-entity-2="ent0002" data-link-type="dependency" data-source-line="86" id="lnk35"><path d="M242.74,396.5541 C215.05,389.6141 182.14,377.7541 158,357.8241 C124.55,330.2041 105.1167,288.8921 94.3467,260.1721" fill="none" id="q_sys1-to-sys1" style="stroke:#2C3E50;stroke-width:1;"/><polygon fill="#2C3E50" points="92.24,254.5541,91.6548,264.3856,93.9956,259.2357,99.1454,261.5766,92.24,254.5541" style="stroke:#2C3E50;stroke-width:1;"/><text fill="#5D6D7E" font-family="Arial" font-size="11" lengthAdjust="spacing" textLength="21.5708" x="180" y="354.583">svar</text></g><!--link q_sys2 to sys2--><g class="link" data-entity-1="ent0009" data-entity-2="ent0003" data-link-type="dependency" data-source-line="87" id="lnk36"><path d="M703.07,391.2841 C624.37,359.8741 443.9727,287.8778 354.2327,252.0678" fill="none" id="q_sys2-to-sys2" style="stroke:#2C3E50;stroke-width:1;"/><polygon fill="#2C3E50" points="348.66,249.8441,355.5366,256.8948,353.3039,251.6972,358.5015,249.4646,348.66,249.8441" style="stroke:#2C3E50;stroke-width:1;"/><text fill="#5D6D7E" font-family="Arial" font-size="11" lengthAdjust="spacing" textLength="21.5708" x="508.5" y="293.583">svar</text></g><g class="caption" data-source-line="8"><text fill="#000000" font-family="Arial" font-size="14" lengthAdjust="spacing" textLength="611.1539" x="205.923" y="585.358">KS Digital standardiserer alle Fiks Protokoller. Kommunikasjon er asynkron via meldingsk&#248;er.</text><text fill="#000000" font-family="Arial" font-size="14" lengthAdjust="spacing" textLength="466.9963" x="278.0019" y="604.4259">Avsender m&#229; ha tilgang til mottakers Fiks-konto for &#229; sende meldinger.</text><text fill="#000000" font-family="Arial" font-size="14" lengthAdjust="spacing" textLength="188.8033" x="417.0984" y="623.4938">Alle meldinger er asynkrone.</text></g><?plantuml-src pLP9Rjim5Dth5B_gekd2QQGuyR0e8Cds9cXHrCiqC6Y9iLb9f4FI3jmYG5SzGD4hz0xPvoOvIIbgC6D9GL2WGH83DlWU__3-8BsIIvnYM2M8K4l4XAuGHodCKHWlE5lJA609u_1wucN_1YF2bsYTo0cZyYDI5ZnEK69P2RwK81bmibXAY0Z7eIICMfOaCi5WJqWiu1DdaiKiIJ273dXYIsFEACGiJTUKn4XyPTIsGhJAhe9zDeKHMH294X0IqGZnY0ZCrMMaJC2-oKCuCmr1nYjTR0Y252SHeGiHtzqgyXVgRGIcaMAbTtzWYK2IP87e8lk6b4c9Oio5zjA9LROCBfKWYgflbTPoIraurO7f61_QbY4UPUhcTmlKdx-lzEXqx4twESQuYgiuTmVz8t-WppFHYrF7Et5xfzNfL6vL27EMHDQDuUzgZTUj3YVZoM3SgpkS70y2nzrtsEjtNNLgMizgh0HBsZsCb8znQqet3vIHZvbncvJfZxjTRxHd9i82hw1xPCQ9Q5mxz3XdrsKymV7uf0OQoP-CJaUzSHDXIhvXS1pBUWFtlt-e3wWhwvI2CuIfRYzH02_gOqcsm6e5y49ptPZsT2iaJi6nLV-2s0gdZhabfbj1KQ1plYHHXEb5nAvf9uTgQhX3CARvNTwOpwkCjMlNV1jzAFQ16kkKH6g1wDJcdCMLBFdys6Ttjt1U2E1Ts93nhcQeZU9Kb4h31fPViUPj5DSqvBQnWeeLvfGPohxswc86CsigN1N7RDvstTrTT-k4K7L4hV37G_YCGqmsBsuG7Xq1hsnphuxv9URNiQ34Wdmyl8Rny3F0Rm02GpwFXakrUKAjeW3zUBt_-Gj2JAKAEVkPFsh_eq0FkqIxw-Y-VrZ_2WWjtNhxW5PHeOs8cNEsByl7A1o8SdkgLFDryVRv6gZ8lVC-dwOXsC88pZRXUJFiFWqE6-2T8cUCYdMgNtaEofMPLRwSgETK9A-j2bgtjGewheApBPrd0VfrCAp0O1yqohz1F7lvcgiNBpZWkwsXCrubMp0aABhZdmGe1bFhhmjPLa2e2EnYEf-6kdKqQ4VBnPjBaLlU0Mu9k3l0-Wi0?></g></svg>