<svg xmlns="http://www.w3.org/2000/svg" xmlns:xlink="http://www.w3.org/1999/xlink" contentStyleType="text/css" data-diagram-type="SEQUENCE" height="424px" preserveAspectRatio="none" style="width:594px;height:424px;background:#FFFFFF;" version="1.1" viewBox="0 0 594 424" width="594px" zoomAndPan="magnify"><title>Synkronisering av store grupper</title><defs/><g><text fill="#000000" font-family="Avenir" font-size="14" font-weight="bold" lengthAdjust="spacing" textLength="198.814" x="196.8904" y="29">Synkronisering av store grupper</text><g><title>Sync API</title><polygon fill="#FFFFFF" points="552.3954,110.9582,552.3954,111.0282,554.3954,110.8201,556.3954,111.0226,558.3954,111.0914,560.3954,110.7204,562.3954,110.9582,562.3177,110.9582,561.969,120.4062,562.0119,129.8542,562.3273,139.3022,561.7041,148.7502,562.9491,158.1982,561.7652,167.6462,562.1977,177.0942,562.8274,186.5422,562.3954,195.9902,562.3954,195.9616,560.3954,196.0129,558.3954,195.9795,556.3954,196.0497,554.3954,196.0699,552.3954,195.9902,552.9811,195.9902,553.0665,186.5422,553.0747,177.0942,552.6501,167.6462,552.859,158.1982,553.0977,148.7502,551.6743,139.3022,553.074,129.8542,552.0989,120.4062,552.3954,110.9582" style="stroke:#181818;stroke-width:1;"/></g><g><title>Sync API</title><polygon fill="#FFFFFF" points="552.3954,283.2642,552.3954,283.3342,554.3954,283.1261,556.3954,283.3286,558.3954,283.3974,560.3954,283.0264,562.3954,283.2642,562.3695,283.2642,562.2533,289.6158,562.2676,295.9674,562.3727,302.319,562.165,308.6706,562.3954,315.0222,562.3954,315.2067,560.3954,314.8121,558.3954,314.9562,556.3954,315.1661,554.3954,314.9936,552.3954,315.0222,552.4182,315.0222,552.3848,308.6706,552.455,302.319,552.4752,295.9674,552.5907,289.6158,552.3954,283.2642" style="stroke:#181818;stroke-width:1;"/></g><g><title>M.lsystem</title><polygon fill="#000000" fill-opacity="0.00000" points="102.2983,77.2002,102.2983,77.2702,103.8983,77.0621,105.4983,77.2646,107.0983,77.3334,108.6983,76.9624,110.2983,77.2002,110.2206,77.2002,109.8718,87.2433,109.9148,97.2865,110.2302,107.3297,109.607,117.3728,110.852,127.416,109.6681,137.4591,110.1006,147.5023,110.7303,157.5455,110.2126,167.5886,110.3666,177.6318,110.2664,187.6749,110.4769,197.7181,110.5375,207.7613,110.884,217.8044,110.9694,227.8476,110.9776,237.8907,110.553,247.9339,110.7619,257.9771,111.0006,268.0202,109.5772,278.0634,110.9769,288.1066,110.0018,298.1497,110.8322,308.1929,109.8033,318.236,110.2298,328.2792,111.0399,338.3224,110.2496,348.3655,110.4036,358.4087,110.637,368.4518,110.7146,378.495,110.2983,388.5382,110.2983,388.5369,108.6983,388.6339,107.0983,388.3474,105.4983,388.633,103.8983,388.7209,102.2983,388.5382,102.7429,388.5382,102.9114,378.495,101.8153,368.4518,101.6462,358.4087,101.6769,348.3655,102.2395,338.3224,102.1018,328.2792,102.9798,318.236,102.1237,308.1929,101.9553,298.1497,102.5266,288.1066,101.6315,278.0634,101.7792,268.0202,102.9473,257.9771,102.734,247.9339,103.0328,237.8907,101.9765,227.8476,102.6175,217.8044,102.8888,207.7613,101.8259,197.7181,102.2025,187.6749,102.4243,177.6318,102.9501,167.5886,102.2941,157.5455,102.7609,147.5023,101.7446,137.4591,101.6211,127.416,102.802,117.3728,101.5814,107.3297,102.8073,97.2865,102.505,87.2433,102.2983,77.2002"/><path d="M106,77.2002 L106.2802,77.2002 L105.4476,87.2433 L106.2577,97.2865 L106.5329,107.3297 L105.0488,117.3728 L105.8964,127.416 L105.4313,137.4591 L105.4887,147.5023 L105.9091,157.5455 L105.0782,167.5886 L106.7382,177.6318 L105.1596,187.6749 L105.7363,197.7181 L106.5759,207.7613 L105.8856,217.8044 L106.091,227.8476 L105.9574,237.8907 L106.238,247.9339 L106.3188,257.9771 L106.7809,268.0202 L106.8947,278.0634 L106.9057,288.1066 L106.3395,298.1497 L106.6181,308.1929 L106.9363,318.236 L105.0384,328.2792 L106.9047,338.3224 L105.6047,348.3655 L106.7117,358.4087 L105.34,368.4518 L105.9087,378.495 L106,388.5382" fill="none" style="stroke:#2F4F4F;stroke-width:0.5;stroke-dasharray:5,5;"/></g><g><title>Sync API</title><polygon fill="#000000" fill-opacity="0.00000" points="553.3954,77.2002,553.3954,77.2702,554.9954,77.0621,556.5954,77.2646,558.1954,77.3334,559.7954,76.9624,561.3954,77.2002,561.3177,77.2002,560.969,87.2433,561.0119,97.2865,561.3273,107.3297,560.7041,117.3728,561.9491,127.416,560.7652,137.4591,561.1977,147.5023,561.8274,157.5455,561.3097,167.5886,561.4637,177.6318,561.3635,187.6749,561.574,197.7181,561.6346,207.7613,561.9811,217.8044,562.0665,227.8476,562.0747,237.8907,561.6501,247.9339,561.859,257.9771,562.0977,268.0202,560.6743,278.0634,562.074,288.1066,561.0989,298.1497,561.9293,308.1929,560.9004,318.236,561.3269,328.2792,562.1371,338.3224,561.3467,348.3655,561.5007,358.4087,561.7341,368.4518,561.8117,378.495,561.3954,388.5382,561.3954,388.5369,559.7954,388.6339,558.1954,388.3474,556.5954,388.633,554.9954,388.7209,553.3954,388.5382,553.84,388.5382,554.0085,378.495,552.9124,368.4518,552.7433,358.4087,552.774,348.3655,553.3366,338.3224,553.1989,328.2792,554.0769,318.236,553.2208,308.1929,553.0524,298.1497,553.6237,288.1066,552.7286,278.0634,552.8763,268.0202,554.0444,257.9771,553.8311,247.9339,554.1299,237.8907,553.0737,227.8476,553.7146,217.8044,553.9859,207.7613,552.923,197.7181,553.2996,187.6749,553.5214,177.6318,554.0472,167.5886,553.3913,157.5455,553.858,147.5023,552.8417,137.4591,552.7182,127.416,553.8991,117.3728,552.6785,107.3297,553.9044,97.2865,553.6021,87.2433,553.3954,77.2002"/><path d="M557.1962,77.2002 L557.4765,77.2002 L556.6438,87.2433 L557.4539,97.2865 L557.7291,107.3297 L556.245,117.3728 L557.0926,127.416 L556.6276,137.4591 L556.6849,147.5023 L557.1054,157.5455 L556.2744,167.5886 L557.9344,177.6318 L556.3559,187.6749 L556.9325,197.7181 L557.7722,207.7613 L557.0819,217.8044 L557.2872,227.8476 L557.1536,237.8907 L557.4343,247.9339 L557.5151,257.9771 L557.9771,268.0202 L558.091,278.0634 L558.1019,288.1066 L557.5357,298.1497 L557.8143,308.1929 L558.1325,318.236 L556.2346,328.2792 L558.1009,338.3224 L556.8009,348.3655 L557.908,358.4087 L556.5362,368.4518 L557.1049,378.495 L557.1962,388.5382" fill="none" style="stroke:#2F4F4F;stroke-width:0.5;stroke-dasharray:5,5;"/></g><g class="participant participant-head" data-participant="target"><polygon fill="#F0F8FF" points="70.5,45.124,70.5,45.3342,80.7281,44.7097,90.9562,45.3173,101.1843,45.5237,111.4124,44.4106,121.6405,45.0463,131.8686,44.6975,142.0967,45.124,142.0478,45.0059,142.4415,45.2495,142.7156,45.204,143.228,45.7338,143.4305,45.5157,143.8644,45.8562,143.8035,45.831,144.1439,46.2649,144.1309,46.5524,144.3248,46.9256,144.4404,47.2664,144.5967,47.624,144.6562,47.624,144.6764,52.8392,144.7919,58.0545,144.8204,63.2697,144.8231,68.4849,144.5967,73.7002,144.6751,73.7327,144.593,74.1129,144.52,74.4969,143.9352,74.6688,144.2198,75.2009,143.8644,75.4679,143.8266,75.3766,143.579,75.7788,143.0942,75.6084,142.795,75.8862,142.5448,76.2821,142.0967,76.2002,142.0967,76.1514,131.8686,76.3055,121.6405,76.5388,111.4124,76.6164,101.1843,76.1963,90.9562,76.4874,80.7281,75.6278,70.5,76.2002,70.5363,76.2878,70.2164,76.2225,69.8496,76.0442,69.5175,75.9496,69.0242,75.4656,68.7322,75.4679,68.5314,75.3847,68.3944,75.0351,68.4212,74.7533,68.2324,74.3822,68.3563,74.1406,68,73.7002,67.9418,73.7002,67.8856,68.4849,68.0761,63.2697,67.7777,58.0545,67.827,52.8392,68,47.624,68.1999,47.7068,68.2806,47.326,68.5191,47.0106,68.3402,46.5223,68.6841,46.2505,68.7322,45.8562,68.8075,46.0381,69.0255,45.5643,69.4271,45.5338,69.809,45.4557,70.2296,45.4712,70.5,45.124" style="stroke:#006400;stroke-width:0.5;"/><text fill="#000000" font-family="Impact" font-size="14" lengthAdjust="spacing" textLength="62.5967" x="75" y="66.247">M&#229;lsystem</text></g><g class="participant participant-tail" data-participant="target"><polygon fill="#F0F8FF" points="70.5,387.5382,70.5,387.7483,80.7281,387.1238,90.9562,387.7315,101.1843,387.9378,111.4124,386.8248,121.6405,387.4605,131.8686,387.1117,142.0967,387.5382,142.0478,387.4201,142.4415,387.6636,142.7156,387.6181,143.228,388.148,143.4305,387.9299,143.8644,388.2704,143.8035,388.2452,144.1439,388.6791,144.1309,388.9666,144.3248,389.3398,144.4404,389.6805,144.5967,390.0382,144.6562,390.0382,144.6764,395.2534,144.7919,400.4686,144.8204,405.6839,144.8231,410.8991,144.5967,416.1143,144.6751,416.1468,144.593,416.527,144.52,416.911,143.9352,417.083,144.2198,417.6151,143.8644,417.8821,143.8266,417.7908,143.579,418.1929,143.0942,418.0226,142.795,418.3003,142.5448,418.6963,142.0967,418.6143,142.0967,418.5656,131.8686,418.7196,121.6405,418.953,111.4124,419.0306,101.1843,418.6104,90.9562,418.9016,80.7281,418.0419,70.5,418.6143,70.5363,418.7019,70.2164,418.6367,69.8496,418.4583,69.5175,418.3638,69.0242,417.8798,68.7322,417.8821,68.5314,417.7989,68.3944,417.4493,68.4212,417.1675,68.2324,416.7964,68.3563,416.5548,68,416.1143,67.9418,416.1143,67.8856,410.8991,68.0761,405.6839,67.7777,400.4686,67.827,395.2534,68,390.0382,68.1999,390.1209,68.2806,389.7402,68.5191,389.4248,68.3402,388.9365,68.6841,388.6647,68.7322,388.2704,68.8075,388.4522,69.0255,387.9785,69.4271,387.948,69.809,387.8699,70.2296,387.8853,70.5,387.5382" style="stroke:#006400;stroke-width:0.5;"/><text fill="#000000" font-family="Impact" font-size="14" lengthAdjust="spacing" textLength="62.5967" x="75" y="408.6612">M&#229;lsystem</text></g><g class="participant participant-head" data-participant="sync"><polygon fill="#F0F8FF" points="528.6962,45.124,528.6962,45.3342,538.2626,44.7097,547.829,45.3173,557.3954,45.5237,566.9619,44.4106,576.5283,45.0463,586.0947,45.124,586.0403,44.9927,586.3993,45.1523,586.7931,45.3959,587.0671,45.3504,587.5795,45.8803,587.8624,45.8562,587.6683,45.7758,587.948,46.1846,588.2883,46.6184,588.2754,46.906,588.4692,47.2792,588.5947,47.624,588.584,47.624,588.6542,52.8392,588.6744,58.0545,588.7899,63.2697,588.8184,68.4849,588.5947,73.7002,588.8038,73.7868,588.5266,74.0862,588.4445,74.4664,588.3716,74.8504,587.7868,75.0224,587.8624,75.4679,587.949,75.6769,587.4711,75.5231,587.2234,75.9252,586.7386,75.7548,586.4395,76.0326,586.0947,76.2002,586.0947,76.9418,576.5283,76.1514,566.9619,76.3055,557.3954,76.5388,547.829,76.6164,538.2626,76.1963,528.6962,76.2002,528.7329,76.2886,528.2697,75.8774,528.0254,75.9949,527.7055,75.9297,527.3387,75.7513,526.9285,75.4679,527.1172,75.5461,526.6332,75.0528,526.4347,74.6776,526.2978,74.328,526.3245,74.0462,526.1962,73.7002,526.1307,73.7002,526.4234,68.4849,526.138,63.2697,526.0819,58.0545,526.2723,52.8392,526.1962,47.624,525.9909,47.5389,526.1828,47.2042,526.689,46.9997,526.7697,46.6189,527.0082,46.3035,526.9285,45.8562,526.8874,45.7571,527.3227,45.8081,527.7109,45.7452,527.9289,45.2714,528.3304,45.2409,528.6962,45.124" style="stroke:#006400;stroke-width:0.5;"/><text fill="#000000" font-family="Impact" font-size="14" lengthAdjust="spacing" textLength="48.3984" x="533.1962" y="66.247">Sync API</text></g><g class="participant participant-tail" data-participant="sync"><polygon fill="#F0F8FF" points="528.6962,387.5382,528.6962,387.7483,538.2626,387.1238,547.829,387.7315,557.3954,387.9378,566.9619,386.8248,576.5283,387.4605,586.0947,387.5382,586.0403,387.4068,586.3993,387.5665,586.7931,387.8101,587.0671,387.7646,587.5795,388.2945,587.8624,388.2704,587.6683,388.19,587.948,388.5987,588.2883,389.0326,588.2754,389.3201,588.4692,389.6933,588.5947,390.0382,588.584,390.0382,588.6542,395.2534,588.6744,400.4686,588.7899,405.6839,588.8184,410.8991,588.5947,416.1143,588.8038,416.201,588.5266,416.5004,588.4445,416.8806,588.3716,417.2646,587.7868,417.4366,587.8624,417.8821,587.949,418.0911,587.4711,417.9372,587.2234,418.3394,586.7386,418.169,586.4395,418.4468,586.0947,418.6143,586.0947,419.3559,576.5283,418.5656,566.9619,418.7196,557.3954,418.953,547.829,419.0306,538.2626,418.6104,528.6962,418.6143,528.7329,418.7028,528.2697,418.2916,528.0254,418.409,527.7055,418.3438,527.3387,418.1654,526.9285,417.8821,527.1172,417.9603,526.6332,417.4669,526.4347,417.0918,526.2978,416.7422,526.3245,416.4604,526.1962,416.1143,526.1307,416.1143,526.4234,410.8991,526.138,405.6839,526.0819,400.4686,526.2723,395.2534,526.1962,390.0382,525.9909,389.9531,526.1828,389.6184,526.689,389.4138,526.7697,389.0331,527.0082,388.7176,526.9285,388.2704,526.8874,388.1713,527.3227,388.2223,527.7109,388.1593,527.9289,387.6856,528.3304,387.6551,528.6962,387.5382" style="stroke:#006400;stroke-width:0.5;"/><text fill="#000000" font-family="Impact" font-size="14" lengthAdjust="spacing" textLength="48.3984" x="533.1962" y="408.6612">Sync API</text></g><g><title>Sync API</title><polygon fill="#FFFFFF" points="552.3954,110.9582,552.3954,111.0282,554.3954,110.8201,556.3954,111.0226,558.3954,111.0914,560.3954,110.7204,562.3954,110.9582,562.3177,110.9582,561.969,120.4062,562.0119,129.8542,562.3273,139.3022,561.7041,148.7502,562.9491,158.1982,561.7652,167.6462,562.1977,177.0942,562.8274,186.5422,562.3954,195.9902,562.3954,195.9616,560.3954,196.0129,558.3954,195.9795,556.3954,196.0497,554.3954,196.0699,552.3954,195.9902,552.9811,195.9902,553.0665,186.5422,553.0747,177.0942,552.6501,167.6462,552.859,158.1982,553.0977,148.7502,551.6743,139.3022,553.074,129.8542,552.0989,120.4062,552.3954,110.9582" style="stroke:#181818;stroke-width:1;"/></g><g><title>Sync API</title><polygon fill="#FFFFFF" points="552.3954,283.2642,552.3954,283.3342,554.3954,283.1261,556.3954,283.3286,558.3954,283.3974,560.3954,283.0264,562.3954,283.2642,562.3695,283.2642,562.2533,289.6158,562.2676,295.9674,562.3727,302.319,562.165,308.6706,562.3954,315.0222,562.3954,315.2067,560.3954,314.8121,558.3954,314.9562,556.3954,315.1661,554.3954,314.9936,552.3954,315.0222,552.4182,315.0222,552.3848,308.6706,552.455,302.319,552.4752,295.9674,552.5907,289.6158,552.3954,283.2642" style="stroke:#181818;stroke-width:1;"/></g><g class="message" data-participant-1="target" data-participant-2="sync"><polygon fill="#006400" points="540.3954,106.9582,540.4215,107.0232,542.3442,107.6299,544.4194,108.618,546.4449,109.4819,548.3071,109.9374,550.3954,110.9582,550.3858,110.9341,548.3426,111.6262,546.348,112.4395,544.387,113.3371,542.3099,113.9442,540.3954,114.9582,540.5259,115.0887,541.0469,114.0096,541.9488,113.3116,542.8973,112.66,543.5752,111.738,544.3954,110.9582,544.4115,110.9743,543.5879,110.1506,542.8375,109.4003,542.0518,108.6145,541.3335,107.8962,540.3954,106.9582" style="stroke:#006400;stroke-width:1;"/><path d="M106.2983,110.9582 L106.2983,111.2384 L116.3005,110.4057 L126.3028,111.2159 L136.305,111.4911 L146.3072,110.007 L156.3094,110.8546 L166.3116,110.3895 L176.3138,110.4468 L186.316,110.8673 L196.3182,110.0363 L206.3204,111.6964 L216.3226,110.1178 L226.3248,110.6945 L236.327,111.5341 L246.3292,110.8438 L256.3314,111.0492 L266.3337,110.9156 L276.3359,111.1962 L286.3381,111.277 L296.3403,111.7391 L306.3425,111.8529 L316.3447,111.8638 L326.3469,111.2977 L336.3491,111.5763 L346.3513,111.8945 L356.3535,109.9966 L366.3557,111.8629 L376.3579,110.5628 L386.3601,111.6699 L396.3623,110.2981 L406.3645,110.8668 L416.3668,111.947 L426.369,110.8932 L436.3712,111.0986 L446.3734,111.4097 L456.3756,111.5131 L466.3778,110.953 L476.38,111.3411 L486.3822,110.1949 L496.3844,111.3374 L506.3866,111.6891 L516.3888,111.5509 L526.391,111.7755 L536.3932,110.3141 L546.3954,110.9582" fill="none" style="stroke:#006400;stroke-width:1;"/><text fill="#000000" font-family="Avenir" font-size="13" lengthAdjust="spacing" textLength="203.216" x="113.2983" y="104.2002">GET /grupper?syncToken=token_1</text></g><g class="message" data-participant-1="sync" data-participant-2="target"><polygon fill="#006400" points="117.2983,191.9902,117.3244,192.0552,115.247,192.6619,113.3223,193.65,111.3478,194.5139,109.21,194.9694,107.2983,195.9902,107.2887,195.9661,109.2455,196.6582,111.2509,197.4715,113.2899,198.3691,115.2128,198.9762,117.2983,199.9902,117.4288,200.1207,116.3498,199.0416,115.6517,198.3436,115.0002,197.692,114.0781,196.77,113.2983,195.9902,113.3144,196.0063,114.0908,195.1826,114.9404,194.4322,115.7547,193.6465,116.6364,192.9282,117.2983,191.9902" style="stroke:#006400;stroke-width:1;"/><path d="M111.2983,195.9902 L111.2983,196.2704 L121.1894,195.4377 L131.0804,196.2479 L140.9715,196.5231 L150.8625,195.039 L160.7536,195.8866 L170.6446,195.4215 L180.5357,195.4788 L190.4267,195.8993 L200.3178,195.0683 L210.2088,196.7284 L220.0999,195.1498 L229.9909,195.7265 L239.8819,196.5661 L249.773,195.8758 L259.664,196.0812 L269.5551,195.9476 L279.4461,196.2282 L289.3372,196.309 L299.2282,196.7711 L309.1193,196.8849 L319.0103,196.8958 L328.9014,196.3297 L338.7924,196.6083 L348.6835,196.9265 L358.5745,195.0286 L368.4656,196.8949 L378.3566,195.5948 L388.2477,196.7019 L398.1387,195.3301 L408.0297,195.8988 L417.9208,196.979 L427.8118,195.9252 L437.7029,196.1306 L447.5939,196.4417 L457.485,196.5451 L467.376,195.985 L477.2671,196.3731 L487.1581,195.2269 L497.0492,196.3694 L506.9402,196.7211 L516.8313,196.5829 L526.7223,196.8075 L536.6134,195.3461 L546.5044,195.1206 L556.3954,195.9902" fill="none" style="stroke:#006400;stroke-width:1;stroke-dasharray:2,2;"/><text fill="#000000" font-family="Avenir" font-size="13" lengthAdjust="spacing" textLength="68.9" x="123.2983" y="135.9582">{ "events": [</text><text fill="#000000" font-family="Avenir" font-size="13" lengthAdjust="spacing" textLength="414.8691" x="130.5263" y="153.7162">{ "id": "small_group", "requiresSeparateFetch": false, "resource": {...} },</text><text fill="#000000" font-family="Avenir" font-size="13" lengthAdjust="spacing" textLength="410.709" x="130.5263" y="171.4742">{ "id": "large_group", "requiresSeparateFetch": true, "resource": null }</text><text fill="#000000" font-family="Avenir" font-size="13" lengthAdjust="spacing" textLength="10.374" x="123.2983" y="189.2322">] }</text></g><path d="M5,208.9902 L5.5605,208.9902 L3.8951,217.9902 L5.5154,226.9902 L6.0658,235.9902 L3.0976,244.9902 L5,253.9902 L5,253.7829 L15.2,252.8529 L25.4,252.9675 L35.6,253.8084 L45.8,252.1465 L56,255.4665 L66.2,252.3094 L76.4,253.4628 L86.6,255.142 L96.8,253.7614 L107,254.1721 L117.2,253.905 L127.4,254.4662 L137.6,254.6279 L147.8,255.552 L158,255.7796 L168.2,255.8015 L178.4,254.6692 L188.6,255.2264 L198.8,255.8628 L209,253.9902 L208.3589,253.9902 L209.6031,246.9902 L208.7364,239.9902 L209.4745,232.9902 L208.56,225.9902 L209,218.9902 L208.9569,218.9471 L207.4661,217.4563 L204.9694,214.9595 L203.0662,213.0564 L201.2128,211.203 L199,208.9902 L199,210.1001 L188.7895,208.9798 L178.5789,209.7561 L168.3684,207.4637 L158.1579,209.7485 L147.9474,210.452 L137.7368,210.1756 L127.5263,210.6249 L117.3158,207.702 L107.1053,207.251 L96.8947,207.3331 L86.6842,208.8332 L76.4737,208.4661 L66.2632,210.8073 L56.0526,208.5244 L45.8421,208.0754 L35.6316,209.5989 L25.4211,207.2119 L15.2105,207.6058 L5,208.9902" fill="#FFFFFF" style="stroke:#00008B;stroke-width:0.5;"/><path d="M199,208.9902 L199.5768,208.9902 L199.3873,210.9902 L199.6529,212.9902 L198.714,214.9902 L199.2837,216.9902 L199,218.9902 L199,219.515 L201,218.5703 L203,218.905 L205,219.1022 L207,219.5695 L209,218.9902 L208.9974,218.9875 L207.2907,217.2809 L204.6519,214.6421 L202.5743,212.5645 L201.3165,211.3067 L199,208.9902" fill="#FFFFFF" style="stroke:#00008B;stroke-width:0.5;"/><text fill="#000000" font-family="Avenir" font-size="13" lengthAdjust="spacing" textLength="164.398" x="11" y="226.9902">Klienten ser at 'large_group'</text><text fill="#000000" font-family="Avenir" font-size="13" lengthAdjust="spacing" textLength="18.291" x="11" y="244.7482">har</text><text fill="#000000" font-family="Avenir" font-size="13" font-weight="bold" lengthAdjust="spacing" textLength="161.252" x="32.905" y="244.7482">requiresSeparateFetch: true</text><g class="message" data-participant-1="target" data-participant-2="sync"><polygon fill="#006400" points="540.3954,279.2642,540.4215,279.3292,542.3442,279.9359,544.4194,280.924,546.4449,281.7879,548.3071,282.2434,550.3954,283.2642,550.3858,283.2401,548.3426,283.9322,546.348,284.7455,544.387,285.6431,542.3099,286.2502,540.3954,287.2642,540.5259,287.3947,541.0469,286.3156,541.9488,285.6176,542.8973,284.966,543.5752,284.044,544.3954,283.2642,544.4115,283.2803,543.5879,282.4566,542.8375,281.7062,542.0518,280.9205,541.3335,280.2022,540.3954,279.2642" style="stroke:#006400;stroke-width:1;"/><path d="M106.2983,283.2642 L106.2983,283.5444 L116.3005,282.7117 L126.3028,283.5219 L136.305,283.7971 L146.3072,282.313 L156.3094,283.1606 L166.3116,282.6955 L176.3138,282.7528 L186.316,283.1733 L196.3182,282.3423 L206.3204,284.0024 L216.3226,282.4238 L226.3248,283.0005 L236.327,283.8401 L246.3292,283.1498 L256.3314,283.3552 L266.3337,283.2216 L276.3359,283.5022 L286.3381,283.583 L296.3403,284.0451 L306.3425,284.1589 L316.3447,284.1698 L326.3469,283.6037 L336.3491,283.8823 L346.3513,284.2005 L356.3535,282.3026 L366.3557,284.1688 L376.3579,282.8688 L386.3601,283.9759 L396.3623,282.6041 L406.3645,283.1728 L416.3668,284.253 L426.369,283.1992 L436.3712,283.4046 L446.3734,283.7157 L456.3756,283.8191 L466.3778,283.259 L476.38,283.6471 L486.3822,282.5009 L496.3844,283.6434 L506.3866,283.9951 L516.3888,283.8569 L526.391,284.0815 L536.3932,282.6201 L546.3954,283.2642" fill="none" style="stroke:#006400;stroke-width:1;"/><text fill="#000000" font-family="Avenir" font-size="13" lengthAdjust="spacing" textLength="152.113" x="113.2983" y="276.5062">GET /gruppe/large_group</text></g><g class="message" data-participant-1="sync" data-participant-2="target"><polygon fill="#006400" points="117.2983,311.0222,117.3244,311.0872,115.247,311.6939,113.3223,312.682,111.3478,313.5459,109.21,314.0014,107.2983,315.0222,107.2887,314.9981,109.2455,315.6902,111.2509,316.5035,113.2899,317.4011,115.2128,318.0082,117.2983,319.0222,117.4288,319.1527,116.3498,318.0736,115.6517,317.3756,115.0002,316.724,114.0781,315.8019,113.2983,315.0222,113.3144,315.0383,114.0908,314.2146,114.9404,313.4642,115.7547,312.6785,116.6364,311.9602,117.2983,311.0222" style="stroke:#006400;stroke-width:1;"/><path d="M111.2983,315.0222 L111.2983,315.3024 L121.1894,314.4697 L131.0804,315.2799 L140.9715,315.5551 L150.8625,314.071 L160.7536,314.9185 L170.6446,314.4535 L180.5357,314.5108 L190.4267,314.9313 L200.3178,314.1003 L210.2088,315.7604 L220.0999,314.1818 L229.9909,314.7585 L239.8819,315.5981 L249.773,314.9078 L259.664,315.1132 L269.5551,314.9796 L279.4461,315.2602 L289.3372,315.341 L299.2282,315.8031 L309.1193,315.9169 L319.0103,315.9278 L328.9014,315.3617 L338.7924,315.6403 L348.6835,315.9585 L358.5745,314.0606 L368.4656,315.9268 L378.3566,314.6268 L388.2477,315.7339 L398.1387,314.3621 L408.0297,314.9308 L417.9208,316.011 L427.8118,314.9572 L437.7029,315.1626 L447.5939,315.4737 L457.485,315.5771 L467.376,315.017 L477.2671,315.4051 L487.1581,314.2589 L497.0492,315.4013 L506.9402,315.7531 L516.8313,315.6149 L526.7223,315.8395 L536.6134,314.3781 L546.5044,314.1526 L556.3954,315.0222" fill="none" style="stroke:#006400;stroke-width:1;stroke-dasharray:2,2;"/><text fill="#000000" font-family="Avenir" font-size="13" lengthAdjust="spacing" textLength="358.345" x="123.2983" y="308.2642">{ "id": "large_group", "displayName": "...", "members": [...] }</text></g><path d="M13,328.0222 L13.5605,328.0222 L11.8951,337.0222 L13.5154,346.0222 L14.0658,355.0222 L11.0976,364.0222 L13,373.0222 L13,372.8149 L22.7368,371.8849 L32.4737,371.9995 L42.2105,372.8404 L51.9474,371.1785 L61.6842,374.4985 L71.4211,371.3414 L81.1579,372.4948 L90.8947,374.174 L100.6316,372.7934 L110.3684,373.2041 L120.1053,372.937 L129.8421,373.4982 L139.5789,373.6599 L149.3158,374.584 L159.0526,374.8116 L168.7895,374.8335 L178.5263,373.7012 L188.2632,374.2584 L198,373.0222 L198.6242,373.0222 L197.3589,366.0222 L198.6031,359.0222 L197.7364,352.0222 L198.4745,345.0222 L198,338.0222 L197.6889,337.711 L195.9569,335.9791 L194.4661,334.4883 L191.9694,331.9915 L190.0662,330.0884 L188,328.0222 L188,328.9252 L178.2778,329.1321 L168.5556,328.0118 L158.8333,328.7881 L149.1111,326.4957 L139.3889,328.7805 L129.6667,329.484 L119.9444,329.2076 L110.2222,329.6569 L100.5,326.734 L90.7778,326.283 L81.0556,326.3651 L71.3333,327.8652 L61.6111,327.4981 L51.8889,329.8393 L42.1667,327.5564 L32.4444,327.1074 L22.7222,328.6309 L13,328.0222" fill="#FFFFFF" style="stroke:#00008B;stroke-width:0.5;"/><path d="M188,328.0222 L187.4073,328.0222 L187.5386,330.0222 L188.5768,332.0222 L188.3873,334.0222 L188.6529,336.0222 L188,338.0222 L188,337.7361 L190,338.3059 L192,338.547 L194,337.6023 L196,337.937 L198,338.0222 L198.0792,338.1014 L196.4097,336.4318 L193.9974,334.0195 L192.2907,332.3129 L189.6519,329.6741 L188,328.0222" fill="#FFFFFF" style="stroke:#00008B;stroke-width:0.5;"/><text fill="#000000" font-family="Avenir" font-size="13" lengthAdjust="spacing" textLength="151.398" x="19" y="346.0222">Klienten har n&#229; fullstendig</text><text fill="#000000" font-family="Avenir" font-size="13" lengthAdjust="spacing" textLength="164.385" x="19" y="363.7802">tilstand for begge gruppene</text><!--SRC=[jLN1Rjim3BtxApXV0WHjWbu3R4EwhaMnRXYGtfQXK6J64I9J7YKd2u9yJh-aFpRAIJEdIzDjQ7mmB59yZtoKQ3yrL2fM1ImJa6UYA9kp2G490bTO6qTAJtDs5MNQMSSmdvYmzbpWM5KsN3eANrI1q9yX6KvMYT_Y-g02Rj2t-wwBKkbGsyuTPyWVQk0BnTChHgJQqsTsysSTjnEZfuJUmzaQPvlaEgHlZSPp6qlOIGT_L4ZwCQEdxEk0roINvyQCySOGFYKRM956a1URL7xkrwAPFha_nTo8VhXJUmjj8ai_n7MWJmTBV3dpKGnLl3WY1L8muPW4yWv6cr9HE2AB5anszjKP6XIP2cgaFFuNnmwITaNf20yByjmbEyJHRRqnf6sL8KIsJbaLjjLD4ccnHHWiQCgEZ4Ssb8EQoPnnZ91pLPR8IT9iLVhvuTxwXGzOfA0y1CKvXjqj0gYX__Mwtk1b8KprDZXzLw-X1rSVRw6xONWVRRTkYlGsnFVTMIBbcbaSTdLu7NCgmHkO7YmXHRcgmQSz-3OaY0QJoIBrXRBsBYfHfYUGiimem-W763KEU8b1JsJVM5cFjT-xYZMAQTdfT5QmEjc1iv7nPRWuttVHgB8MLaFwBYCpmzrwadhqk1doxue-MIFroAz2sW0gGAl1t1hIH36qstlfr-pjzc6Lkmsylv5tR_cPyQLLYtWeerS4YzO2Yn5otGgn_7F1iJHwk8UnA2RdYZAJ3sNwoBVyG64iPtc4UVvu7WcJNm00]--></g></svg>