<svg xmlns="http://www.w3.org/2000/svg" xmlns:xlink="http://www.w3.org/1999/xlink" contentStyleType="text/css" data-diagram-type="SEQUENCE" height="547px" preserveAspectRatio="none" style="width:610px;height:547px;background:#FFFFFF;" version="1.1" viewBox="0 0 610 547" width="610px" zoomAndPan="magnify"><title>Delta-synkronisering med syncToken</title><defs/><g><text fill="#000000" font-family="Avenir" font-size="14" font-weight="bold" lengthAdjust="spacing" textLength="229.474" x="186.5303" y="29">Delta-synkronisering med syncToken</text><polygon fill="none" points="66,249.2322,66,249.4424,75.9535,248.8178,85.907,249.4255,95.8605,249.6318,105.8139,248.5188,115.7674,249.1545,125.7209,248.8057,135.6744,248.8487,145.6279,249.164,155.5814,248.5408,165.5348,249.7858,175.4883,248.6019,185.4418,249.0344,195.3953,249.6641,205.3488,249.1464,215.3023,249.3004,225.2557,249.2002,235.2092,249.4107,245.1627,249.4713,255.1162,249.8179,265.0697,249.9032,275.0232,249.9114,284.9766,249.4868,294.9301,249.6958,304.8836,249.9344,314.8371,248.511,324.7906,249.9107,334.7441,248.9357,344.6975,249.766,354.651,248.7371,364.6045,249.1637,374.558,249.9738,384.5115,249.1834,394.465,249.3375,404.4184,249.5708,414.3719,249.6484,424.3254,249.2283,434.2789,249.5194,444.2324,248.6598,454.1859,249.5166,464.1393,249.7804,474.0928,249.6767,484.0463,249.8452,493.9998,248.7491,503.9533,248.58,513.9068,248.6108,523.8603,249.1733,533.8137,249.0356,543.7672,249.9136,553.7207,249.0575,563.6742,248.8891,573.6277,249.4604,583.5812,248.5653,593.5346,249.2322,593.0155,249.2322,594.1836,259.6414,593.9703,270.0507,594.2691,280.4599,593.2128,290.8692,593.8538,301.2784,594.1251,311.6877,593.0622,322.0969,593.5346,332.5062,593.5346,332.4103,583.5812,332.6322,573.6277,333.1579,563.6742,332.502,553.7207,332.9687,543.7672,331.9524,533.8137,331.8289,523.8603,333.0098,513.9068,331.7892,503.9533,333.0151,493.9998,332.7128,484.0463,332.2383,474.0928,332.1524,464.1393,332.9649,454.1859,332.2068,444.2324,333.098,434.2789,331.9534,424.3254,333.1236,414.3719,332.9905,404.4184,332.7511,394.465,332.5534,384.5115,333.2328,374.558,333.1197,364.6045,332.6754,354.651,332.7744,344.6975,332.3759,334.7441,333.2226,324.7906,332.661,314.8371,332.6787,304.8836,331.8978,294.9301,332.1009,284.9766,333.0369,275.0232,332.9359,265.0697,332.4632,255.1162,332.184,245.1627,332.2872,235.2092,331.82,225.2557,332.9209,215.3023,333.2457,205.3488,333.0326,195.3953,333.2011,185.4418,332.3694,175.4883,332.5934,165.5348,332.1186,155.5814,332.7902,145.6279,332.7529,135.6744,333.0586,125.7209,332.2765,115.7674,332.3718,105.8139,332.9496,95.8605,333.0735,85.907,331.9936,75.9535,332.3123,66,332.5062,66.1493,332.5062,65.3892,322.0969,66.3534,311.6877,66.258,301.2784,65.8992,290.8692,66.1422,280.4599,66.7287,270.0507,65.6871,259.6414,66,249.2322" style="stroke:#000000;stroke-width:1.5;"/><g><title>M.lsystem</title><polygon fill="#000000" fill-opacity="0.00000" points="110.2983,77.2002,110.2983,77.2702,111.8983,77.0621,113.4983,77.2646,115.0983,77.3334,116.6983,76.9624,118.2983,77.2002,118.2206,77.2002,117.8718,87.1321,117.9148,97.064,118.2302,106.996,117.607,116.9279,118.852,126.8599,117.6681,136.7918,118.1006,146.7237,118.7303,156.6557,118.2126,166.5876,118.3666,176.5195,118.2664,186.4515,118.4769,196.3834,118.5375,206.3154,118.884,216.2473,118.9694,226.1792,118.9776,236.1112,118.553,246.0431,118.7619,255.975,119.0006,265.907,117.5772,275.8389,118.9769,285.7709,118.0018,295.7028,118.8322,305.6347,117.8033,315.5667,118.2298,325.4986,119.0399,335.4305,118.2496,345.3625,118.4036,355.2944,118.637,365.2264,118.7146,375.1583,118.2944,385.0902,118.2983,395.0222,118.2983,395.1179,116.6983,394.8314,115.0983,395.117,113.4983,395.2049,111.8983,395.1703,110.2983,395.0222,110.9114,395.0222,109.8153,385.0902,109.6462,375.1583,109.6769,365.2264,110.2395,355.2944,110.1018,345.3625,110.9798,335.4305,110.1237,325.4986,109.9553,315.5667,110.5266,305.6347,109.6315,295.7028,109.7792,285.7709,110.9473,275.8389,110.734,265.907,111.0328,255.975,109.9765,246.0431,110.6175,236.1112,110.8888,226.1792,109.8259,216.2473,110.2025,206.3154,110.4243,196.3834,110.9501,186.4515,110.2941,176.5195,110.7609,166.5876,109.7446,156.6557,109.6211,146.7237,110.802,136.7918,109.5814,126.8599,110.8073,116.9279,110.505,106.996,110.0304,97.064,109.9446,87.1321,110.2983,77.2002"/><path d="M114,77.2002 L114.2802,77.2002 L113.4476,87.1321 L114.2577,97.064 L114.5329,106.996 L113.0488,116.9279 L113.8964,126.8599 L113.4313,136.7918 L113.4887,146.7237 L113.9091,156.6557 L113.0782,166.5876 L114.7382,176.5195 L113.1596,186.4515 L113.7363,196.3834 L114.5759,206.3154 L113.8856,216.2473 L114.091,226.1792 L113.9574,236.1112 L114.238,246.0431 L114.3188,255.975 L114.7809,265.907 L114.8947,275.8389 L114.9057,285.7709 L114.3395,295.7028 L114.6181,305.6347 L114.9363,315.5667 L113.0384,325.4986 L114.9047,335.4305 L113.6047,345.3625 L114.7117,355.2944 L113.34,365.2264 L113.9087,375.1583 L114.9888,385.0902 L114,395.0222" fill="none" style="stroke:#2F4F4F;stroke-width:0.5;stroke-dasharray:5,5;"/></g><path d="M114,395.0222 L114.0934,395.0222 L113.8159,403.6274 L114.0859,412.2326 L114.1776,420.8378 L113.6829,429.443 L114,438.0482" fill="none" style="stroke:#2F4F4F;stroke-width:0.5;stroke-dasharray:1,4;"/><g><title>M.lsystem</title><polygon fill="#000000" fill-opacity="0.00000" points="110.2983,438.0482,110.2983,438.1182,111.8983,437.9101,113.4983,438.1126,115.0983,438.1814,116.6983,437.8104,118.2983,438.0482,118.2206,438.0482,117.8718,448.5505,117.9148,459.0527,118.2302,469.555,117.607,480.0573,118.852,490.5596,117.6681,501.0619,118.2983,511.5642,118.2983,511.4982,116.6983,511.7081,115.0983,511.5356,113.4983,511.5869,111.8983,511.5535,110.2983,511.5642,110.4769,511.5642,110.5375,501.0619,110.884,490.5596,110.9694,480.0573,110.9776,469.555,110.553,459.0527,110.7619,448.5505,110.2983,438.0482"/><path d="M114,438.0482 L114.2802,438.0482 L113.4476,448.5505 L114.2577,459.0527 L114.5329,469.555 L113.0488,480.0573 L113.8964,490.5596 L113.4313,501.0619 L114,511.5642" fill="none" style="stroke:#2F4F4F;stroke-width:0.5;stroke-dasharray:5,5;"/></g><g><title>Sync API</title><polygon fill="#000000" fill-opacity="0.00000" points="548.3354,77.2002,548.3354,77.2702,549.9354,77.0621,551.5354,77.2646,553.1354,77.3334,554.7354,76.9624,556.3354,77.2002,556.2577,77.2002,555.9089,87.1321,555.9519,97.064,556.2673,106.996,555.644,116.9279,556.8891,126.8599,555.7051,136.7918,556.1377,146.7237,556.7674,156.6557,556.2496,166.5876,556.4037,176.5195,556.3035,186.4515,556.5139,196.3834,556.5746,206.3154,556.9211,216.2473,557.0065,226.1792,557.0147,236.1112,556.59,246.0431,556.799,255.975,557.0377,265.907,555.6142,275.8389,557.0139,285.7709,556.0389,295.7028,556.8692,305.6347,555.8404,315.5667,556.2669,325.4986,557.077,335.4305,556.2867,345.3625,556.4407,355.2944,556.674,365.2264,556.7516,375.1583,556.3315,385.0902,556.3354,395.0222,556.3354,395.1179,554.7354,394.8314,553.1354,395.117,551.5354,395.2049,549.9354,395.1703,548.3354,395.0222,548.9484,395.0222,547.8523,385.0902,547.6832,375.1583,547.714,365.2264,548.2765,355.2944,548.1389,345.3625,549.0168,335.4305,548.1607,325.4986,547.9924,315.5667,548.5637,305.6347,547.6686,295.7028,547.8163,285.7709,548.9844,275.8389,548.7711,265.907,549.0699,255.975,548.0136,246.0431,548.6546,236.1112,548.9258,226.1792,547.863,216.2473,548.2396,206.3154,548.4614,196.3834,548.9872,186.4515,548.3312,176.5195,548.798,166.5876,547.7816,156.6557,547.6582,146.7237,548.839,136.7918,547.6185,126.8599,548.8444,116.9279,548.542,106.996,548.0675,97.064,547.9816,87.1321,548.3354,77.2002"/><path d="M552.1362,77.2002 L552.4164,77.2002 L551.5838,87.1321 L552.3939,97.064 L552.6691,106.996 L551.185,116.9279 L552.0326,126.8599 L551.5675,136.7918 L551.6249,146.7237 L552.0453,156.6557 L551.2144,166.5876 L552.8744,176.5195 L551.2958,186.4515 L551.8725,196.3834 L552.7121,206.3154 L552.0218,216.2473 L552.2272,226.1792 L552.0936,236.1112 L552.3742,246.0431 L552.455,255.975 L552.9171,265.907 L553.0309,275.8389 L553.0419,285.7709 L552.4757,295.7028 L552.7543,305.6347 L553.0725,315.5667 L551.1746,325.4986 L553.0409,335.4305 L551.7409,345.3625 L552.8479,355.2944 L551.4762,365.2264 L552.0449,375.1583 L553.125,385.0902 L552.1362,395.0222" fill="none" style="stroke:#2F4F4F;stroke-width:0.5;stroke-dasharray:5,5;"/></g><path d="M552.1362,395.0222 L552.2296,395.0222 L551.9521,403.6274 L552.2221,412.2326 L552.3138,420.8378 L551.8191,429.443 L552.1362,438.0482" fill="none" style="stroke:#2F4F4F;stroke-width:0.5;stroke-dasharray:1,4;"/><g><title>Sync API</title><polygon fill="#000000" fill-opacity="0.00000" points="548.3354,438.0482,548.3354,438.1182,549.9354,437.9101,551.5354,438.1126,553.1354,438.1814,554.7354,437.8104,556.3354,438.0482,556.2577,438.0482,555.9089,448.5505,555.9519,459.0527,556.2673,469.555,555.644,480.0573,556.8891,490.5596,555.7051,501.0619,556.3354,511.5642,556.3354,511.4982,554.7354,511.7081,553.1354,511.5356,551.5354,511.5869,549.9354,511.5535,548.3354,511.5642,548.5139,511.5642,548.5746,501.0619,548.9211,490.5596,549.0065,480.0573,549.0147,469.555,548.59,459.0527,548.799,448.5505,548.3354,438.0482"/><path d="M552.1362,438.0482 L552.4164,438.0482 L551.5838,448.5505 L552.3939,459.0527 L552.6691,469.555 L551.185,480.0573 L552.0326,490.5596 L551.5675,501.0619 L552.1362,511.5642" fill="none" style="stroke:#2F4F4F;stroke-width:0.5;stroke-dasharray:5,5;"/></g><g class="participant participant-head" data-participant="target"><polygon fill="#F0F8FF" points="78.5,45.124,78.5,45.3342,88.7281,44.7097,98.9562,45.3173,109.1843,45.5237,119.4124,44.4106,129.6405,45.0463,139.8686,44.6975,150.0967,45.124,150.0478,45.0059,150.4415,45.2495,150.7156,45.204,151.228,45.7338,151.4305,45.5157,151.8644,45.8562,151.8035,45.831,152.1439,46.2649,152.1309,46.5524,152.3248,46.9256,152.4404,47.2664,152.5967,47.624,152.6562,47.624,152.6764,52.8392,152.7919,58.0545,152.8204,63.2697,152.8231,68.4849,152.5967,73.7002,152.6751,73.7327,152.593,74.1129,152.52,74.4969,151.9352,74.6688,152.2198,75.2009,151.8644,75.4679,151.8266,75.3766,151.579,75.7788,151.0942,75.6084,150.795,75.8862,150.5448,76.2821,150.0967,76.2002,150.0967,76.1514,139.8686,76.3055,129.6405,76.5388,119.4124,76.6164,109.1843,76.1963,98.9562,76.4874,88.7281,75.6278,78.5,76.2002,78.5363,76.2878,78.2164,76.2225,77.8496,76.0442,77.5175,75.9496,77.0242,75.4656,76.7322,75.4679,76.5314,75.3847,76.3944,75.0351,76.4212,74.7533,76.2324,74.3822,76.3563,74.1406,76,73.7002,75.9418,73.7002,75.8856,68.4849,76.0761,63.2697,75.7777,58.0545,75.827,52.8392,76,47.624,76.1999,47.7068,76.2806,47.326,76.5191,47.0106,76.3402,46.5223,76.6841,46.2505,76.7322,45.8562,76.8075,46.0381,77.0255,45.5643,77.4271,45.5338,77.809,45.4557,78.2296,45.4712,78.5,45.124" style="stroke:#006400;stroke-width:0.5;"/><text fill="#000000" font-family="Impact" font-size="14" lengthAdjust="spacing" textLength="62.5967" x="83" y="66.247">M&#229;lsystem</text></g><g class="participant participant-tail" data-participant="target"><polygon fill="#F0F8FF" points="78.5,510.5642,78.5,510.7743,88.7281,510.1498,98.9562,510.7575,109.1843,510.9638,119.4124,509.8508,129.6405,510.4865,139.8686,510.1377,150.0967,510.5642,150.0478,510.4461,150.4415,510.6896,150.7156,510.6441,151.228,511.174,151.4305,510.9559,151.8644,511.2964,151.8035,511.2712,152.1439,511.7051,152.1309,511.9926,152.3248,512.3658,152.4404,512.7065,152.5967,513.0642,152.6562,513.0642,152.6764,518.2794,152.7919,523.4946,152.8204,528.7099,152.8231,533.9251,152.5967,539.1403,152.6751,539.1728,152.593,539.553,152.52,539.937,151.9352,540.109,152.2198,540.6411,151.8644,540.9081,151.8266,540.8168,151.579,541.2189,151.0942,541.0486,150.795,541.3263,150.5448,541.7223,150.0967,541.6403,150.0967,541.5916,139.8686,541.7456,129.6405,541.979,119.4124,542.0566,109.1843,541.6364,98.9562,541.9276,88.7281,541.0679,78.5,541.6403,78.5363,541.7279,78.2164,541.6627,77.8496,541.4843,77.5175,541.3898,77.0242,540.9058,76.7322,540.9081,76.5314,540.8249,76.3944,540.4753,76.4212,540.1935,76.2324,539.8224,76.3563,539.5808,76,539.1403,75.9418,539.1403,75.8856,533.9251,76.0761,528.7099,75.7777,523.4946,75.827,518.2794,76,513.0642,76.1999,513.1469,76.2806,512.7662,76.5191,512.4508,76.3402,511.9625,76.6841,511.6907,76.7322,511.2964,76.8075,511.4782,77.0255,511.0045,77.4271,510.974,77.809,510.8959,78.2296,510.9113,78.5,510.5642" style="stroke:#006400;stroke-width:0.5;"/><text fill="#000000" font-family="Impact" font-size="14" lengthAdjust="spacing" textLength="62.5967" x="83" y="531.6872">M&#229;lsystem</text></g><g class="participant participant-head" data-participant="sync"><polygon fill="#F0F8FF" points="523.6362,45.124,523.6362,45.3342,533.2026,44.7097,542.769,45.3173,552.3354,45.5237,561.9018,44.4106,571.4682,45.0463,581.0346,45.124,580.9802,44.9927,581.3393,45.1523,581.7331,45.3959,582.0071,45.3504,582.5195,45.8803,582.8024,45.8562,582.6083,45.7758,582.8879,46.1846,583.2283,46.6184,583.2153,46.906,583.4092,47.2792,583.5346,47.624,583.524,47.624,583.5941,52.8392,583.6143,58.0545,583.7299,63.2697,583.7583,68.4849,583.5346,73.7002,583.7438,73.7868,583.4666,74.0862,583.3845,74.4664,583.3116,74.8504,582.7268,75.0224,582.8024,75.4679,582.889,75.6769,582.411,75.5231,582.1634,75.9252,581.6786,75.7548,581.3795,76.0326,581.0346,76.2002,581.0346,76.9418,571.4682,76.1514,561.9018,76.3055,552.3354,76.5388,542.769,76.6164,533.2026,76.1963,523.6362,76.2002,523.6728,76.2886,523.2096,75.8774,522.9654,75.9949,522.6455,75.9297,522.2787,75.7513,521.8684,75.4679,522.0572,75.5461,521.5732,75.0528,521.3747,74.6776,521.2377,74.328,521.2645,74.0462,521.1362,73.7002,521.0707,73.7002,521.3633,68.4849,521.078,63.2697,521.0218,58.0545,521.2123,52.8392,521.1362,47.624,520.9308,47.5389,521.1228,47.2042,521.6289,46.9997,521.7097,46.6189,521.9482,46.3035,521.8684,45.8562,521.8274,45.7571,522.2627,45.8081,522.6509,45.7452,522.8688,45.2714,523.2704,45.2409,523.6362,45.124" style="stroke:#006400;stroke-width:0.5;"/><text fill="#000000" font-family="Impact" font-size="14" lengthAdjust="spacing" textLength="48.3984" x="528.1362" y="66.247">Sync API</text></g><g class="participant participant-tail" data-participant="sync"><polygon fill="#F0F8FF" points="523.6362,510.5642,523.6362,510.7743,533.2026,510.1498,542.769,510.7575,552.3354,510.9638,561.9018,509.8508,571.4682,510.4865,581.0346,510.5642,580.9802,510.4328,581.3393,510.5925,581.7331,510.8361,582.0071,510.7906,582.5195,511.3205,582.8024,511.2964,582.6083,511.216,582.8879,511.6247,583.2283,512.0586,583.2153,512.3461,583.4092,512.7193,583.5346,513.0642,583.524,513.0642,583.5941,518.2794,583.6143,523.4946,583.7299,528.7099,583.7583,533.9251,583.5346,539.1403,583.7438,539.227,583.4666,539.5264,583.3845,539.9066,583.3116,540.2906,582.7268,540.4626,582.8024,540.9081,582.889,541.1171,582.411,540.9632,582.1634,541.3654,581.6786,541.195,581.3795,541.4728,581.0346,541.6403,581.0346,542.3819,571.4682,541.5916,561.9018,541.7456,552.3354,541.979,542.769,542.0566,533.2026,541.6364,523.6362,541.6403,523.6728,541.7288,523.2096,541.3176,522.9654,541.435,522.6455,541.3698,522.2787,541.1914,521.8684,540.9081,522.0572,540.9863,521.5732,540.4929,521.3747,540.1178,521.2377,539.7682,521.2645,539.4864,521.1362,539.1403,521.0707,539.1403,521.3633,533.9251,521.078,528.7099,521.0218,523.4946,521.2123,518.2794,521.1362,513.0642,520.9308,512.9791,521.1228,512.6444,521.6289,512.4398,521.7097,512.0591,521.9482,511.7436,521.8684,511.2964,521.8274,511.1973,522.2627,511.2483,522.6509,511.1853,522.8688,510.7116,523.2704,510.6811,523.6362,510.5642" style="stroke:#006400;stroke-width:0.5;"/><text fill="#000000" font-family="Impact" font-size="14" lengthAdjust="spacing" textLength="48.3984" x="528.1362" y="531.6872">Sync API</text></g><polygon fill="#EEEEEE" points="0,109.0792,0,109.2894,10.0589,108.6649,20.1178,109.2725,30.1767,109.4789,40.2356,108.3658,50.2946,109.0015,60.3535,108.6527,70.4124,108.6957,80.4713,109.011,90.5302,108.3878,100.5891,109.6328,110.648,108.4489,120.7069,108.8814,130.7658,109.5111,140.8247,108.9934,150.8837,109.1474,160.9426,109.0472,171.0015,109.2577,181.0604,109.3183,191.1193,109.6649,201.1782,109.7502,211.2371,109.7584,221.296,109.3338,231.3549,109.5428,241.4139,109.7814,251.4728,108.358,261.5317,109.7577,271.5906,108.7827,281.6495,109.613,291.7084,108.5841,301.7673,109.0107,311.8262,109.8208,321.8851,109.0304,331.9441,109.1845,342.003,109.4178,352.0619,109.4954,362.1208,109.0753,372.1797,109.3664,382.2386,108.5068,392.2975,109.3636,402.3564,109.6274,412.4153,109.5237,422.4742,109.6922,432.5332,108.5961,442.5921,108.427,452.651,108.4578,462.7099,109.0203,472.7688,108.8826,482.8277,109.7606,492.8866,108.9045,502.9455,108.7361,513.0044,109.3074,523.0634,108.4123,533.1223,108.56,543.1812,109.7281,553.2401,109.5148,563.299,109.8137,573.3579,108.7574,583.4168,109.3984,593.4757,109.6696,603.5346,109.0792,603.3772,109.0792,603.5027,109.6792,603.5766,110.2792,603.7519,110.8792,603.5332,111.4792,603.5346,112.0792,603.5346,112.5417,593.4757,111.5254,583.4168,111.4019,573.3579,112.5828,563.299,111.3622,553.2401,112.5881,543.1812,112.2858,533.1223,111.8113,523.0634,111.7254,513.0044,112.5379,502.9455,111.7798,492.8866,112.671,482.8277,111.5264,472.7688,112.6966,462.7099,112.5635,452.651,112.3241,442.5921,112.1264,432.5332,112.8058,422.4742,112.6927,412.4153,112.2484,402.3564,112.3474,392.2975,111.9489,382.2386,112.7956,372.1797,112.234,362.1208,112.2517,352.0619,111.4708,342.003,111.6739,331.9441,112.6099,321.8851,112.5089,311.8262,112.0362,301.7673,111.757,291.7084,111.8602,281.6495,111.393,271.5906,112.4939,261.5317,112.8187,251.4728,112.6056,241.4139,112.7741,231.3549,111.9424,221.296,112.1664,211.2371,111.6916,201.1782,112.3632,191.1193,112.3259,181.0604,112.6316,171.0015,111.8495,160.9426,111.9448,150.8837,112.5226,140.8247,112.6465,130.7658,111.5666,120.7069,111.8853,110.648,112.2284,100.5891,111.4683,90.5302,112.4326,80.4713,112.3372,70.4124,111.9784,60.3535,112.2214,50.2946,112.8078,40.2356,111.7663,30.1767,112.3942,20.1178,112.3648,10.0589,112.1949,0,112.0792,0.047,112.0792,0.0378,111.4792,-0.2081,110.8792,-0.1336,110.2792,-0.1538,109.6792,0,109.0792" style="stroke:#EEEEEE;stroke-width:1;"/><path d="M0,109.0792 L0,109.3594 L10.0589,108.5267 L20.1178,109.3369 L30.1767,109.6121 L40.2356,108.128 L50.2946,108.9756 L60.3535,108.5105 L70.4124,108.5678 L80.4713,108.9883 L90.5302,108.1573 L100.5891,109.8174 L110.648,108.2388 L120.7069,108.8155 L130.7658,109.6551 L140.8247,108.9648 L150.8837,109.1702 L160.9426,109.0366 L171.0015,109.3172 L181.0604,109.398 L191.1193,109.8601 L201.1782,109.9739 L211.2371,109.9848 L221.296,109.4187 L231.3549,109.6973 L241.4139,110.0155 L251.4728,108.1176 L261.5317,109.9839 L271.5906,108.6838 L281.6495,109.7909 L291.7084,108.4191 L301.7673,108.9878 L311.8262,110.068 L321.8851,109.0142 L331.9441,109.2196 L342.003,109.5307 L352.0619,109.6341 L362.1208,109.074 L372.1797,109.4621 L382.2386,108.3159 L392.2975,109.4584 L402.3564,109.8101 L412.4153,109.6719 L422.4742,109.8965 L432.5332,108.4351 L442.5921,108.2096 L452.651,108.2506 L462.7099,109.0007 L472.7688,108.8171 L482.8277,109.9877 L492.8866,108.8463 L502.9455,108.6218 L513.0044,109.3835 L523.0634,108.1901 L533.1223,108.387 L543.1812,109.9444 L553.2401,109.6601 L563.299,110.0585 L573.3579,108.6501 L583.4168,109.5048 L593.4757,109.8664 L603.5346,109.0792" fill="#EEEEEE" style="stroke:#000000;stroke-width:1;"/><path d="M0,112.0792 L0,112.3594 L10.0589,111.5267 L20.1178,112.3369 L30.1767,112.6121 L40.2356,111.128 L50.2946,111.9756 L60.3535,111.5105 L70.4124,111.5678 L80.4713,111.9883 L90.5302,111.1573 L100.5891,112.8174 L110.648,111.2388 L120.7069,111.8155 L130.7658,112.6551 L140.8247,111.9648 L150.8837,112.1702 L160.9426,112.0366 L171.0015,112.3172 L181.0604,112.398 L191.1193,112.8601 L201.1782,112.9739 L211.2371,112.9848 L221.296,112.4187 L231.3549,112.6973 L241.4139,113.0155 L251.4728,111.1176 L261.5317,112.9839 L271.5906,111.6838 L281.6495,112.7909 L291.7084,111.4191 L301.7673,111.9878 L311.8262,113.068 L321.8851,112.0142 L331.9441,112.2196 L342.003,112.5307 L352.0619,112.6341 L362.1208,112.074 L372.1797,112.4621 L382.2386,111.3159 L392.2975,112.4584 L402.3564,112.8101 L412.4153,112.6719 L422.4742,112.8965 L432.5332,111.4351 L442.5921,111.2096 L452.651,111.2506 L462.7099,112.0007 L472.7688,111.8171 L482.8277,112.9877 L492.8866,111.8463 L502.9455,111.6218 L513.0044,112.3835 L523.0634,111.1901 L533.1223,111.387 L543.1812,112.9444 L553.2401,112.6601 L563.299,113.0585 L573.3579,111.6501 L583.4168,112.5048 L593.4757,112.8664 L603.5346,112.0792" fill="#EEEEEE" style="stroke:#000000;stroke-width:1;"/><polygon fill="#EEEEEE" points="201.4728,97.2002,201.4728,97.4104,211.5023,96.7859,221.5317,97.3935,231.5612,97.5999,241.5906,96.4868,251.6201,97.1225,261.6495,96.7737,271.679,96.8167,281.7084,97.132,291.7379,96.5088,301.7673,97.7538,311.7968,96.5699,321.8262,97.0024,331.8557,97.6321,341.8851,97.1144,351.9146,97.2684,361.944,97.1682,371.9735,97.3787,382.0029,97.4393,392.0324,97.7859,402.0618,97.2002,402.2855,97.2002,402.2882,102.3518,402.1467,107.5034,402.2163,112.655,402.2959,117.8066,402.0618,122.9582,402.0618,122.237,392.0324,123.6367,382.0029,122.6617,371.9735,123.492,361.944,122.4631,351.9146,122.8897,341.8851,123.6998,331.8557,122.9094,321.8262,123.0635,311.7968,123.2968,301.7673,123.3744,291.7379,122.9543,281.7084,123.2454,271.679,122.3858,261.6495,123.2426,251.6201,123.5064,241.5906,123.4027,231.5612,123.5712,221.5317,122.4751,211.5023,122.306,201.4728,122.9582,201.2657,122.9582,201.4532,117.8066,201.4073,112.655,201.7,107.5034,201.4146,102.3518,201.4728,97.2002" style="stroke:#000000;stroke-width:2;"/><text fill="#000000" font-family="Avenir" font-size="13" font-weight="bold" lengthAdjust="spacing" textLength="182.975" x="207.4728" y="114.2002">F&#248;rste synkronisering (Full sync)</text><g class="message" data-participant-1="target" data-participant-2="sync"><polygon fill="#006400" points="540.3354,152.7162,540.3614,152.7812,542.2841,153.3879,544.3593,154.376,546.3849,155.2399,548.2471,155.6954,550.3354,156.7162,550.3258,156.6921,548.2826,157.3842,546.2879,158.1975,544.327,159.0951,542.2498,159.7022,540.3354,160.7162,540.4659,160.8467,540.9869,159.7676,541.8888,159.0696,542.8372,158.418,543.5152,157.496,544.3354,156.7162,544.3515,156.7323,543.5279,155.9086,542.7775,155.1583,541.9918,154.3725,541.2735,153.6542,540.3354,152.7162" style="stroke:#006400;stroke-width:1;"/><path d="M114.2983,156.7162 L114.2983,156.9964 L124.3457,156.1637 L134.3931,156.9739 L144.4405,157.2491 L154.4878,155.765 L164.5352,156.6126 L174.5826,156.1475 L184.63,156.2048 L194.6773,156.6253 L204.7247,155.7943 L214.7721,157.4544 L224.8195,155.8758 L234.8668,156.4525 L244.9142,157.2921 L254.9616,156.6018 L265.0089,156.8072 L275.0563,156.6736 L285.1037,156.9542 L295.1511,157.035 L305.1984,157.4971 L315.2458,157.6109 L325.2932,157.6218 L335.3406,157.0557 L345.3879,157.3343 L355.4353,157.6525 L365.4827,155.7546 L375.5301,157.6209 L385.5774,156.3208 L395.6248,157.4279 L405.6722,156.0561 L415.7196,156.6248 L425.7669,157.705 L435.8143,156.6512 L445.8617,156.8566 L455.9091,157.1677 L465.9564,157.2711 L476.0038,156.711 L486.0512,157.0991 L496.0985,155.9529 L506.1459,157.0954 L516.1933,157.4471 L526.2407,157.3089 L536.288,157.5335 L546.3354,156.7162" fill="none" style="stroke:#006400;stroke-width:1;"/><text fill="#000000" font-family="Avenir" font-size="13" lengthAdjust="spacing" textLength="179.413" x="121.2983" y="149.9582">GET /brukere (uten syncToken)</text></g><g class="message" data-participant-1="sync" data-participant-2="target"><polygon fill="#006400" points="125.2983,184.4742,125.3244,184.5392,123.247,185.1459,121.3223,186.134,119.3478,186.9979,117.21,187.4534,115.2983,188.4742,115.2887,188.4501,117.2455,189.1422,119.2509,189.9555,121.2899,190.8531,123.2128,191.4602,125.2983,192.4742,125.4288,192.6047,124.3498,191.5256,123.6517,190.8276,123.0002,190.176,122.0781,189.254,121.2983,188.4742,121.3144,188.4903,122.0908,187.6666,122.9404,186.9162,123.7547,186.1305,124.6364,185.4122,125.2983,184.4742" style="stroke:#006400;stroke-width:1;"/><path d="M119.2983,188.4742 L119.2983,188.7544 L129.3457,187.9217 L139.3931,188.7319 L149.4405,189.0071 L159.4878,187.523 L169.5352,188.3706 L179.5826,187.9055 L189.63,187.9628 L199.6773,188.3833 L209.7247,187.5523 L219.7721,189.2124 L229.8195,187.6338 L239.8668,188.2105 L249.9142,189.0501 L259.9616,188.3598 L270.0089,188.5652 L280.0563,188.4316 L290.1037,188.7122 L300.1511,188.793 L310.1984,189.2551 L320.2458,189.3689 L330.2932,189.3798 L340.3406,188.8137 L350.3879,189.0923 L360.4353,189.4105 L370.4827,187.5126 L380.5301,189.3789 L390.5774,188.0788 L400.6248,189.1859 L410.6722,187.8141 L420.7196,188.3828 L430.7669,189.463 L440.8143,188.4092 L450.8617,188.6146 L460.9091,188.9257 L470.9564,189.0291 L481.0038,188.469 L491.0512,188.8571 L501.0985,187.7109 L511.1459,188.8534 L521.1933,189.2051 L531.2407,189.0669 L541.288,189.2915 L551.3354,188.4742" fill="none" style="stroke:#006400;stroke-width:1;stroke-dasharray:2,2;"/><text fill="#000000" font-family="Avenir" font-size="13" lengthAdjust="spacing" textLength="340.6" x="131.2983" y="181.7162">{ "events": [...], "syncToken": "token_1", "hasMore": true }</text></g><polygon fill="#EEEEEE" points="0,218.3532,0,218.5634,10.0589,217.9389,20.1178,218.5465,30.1767,218.7528,40.2356,217.6398,50.2946,218.2755,60.3535,217.9267,70.4124,217.9697,80.4713,218.285,90.5302,217.6618,100.5891,218.9068,110.648,217.7229,120.7069,218.1554,130.7658,218.7851,140.8247,218.2674,150.8837,218.4214,160.9426,218.3212,171.0015,218.5317,181.0604,218.5923,191.1193,218.9389,201.1782,219.0242,211.2371,219.0324,221.296,218.6078,231.3549,218.8168,241.4139,219.0554,251.4728,217.632,261.5317,219.0317,271.5906,218.0567,281.6495,218.887,291.7084,217.8581,301.7673,218.2847,311.8262,219.0948,321.8851,218.3044,331.9441,218.4585,342.003,218.6918,352.0619,218.7694,362.1208,218.3493,372.1797,218.6404,382.2386,217.7808,392.2975,218.6376,402.3564,218.9014,412.4153,218.7977,422.4742,218.9662,432.5332,217.8701,442.5921,217.701,452.651,217.7318,462.7099,218.2943,472.7688,218.1566,482.8277,219.0346,492.8866,218.1785,502.9455,218.0101,513.0044,218.5814,523.0634,217.6863,533.1223,217.834,543.1812,219.0021,553.2401,218.7888,563.299,219.0877,573.3579,218.0314,583.4168,218.6724,593.4757,218.9436,603.5346,218.3532,603.3772,218.3532,603.5027,218.9532,603.5766,219.5532,603.7519,220.1532,603.5332,220.7532,603.5346,221.3532,603.5346,221.8157,593.4757,220.7994,583.4168,220.6759,573.3579,221.8568,563.299,220.6362,553.2401,221.8621,543.1812,221.5598,533.1223,221.0853,523.0634,220.9994,513.0044,221.8119,502.9455,221.0538,492.8866,221.945,482.8277,220.8004,472.7688,221.9706,462.7099,221.8375,452.651,221.5981,442.5921,221.4004,432.5332,222.0798,422.4742,221.9667,412.4153,221.5224,402.3564,221.6214,392.2975,221.2229,382.2386,222.0696,372.1797,221.508,362.1208,221.5257,352.0619,220.7448,342.003,220.9479,331.9441,221.8839,321.8851,221.7829,311.8262,221.3102,301.7673,221.031,291.7084,221.1342,281.6495,220.667,271.5906,221.7679,261.5317,222.0927,251.4728,221.8796,241.4139,222.0481,231.3549,221.2164,221.296,221.4404,211.2371,220.9656,201.1782,221.6372,191.1193,221.5999,181.0604,221.9056,171.0015,221.1235,160.9426,221.2188,150.8837,221.7966,140.8247,221.9205,130.7658,220.8406,120.7069,221.1593,110.648,221.5024,100.5891,220.7423,90.5302,221.7066,80.4713,221.6112,70.4124,221.2524,60.3535,221.4954,50.2946,222.0818,40.2356,221.0403,30.1767,221.6682,20.1178,221.6388,10.0589,221.4689,0,221.3532,0.047,221.3532,0.0378,220.7532,-0.2081,220.1532,-0.1336,219.5532,-0.1538,218.9532,0,218.3532" style="stroke:#EEEEEE;stroke-width:1;"/><path d="M0,218.3532 L0,218.6334 L10.0589,217.8007 L20.1178,218.6109 L30.1767,218.8861 L40.2356,217.402 L50.2946,218.2496 L60.3535,217.7845 L70.4124,217.8418 L80.4713,218.2623 L90.5302,217.4313 L100.5891,219.0914 L110.648,217.5128 L120.7069,218.0895 L130.7658,218.9291 L140.8247,218.2388 L150.8837,218.4442 L160.9426,218.3106 L171.0015,218.5912 L181.0604,218.672 L191.1193,219.1341 L201.1782,219.2479 L211.2371,219.2588 L221.296,218.6927 L231.3549,218.9713 L241.4139,219.2895 L251.4728,217.3916 L261.5317,219.2579 L271.5906,217.9578 L281.6495,219.0649 L291.7084,217.6931 L301.7673,218.2618 L311.8262,219.342 L321.8851,218.2882 L331.9441,218.4936 L342.003,218.8047 L352.0619,218.9081 L362.1208,218.348 L372.1797,218.7361 L382.2386,217.5899 L392.2975,218.7324 L402.3564,219.0841 L412.4153,218.9459 L422.4742,219.1705 L432.5332,217.7091 L442.5921,217.4836 L452.651,217.5246 L462.7099,218.2747 L472.7688,218.0911 L482.8277,219.2617 L492.8866,218.1203 L502.9455,217.8958 L513.0044,218.6575 L523.0634,217.4641 L533.1223,217.661 L543.1812,219.2184 L553.2401,218.9341 L563.299,219.3325 L573.3579,217.9241 L583.4168,218.7788 L593.4757,219.1404 L603.5346,218.3532" fill="#EEEEEE" style="stroke:#000000;stroke-width:1;"/><path d="M0,221.3532 L0,221.6334 L10.0589,220.8007 L20.1178,221.6109 L30.1767,221.8861 L40.2356,220.402 L50.2946,221.2496 L60.3535,220.7845 L70.4124,220.8418 L80.4713,221.2623 L90.5302,220.4313 L100.5891,222.0914 L110.648,220.5128 L120.7069,221.0895 L130.7658,221.9291 L140.8247,221.2388 L150.8837,221.4442 L160.9426,221.3106 L171.0015,221.5912 L181.0604,221.672 L191.1193,222.1341 L201.1782,222.2479 L211.2371,222.2588 L221.296,221.6927 L231.3549,221.9713 L241.4139,222.2895 L251.4728,220.3916 L261.5317,222.2579 L271.5906,220.9578 L281.6495,222.0649 L291.7084,220.6931 L301.7673,221.2618 L311.8262,222.342 L321.8851,221.2882 L331.9441,221.4936 L342.003,221.8047 L352.0619,221.9081 L362.1208,221.348 L372.1797,221.7361 L382.2386,220.5899 L392.2975,221.7324 L402.3564,222.0841 L412.4153,221.9459 L422.4742,222.1705 L432.5332,220.7091 L442.5921,220.4836 L452.651,220.5246 L462.7099,221.2747 L472.7688,221.0911 L482.8277,222.2617 L492.8866,221.1203 L502.9455,220.8958 L513.0044,221.6575 L523.0634,220.4641 L533.1223,220.661 L543.1812,222.2184 L553.2401,221.9341 L563.299,222.3325 L573.3579,220.9241 L583.4168,221.7788 L593.4757,222.1404 L603.5346,221.3532" fill="#EEEEEE" style="stroke:#000000;stroke-width:1;"/><polygon fill="#EEEEEE" points="189.9223,206.4742,189.9223,206.6844,200.0901,206.0599,210.2578,206.6675,220.4255,206.8739,230.5932,205.7608,240.761,206.3965,250.9287,206.0477,261.0964,206.0907,271.2641,206.406,281.4319,205.7828,291.5996,207.0278,301.7673,205.8439,311.935,206.2764,322.1028,206.9061,332.2705,206.3884,342.4382,206.5424,352.6059,206.4422,362.7737,206.6527,372.9414,206.7133,383.1091,207.0599,393.2768,207.1452,403.4446,207.1534,413.6123,206.4742,413.6972,206.4742,413.7668,211.6258,413.8464,216.7774,413.3719,221.929,413.8385,227.0806,413.6123,232.2322,413.6123,231.9357,403.4446,232.766,393.2768,231.7371,383.1091,232.1637,372.9414,232.9738,362.7737,232.1834,352.6059,232.3375,342.4382,232.5708,332.2705,232.6484,322.1028,232.2283,311.935,232.5194,301.7673,231.6598,291.5996,232.5166,281.4319,232.7804,271.2641,232.6767,261.0964,232.8452,250.9287,231.7491,240.761,231.58,230.5932,231.6108,220.4255,232.1733,210.2578,232.0356,200.0901,232.9136,189.9223,232.2322,189.8641,232.2322,189.808,227.0806,189.9984,221.929,189.7001,216.7774,189.7493,211.6258,189.9223,206.4742" style="stroke:#000000;stroke-width:2;"/><text fill="#000000" font-family="Avenir" font-size="13" font-weight="bold" lengthAdjust="spacing" textLength="206.076" x="195.9223" y="223.4742">P&#229;f&#248;lgende synkroniseringer (Delta)</text><path d="M66,249.2322 L66,249.7927 L75.798,248.1273 L85.5959,249.7476 L95.3939,250.298 L105.1918,247.3298 L114.9898,249.0249 L124.7877,248.0949 L134.5857,248.2095 L144.3837,249.0504 L154.1816,247.3885 L163.9796,250.7085 L173.7775,247.5514 L183.5755,248.7048 L193.3734,250.384 L203.1714,249.0034 L212.9694,249.4141 L222.7673,249.147 L232.5653,249.7082 L242.3632,249.8699 L252.1612,250.794 L261.9591,251.0216 L271.7571,251.0435 L281.5551,249.9112 L291.353,250.4684 L301.151,249.2322 L301.7752,249.2322 L300.5099,251.1838 L301.7541,253.1354 L300.8874,255.087 L301.6255,257.0386 L301.151,258.9902 L300.8398,258.679 L299.1079,260.9471 L297.6171,263.4563 L295.1203,264.9595 L293.2172,267.0564 L291.151,268.9902 L291.151,269.8932 L281.3618,270.1001 L271.5726,268.9798 L261.7835,269.7561 L251.9943,267.4637 L242.2051,269.7485 L232.4159,270.452 L222.6268,270.1756 L212.8376,270.6249 L203.0484,267.702 L193.2592,267.251 L183.4701,267.3331 L173.6809,268.8332 L163.8917,268.4661 L154.1026,270.8073 L144.3134,268.5244 L134.5242,268.0754 L124.735,269.5989 L114.9459,267.2119 L105.1567,267.6058 L95.3675,270.7207 L85.5783,270.1519 L75.7892,270.9488 L66,268.9902 L65.714,268.9902 L66.2837,265.0386 L66.5248,261.087 L65.5801,257.1354 L65.9148,253.1838 L66,249.2322" fill="#EEEEEE" style="stroke:#000000;stroke-width:1.5;"/><polygon fill="none" points="66,249.2322,66,249.4424,75.9535,248.8178,85.907,249.4255,95.8605,249.6318,105.8139,248.5188,115.7674,249.1545,125.7209,248.8057,135.6744,248.8487,145.6279,249.164,155.5814,248.5408,165.5348,249.7858,175.4883,248.6019,185.4418,249.0344,195.3953,249.6641,205.3488,249.1464,215.3023,249.3004,225.2557,249.2002,235.2092,249.4107,245.1627,249.4713,255.1162,249.8179,265.0697,249.9032,275.0232,249.9114,284.9766,249.4868,294.9301,249.6958,304.8836,249.9344,314.8371,248.511,324.7906,249.9107,334.7441,248.9357,344.6975,249.766,354.651,248.7371,364.6045,249.1637,374.558,249.9738,384.5115,249.1834,394.465,249.3375,404.4184,249.5708,414.3719,249.6484,424.3254,249.2283,434.2789,249.5194,444.2324,248.6598,454.1859,249.5166,464.1393,249.7804,474.0928,249.6767,484.0463,249.8452,493.9998,248.7491,503.9533,248.58,513.9068,248.6108,523.8603,249.1733,533.8137,249.0356,543.7672,249.9136,553.7207,249.0575,563.6742,248.8891,573.6277,249.4604,583.5812,248.5653,593.5346,249.2322,593.0155,249.2322,594.1836,259.6414,593.9703,270.0507,594.2691,280.4599,593.2128,290.8692,593.8538,301.2784,594.1251,311.6877,593.0622,322.0969,593.5346,332.5062,593.5346,332.4103,583.5812,332.6322,573.6277,333.1579,563.6742,332.502,553.7207,332.9687,543.7672,331.9524,533.8137,331.8289,523.8603,333.0098,513.9068,331.7892,503.9533,333.0151,493.9998,332.7128,484.0463,332.2383,474.0928,332.1524,464.1393,332.9649,454.1859,332.2068,444.2324,333.098,434.2789,331.9534,424.3254,333.1236,414.3719,332.9905,404.4184,332.7511,394.465,332.5534,384.5115,333.2328,374.558,333.1197,364.6045,332.6754,354.651,332.7744,344.6975,332.3759,334.7441,333.2226,324.7906,332.661,314.8371,332.6787,304.8836,331.8978,294.9301,332.1009,284.9766,333.0369,275.0232,332.9359,265.0697,332.4632,255.1162,332.184,245.1627,332.2872,235.2092,331.82,225.2557,332.9209,215.3023,333.2457,205.3488,333.0326,195.3953,333.2011,185.4418,332.3694,175.4883,332.5934,165.5348,332.1186,155.5814,332.7902,145.6279,332.7529,135.6744,333.0586,125.7209,332.2765,115.7674,332.3718,105.8139,332.9496,95.8605,333.0735,85.907,331.9936,75.9535,332.3123,66,332.5062,66.1493,332.5062,65.3892,322.0969,66.3534,311.6877,66.258,301.2784,65.8992,290.8692,66.1422,280.4599,66.7287,270.0507,65.6871,259.6414,66,249.2322" style="stroke:#000000;stroke-width:1.5;"/><text fill="#000000" font-family="Avenir" font-size="13" font-weight="bold" lengthAdjust="spacing" textLength="190.151" x="81" y="263.2322">Fortsett s&#229; lenge hasMore = true</text><g class="message" data-participant-1="target" data-participant-2="sync"><polygon fill="#006400" points="540.3354,288.7482,540.3614,288.8132,542.2841,289.4199,544.3593,290.408,546.3849,291.2719,548.2471,291.7274,550.3354,292.7482,550.3258,292.7241,548.2826,293.4162,546.2879,294.2295,544.327,295.1271,542.2498,295.7342,540.3354,296.7482,540.4659,296.8787,540.9869,295.7996,541.8888,295.1016,542.8372,294.45,543.5152,293.528,544.3354,292.7482,544.3515,292.7643,543.5279,291.9406,542.7775,291.1902,541.9918,290.4045,541.2735,289.6862,540.3354,288.7482" style="stroke:#006400;stroke-width:1;"/><path d="M114.2983,292.7482 L114.2983,293.0284 L124.3457,292.1957 L134.3931,293.0059 L144.4405,293.2811 L154.4878,291.797 L164.5352,292.6446 L174.5826,292.1795 L184.63,292.2368 L194.6773,292.6573 L204.7247,291.8263 L214.7721,293.4864 L224.8195,291.9078 L234.8668,292.4845 L244.9142,293.3241 L254.9616,292.6338 L265.0089,292.8392 L275.0563,292.7056 L285.1037,292.9862 L295.1511,293.067 L305.1984,293.5291 L315.2458,293.6429 L325.2932,293.6538 L335.3406,293.0877 L345.3879,293.3663 L355.4353,293.6845 L365.4827,291.7866 L375.5301,293.6529 L385.5774,292.3528 L395.6248,293.4599 L405.6722,292.0881 L415.7196,292.6568 L425.7669,293.737 L435.8143,292.6832 L445.8617,292.8886 L455.9091,293.1997 L465.9564,293.3031 L476.0038,292.743 L486.0512,293.1311 L496.0985,291.9849 L506.1459,293.1274 L516.1933,293.4791 L526.2407,293.3409 L536.288,293.5655 L546.3354,292.7482" fill="none" style="stroke:#006400;stroke-width:1;"/><text fill="#000000" font-family="Avenir" font-size="13" lengthAdjust="spacing" textLength="200.824" x="121.2983" y="285.9902">GET /brukere?syncToken=token_1</text></g><g class="message" data-participant-1="sync" data-participant-2="target"><polygon fill="#006400" points="125.2983,320.5062,125.3244,320.5712,123.247,321.1779,121.3223,322.166,119.3478,323.0299,117.21,323.4854,115.2983,324.5062,115.2887,324.4821,117.2455,325.1742,119.2509,325.9875,121.2899,326.8851,123.2128,327.4922,125.2983,328.5062,125.4288,328.6367,124.3498,327.5576,123.6517,326.8596,123.0002,326.208,122.0781,325.286,121.2983,324.5062,121.3144,324.5223,122.0908,323.6986,122.9404,322.9482,123.7547,322.1625,124.6364,321.4442,125.2983,320.5062" style="stroke:#006400;stroke-width:1;"/><path d="M119.2983,324.5062 L119.2983,324.7864 L129.3457,323.9537 L139.3931,324.7639 L149.4405,325.0391 L159.4878,323.555 L169.5352,324.4026 L179.5826,323.9375 L189.63,323.9948 L199.6773,324.4153 L209.7247,323.5843 L219.7721,325.2444 L229.8195,323.6658 L239.8668,324.2425 L249.9142,325.0821 L259.9616,324.3918 L270.0089,324.5972 L280.0563,324.4636 L290.1037,324.7442 L300.1511,324.825 L310.1984,325.2871 L320.2458,325.4009 L330.2932,325.4118 L340.3406,324.8457 L350.3879,325.1243 L360.4353,325.4425 L370.4827,323.5446 L380.5301,325.4108 L390.5774,324.1108 L400.6248,325.2179 L410.6722,323.8461 L420.7196,324.4148 L430.7669,325.495 L440.8143,324.4412 L450.8617,324.6466 L460.9091,324.9577 L470.9564,325.0611 L481.0038,324.501 L491.0512,324.8891 L501.0985,323.7429 L511.1459,324.8854 L521.1933,325.2371 L531.2407,325.0989 L541.288,325.3235 L551.3354,324.5062" fill="none" style="stroke:#006400;stroke-width:1;stroke-dasharray:2,2;"/><text fill="#000000" font-family="Avenir" font-size="13" lengthAdjust="spacing" textLength="343.993" x="131.2983" y="317.7482">{ "events": [...], "syncToken": "token_2", "hasMore": false }</text></g><path d="M5,344.5062 L5.5605,344.5062 L3.8951,353.5062 L5.5154,362.5062 L6.0658,371.5062 L3.0976,380.5062 L5,389.5062 L5,389.2989 L14.9545,388.3689 L24.9091,388.4835 L34.8636,389.3244 L44.8182,387.6625 L54.7727,390.9825 L64.7273,387.8254 L74.6818,388.9788 L84.6364,390.658 L94.5909,389.2774 L104.5455,389.6881 L114.5,389.421 L124.4545,389.9822 L134.4091,390.1439 L144.3636,391.068 L154.3182,391.2956 L164.2727,391.3175 L174.2273,390.1852 L184.1818,390.7424 L194.1364,391.3788 L204.0909,387.583 L214.0455,391.3155 L224,389.5062 L223.7364,389.5062 L224.4745,382.5062 L223.56,375.5062 L223.9391,368.5062 L224.6592,361.5062 L224,354.5062 L223.9694,354.4755 L222.0662,352.5724 L220.2128,350.719 L218.2616,348.7678 L215.9975,346.5037 L214,344.5062 L214,345.2721 L204.0476,342.9797 L194.0952,345.2645 L184.1429,345.968 L174.1905,345.6916 L164.2381,346.1409 L154.2857,343.218 L144.3333,342.767 L134.381,342.8491 L124.4286,344.3492 L114.4762,343.9821 L104.5238,346.3233 L94.5714,344.0404 L84.619,343.5914 L74.6667,345.1149 L64.7143,342.7279 L54.7619,343.1218 L44.8095,346.2367 L34.8571,345.6679 L24.9048,346.4648 L14.9524,343.648 L5,344.5062" fill="#FFFFFF" style="stroke:#00008B;stroke-width:0.5;"/><path d="M214,344.5062 L214.2837,344.5062 L214.5248,346.5062 L213.5801,348.5062 L213.9148,350.5062 L214.112,352.5062 L214,354.5062 L214,355.0855 L216,354.5024 L218,354.9173 L220,354.0139 L222,353.9042 L224,354.5062 L224.3165,354.8227 L221.5494,352.0555 L220.3199,350.8261 L218.1299,348.636 L215.8316,346.3378 L214,344.5062" fill="#FFFFFF" style="stroke:#00008B;stroke-width:0.5;"/><text fill="#000000" font-family="Avenir" font-size="13" lengthAdjust="spacing" textLength="183.417" x="11" y="362.5062">Klienten lagrer "token_2" lokalt</text><text fill="#000000" font-family="Avenir" font-size="13" lengthAdjust="spacing" textLength="198.7569" x="11" y="380.2642">og venter til neste polling-intervall</text><text fill="#000000" font-family="Avenir" font-size="11" lengthAdjust="spacing" textLength="71.291" x="297.6714" y="420.0222">Etter en pause</text><g class="message" data-participant-1="target" data-participant-2="sync"><polygon fill="#006400" points="540.3354,457.8062,540.3614,457.8712,542.2841,458.4779,544.3593,459.466,546.3849,460.3299,548.2471,460.7854,550.3354,461.8062,550.3258,461.7821,548.2826,462.4742,546.2879,463.2875,544.327,464.1851,542.2498,464.7922,540.3354,465.8062,540.4659,465.9367,540.9869,464.8576,541.8888,464.1596,542.8372,463.508,543.5152,462.5859,544.3354,461.8062,544.3515,461.8223,543.5279,460.9986,542.7775,460.2482,541.9918,459.4625,541.2735,458.7442,540.3354,457.8062" style="stroke:#006400;stroke-width:1;"/><path d="M114.2983,461.8062 L114.2983,462.0864 L124.3457,461.2537 L134.3931,462.0639 L144.4405,462.3391 L154.4878,460.855 L164.5352,461.7025 L174.5826,461.2375 L184.63,461.2948 L194.6773,461.7153 L204.7247,460.8843 L214.7721,462.5444 L224.8195,460.9658 L234.8668,461.5425 L244.9142,462.3821 L254.9616,461.6918 L265.0089,461.8972 L275.0563,461.7636 L285.1037,462.0442 L295.1511,462.125 L305.1984,462.5871 L315.2458,462.7009 L325.2932,462.7118 L335.3406,462.1457 L345.3879,462.4243 L355.4353,462.7425 L365.4827,460.8446 L375.5301,462.7108 L385.5774,461.4108 L395.6248,462.5179 L405.6722,461.1461 L415.7196,461.7148 L425.7669,462.795 L435.8143,461.7412 L445.8617,461.9466 L455.9091,462.2577 L465.9564,462.3611 L476.0038,461.801 L486.0512,462.1891 L496.0985,461.0429 L506.1459,462.1853 L516.1933,462.5371 L526.2407,462.3989 L536.288,462.6235 L546.3354,461.8062" fill="none" style="stroke:#006400;stroke-width:1;"/><text fill="#000000" font-family="Avenir" font-size="13" lengthAdjust="spacing" textLength="200.824" x="121.2983" y="455.0482">GET /brukere?syncToken=token_2</text></g><g class="message" data-participant-1="sync" data-participant-2="target"><polygon fill="#006400" points="125.2983,489.5642,125.3244,489.6292,123.247,490.2359,121.3223,491.224,119.3478,492.0879,117.21,492.5434,115.2983,493.5642,115.2887,493.5401,117.2455,494.2322,119.2509,495.0455,121.2899,495.9431,123.2128,496.5502,125.2983,497.5642,125.4288,497.6947,124.3498,496.6156,123.6517,495.9176,123.0002,495.266,122.0781,494.3439,121.2983,493.5642,121.3144,493.5802,122.0908,492.7566,122.9404,492.0062,123.7547,491.2205,124.6364,490.5022,125.2983,489.5642" style="stroke:#006400;stroke-width:1;"/><path d="M119.2983,493.5642 L119.2983,493.8444 L129.3457,493.0117 L139.3931,493.8219 L149.4405,494.0971 L159.4878,492.613 L169.5352,493.4605 L179.5826,492.9955 L189.63,493.0528 L199.6773,493.4733 L209.7247,492.6423 L219.7721,494.3024 L229.8195,492.7238 L239.8668,493.3005 L249.9142,494.1401 L259.9616,493.4498 L270.0089,493.6552 L280.0563,493.5216 L290.1037,493.8022 L300.1511,493.883 L310.1984,494.3451 L320.2458,494.4589 L330.2932,494.4698 L340.3406,493.9037 L350.3879,494.1823 L360.4353,494.5005 L370.4827,492.6026 L380.5301,494.4688 L390.5774,493.1688 L400.6248,494.2759 L410.6722,492.9041 L420.7196,493.4728 L430.7669,494.553 L440.8143,493.4992 L450.8617,493.7046 L460.9091,494.0157 L470.9564,494.1191 L481.0038,493.559 L491.0512,493.9471 L501.0985,492.8009 L511.1459,493.9433 L521.1933,494.2951 L531.2407,494.1569 L541.288,494.3815 L551.3354,493.5642" fill="none" style="stroke:#006400;stroke-width:1;stroke-dasharray:2,2;"/><text fill="#000000" font-family="Avenir" font-size="13" lengthAdjust="spacing" textLength="414.0371" x="131.2983" y="486.8062">{ "events": [nye endringer], "syncToken": "token_3", "hasMore": false }</text></g><!--SRC=[jLJRJjj047tVhvZwXI0rGT0tfBGAvI9Kg93WhQsgZJr9LXxlkhlZq0ZrS_8FlEV7EckdRf92K17umRBcSiwPC_A4tDXIUrt0dG9v9jfcjzumemNs5TR1eKxpiNULpL97piFjn72JESQHheXFdUNFka0OJD4QhtwfqE86renBzBRkl2XrodNioFaC_SSQ-5Zx_CmZsZepyDxTFfgucPWqjnW2x3SuhSYcPK0cnIEA8wp9mHyLslIFeatsfk4boUMvC2EyC1OtoQv9h17asLBApuUzM9LltRzcBatVlga71rr5bdr8QikUjexujF9XRDL-zeeKQDdmQnB8cqrgIctv5LbImVIENfnXXIBJh8SwuBCurf1ILvJEudP37ll9jd7ixRmnDgKgGuXilR8gQ6TFALaneHmUOjqDCvjxPqr0R-mO2in0GkcDosLWjRgjv78nfp0BZ4K2EW1hFqPUBxcMLXXSdTS54KUfVXzE5_TUsc23gtDQ4TLLkz3lgmOFkk_h41p2sSaDx0rzbQD7w5JndhRITbLTr9NgPTyXt462yXzpI0xXIw_N-_OMahP1OWd7Z-_xYSGdEbmwZnAD9rhEMzHvjPYF5lSqHfjjYaKFdTgmMceql9GzUGx8364n1q8fWYKizFzU_grZVMZrzPVYwfvdptQmFjj8KuZ3oK1ArNVFJMMI5lKJ6S4KNqcFlIHQ522NQ-AlreqXqiOcGo3dMZ1AHoIMT4sCJpMHKg88JZYM2LYfAs6La5B_D_p1KqkrCnI2h5d88nQyUzY2tm00]--></g></svg>