<svg xmlns="http://www.w3.org/2000/svg" xmlns:xlink="http://www.w3.org/1999/xlink" contentStyleType="text/css" data-diagram-type="SEQUENCE" height="457px" preserveAspectRatio="none" style="width:874px;height:457px;background:#FFFFFF;" version="1.1" viewBox="0 0 874 457" width="874px" zoomAndPan="magnify"><title>Overordnet arkitektur for Sync API</title><defs/><g><text fill="#000000" font-family="Avenir" font-size="14" font-weight="bold" lengthAdjust="spacing" textLength="213.92" x="326.233" y="29">Overordnet arkitektur for Sync API</text><g><title>Identity Provider</title><polygon fill="#000000" fill-opacity="0.00000" points="55.7422,108.2002,55.7422,108.2702,57.3422,108.0621,58.9422,108.2646,60.5422,108.3334,62.1422,107.9624,63.7422,108.2002,63.6645,108.2002,63.3157,118.2115,63.3587,128.2228,63.674,138.2342,63.0508,148.2455,64.2958,158.2568,63.1119,168.2682,63.5444,178.2795,64.1741,188.2908,63.6564,198.3022,63.8104,208.3135,63.7102,218.3248,63.9207,228.3362,63.9813,238.3475,64.3279,248.3588,64.4132,258.3702,64.4214,268.3815,63.9968,278.3928,64.2058,288.4042,64.4444,298.4155,63.021,308.4268,64.4207,318.4382,63.4457,328.4495,64.276,338.4608,63.2472,348.4722,63.6737,358.4835,64.4838,368.4948,63.7422,378.5062,63.7422,378.4899,62.1422,378.5413,60.5422,378.619,58.9422,378.6449,57.3422,378.5049,55.7422,378.5062,56.0294,378.5062,55.1698,368.4948,56.0266,358.4835,56.2904,348.4722,56.1867,338.4608,56.3552,328.4495,55.2591,318.4382,55.09,308.4268,55.1208,298.4155,55.6833,288.4042,55.5457,278.3928,56.4236,268.3815,55.5675,258.3702,55.3991,248.3588,55.9705,238.3475,55.0753,228.3362,55.2231,218.3248,56.3911,208.3135,56.1779,198.3022,56.4767,188.2908,55.4204,178.2795,56.0614,168.2682,56.3326,158.2568,55.2698,148.2455,55.6463,138.2342,55.8682,128.2228,56.3939,118.2115,55.7422,108.2002"/><path d="M59,108.2002 L59.2802,108.2002 L58.4476,118.2115 L59.2577,128.2228 L59.5329,138.2342 L58.0488,148.2455 L58.8964,158.2568 L58.4313,168.2682 L58.4887,178.2795 L58.9091,188.2908 L58.0782,198.3022 L59.7382,208.3135 L58.1596,218.3248 L58.7363,228.3362 L59.5759,238.3475 L58.8856,248.3588 L59.091,258.3702 L58.9574,268.3815 L59.238,278.3928 L59.3188,288.4042 L59.7809,298.4155 L59.8947,308.4268 L59.9057,318.4382 L59.3395,328.4495 L59.6181,338.4608 L59.9363,348.4722 L58.0384,358.4835 L59.9047,368.4948 L59,378.5062" fill="none" style="stroke:#2F4F4F;stroke-width:0.5;stroke-dasharray:5,5;"/></g><g><title>Fiks SCIM API</title><polygon fill="#000000" fill-opacity="0.00000" points="225.5762,108.2002,225.5762,108.2702,227.1762,108.0621,228.7762,108.2646,230.3762,108.3334,231.9762,107.9624,233.5762,108.2002,233.4985,108.2002,233.1497,118.2115,233.1927,128.2228,233.508,138.2342,232.8848,148.2455,234.1298,158.2568,232.9459,168.2682,233.3784,178.2795,234.0081,188.2908,233.4904,198.3022,233.6444,208.3135,233.5442,218.3248,233.7547,228.3362,233.8153,238.3475,234.1619,248.3588,234.2472,258.3702,234.2554,268.3815,233.8308,278.3928,234.0398,288.4042,234.2784,298.4155,232.855,308.4268,234.2547,318.4382,233.2797,328.4495,234.11,338.4608,233.0811,348.4722,233.5077,358.4835,234.3178,368.4948,233.5762,378.5062,233.5762,378.4899,231.9762,378.5413,230.3762,378.619,228.7762,378.6449,227.1762,378.5049,225.5762,378.5062,225.8634,378.5062,225.0038,368.4948,225.8606,358.4835,226.1244,348.4722,226.0207,338.4608,226.1892,328.4495,225.0931,318.4382,224.924,308.4268,224.9548,298.4155,225.5173,288.4042,225.3796,278.3928,226.2576,268.3815,225.4015,258.3702,225.2331,248.3588,225.8044,238.3475,224.9093,228.3362,225.057,218.3248,226.2251,208.3135,226.0118,198.3022,226.3107,188.2908,225.2544,178.2795,225.8954,168.2682,226.1666,158.2568,225.1038,148.2455,225.4803,138.2342,225.7022,128.2228,226.2279,118.2115,225.5762,108.2002"/><path d="M229.1494,108.2002 L229.4297,108.2002 L228.597,118.2115 L229.4071,128.2228 L229.6823,138.2342 L228.1982,148.2455 L229.0458,158.2568 L228.5808,168.2682 L228.6381,178.2795 L229.0585,188.2908 L228.2276,198.3022 L229.8876,208.3135 L228.309,218.3248 L228.8857,228.3362 L229.7253,238.3475 L229.035,248.3588 L229.2404,258.3702 L229.1068,268.3815 L229.3874,278.3928 L229.4683,288.4042 L229.9303,298.4155 L230.0442,308.4268 L230.0551,318.4382 L229.4889,328.4495 L229.7675,338.4608 L230.0857,348.4722 L228.1878,358.4835 L230.0541,368.4948 L229.1494,378.5062" fill="none" style="stroke:#2F4F4F;stroke-width:0.5;stroke-dasharray:5,5;"/></g><g><title>Fiks Database</title><polygon fill="#000000" fill-opacity="0.00000" points="366.0302,108.2002,366.0302,108.2702,367.6302,108.0621,369.2302,108.2646,370.8302,108.3334,372.4302,107.9624,374.0302,108.2002,373.9525,108.2002,373.6037,118.2115,373.6467,128.2228,373.962,138.2342,373.3388,148.2455,374.5838,158.2568,373.3999,168.2682,373.8324,178.2795,374.4621,188.2908,373.9444,198.3022,374.0984,208.3135,373.9982,218.3248,374.2087,228.3362,374.2693,238.3475,374.6159,248.3588,374.7012,258.3702,374.7094,268.3815,374.2848,278.3928,374.4938,288.4042,374.7324,298.4155,373.309,308.4268,374.7087,318.4382,373.7337,328.4495,374.564,338.4608,373.5352,348.4722,373.9617,358.4835,374.7718,368.4948,374.0302,378.5062,374.0302,378.4899,372.4302,378.5413,370.8302,378.619,369.2302,378.6449,367.6302,378.5049,366.0302,378.5062,366.3174,378.5062,365.4578,368.4948,366.3146,358.4835,366.5784,348.4722,366.4747,338.4608,366.6432,328.4495,365.5471,318.4382,365.378,308.4268,365.4088,298.4155,365.9713,288.4042,365.8337,278.3928,366.7116,268.3815,365.8555,258.3702,365.6871,248.3588,366.2585,238.3475,365.3633,228.3362,365.5111,218.3248,366.6791,208.3135,366.4658,198.3022,366.7647,188.2908,365.7084,178.2795,366.3494,168.2682,366.6206,158.2568,365.5578,148.2455,365.9343,138.2342,366.1562,128.2228,366.6819,118.2115,366.0302,108.2002"/><path d="M369.3578,108.2002 L369.6381,108.2002 L368.8054,118.2115 L369.6155,128.2228 L369.8907,138.2342 L368.4066,148.2455 L369.2542,158.2568 L368.7892,168.2682 L368.8465,178.2795 L369.2669,188.2908 L368.436,198.3022 L370.096,208.3135 L368.5174,218.3248 L369.0941,228.3362 L369.9337,238.3475 L369.2434,248.3588 L369.4488,258.3702 L369.3152,268.3815 L369.5959,278.3928 L369.6767,288.4042 L370.1387,298.4155 L370.2526,308.4268 L370.2635,318.4382 L369.6973,328.4495 L369.9759,338.4608 L370.2941,348.4722 L368.3962,358.4835 L370.2625,368.4948 L369.3578,378.5062" fill="none" style="stroke:#2F4F4F;stroke-width:0.5;stroke-dasharray:5,5;"/></g><g><title>Brukersynkronisering</title><polygon fill="#000000" fill-opacity="0.00000" points="585.2381,108.2002,585.2381,108.2702,586.8381,108.0621,588.4381,108.2646,590.0381,108.3334,591.6381,107.9624,593.2381,108.2002,593.1604,108.2002,592.8116,118.2115,592.8546,128.2228,593.17,138.2342,592.5468,148.2455,593.7918,158.2568,592.6078,168.2682,593.0404,178.2795,593.6701,188.2908,593.1524,198.3022,593.3064,208.3135,593.2062,218.3248,593.4167,228.3362,593.4773,238.3475,593.8238,248.3588,593.9092,258.3702,593.9174,268.3815,593.4928,278.3928,593.7017,288.4042,593.9404,298.4155,592.5169,308.4268,593.9166,318.4382,592.9416,328.4495,593.7719,338.4608,592.7431,348.4722,593.1696,358.4835,593.9797,368.4948,593.2381,378.5062,593.2381,378.4899,591.6381,378.5413,590.0381,378.619,588.4381,378.6449,586.8381,378.5049,585.2381,378.5062,585.5253,378.5062,584.6657,368.4948,585.5225,358.4835,585.7863,348.4722,585.6827,338.4608,585.8512,328.4495,584.755,318.4382,584.5859,308.4268,584.6167,298.4155,585.1792,288.4042,585.0416,278.3928,585.9195,268.3815,585.0635,258.3702,584.8951,248.3588,585.4664,238.3475,584.5713,228.3362,584.719,218.3248,585.8871,208.3135,585.6738,198.3022,585.9726,188.2908,584.9163,178.2795,585.5573,168.2682,585.8285,158.2568,584.7657,148.2455,585.1423,138.2342,585.3641,128.2228,585.8899,118.2115,585.2381,108.2002"/><path d="M589.0912,108.2002 L589.3714,108.2002 L588.5387,118.2115 L589.3489,128.2228 L589.6241,138.2342 L588.14,148.2455 L588.9875,158.2568 L588.5225,168.2682 L588.5798,178.2795 L589.0003,188.2908 L588.1693,198.3022 L589.8293,208.3135 L588.2508,218.3248 L588.8275,228.3362 L589.6671,238.3475 L588.9768,248.3588 L589.1821,258.3702 L589.0486,268.3815 L589.3292,278.3928 L589.41,288.4042 L589.8721,298.4155 L589.9859,308.4268 L589.9968,318.4382 L589.4307,328.4495 L589.7093,338.4608 L590.0275,348.4722 L588.1296,358.4835 L589.9958,368.4948 L589.0912,378.5062" fill="none" style="stroke:#2F4F4F;stroke-width:0.5;stroke-dasharray:5,5;"/></g><g><title>M.lsystem</title><polygon fill="#000000" fill-opacity="0.00000" points="790.3411,108.2002,790.3411,108.2702,791.9411,108.0621,793.5411,108.2646,795.1411,108.3334,796.7411,107.9624,798.3411,108.2002,798.2634,108.2002,797.9146,118.2115,797.9576,128.2228,798.273,138.2342,797.6498,148.2455,798.8948,158.2568,797.7108,168.2682,798.1434,178.2795,798.7731,188.2908,798.2553,198.3022,798.4094,208.3135,798.3092,218.3248,798.5197,228.3362,798.5803,238.3475,798.9268,248.3588,799.0122,258.3702,799.0204,268.3815,798.5958,278.3928,798.8047,288.4042,799.0434,298.4155,797.6199,308.4268,799.0196,318.4382,798.0446,328.4495,798.8749,338.4608,797.8461,348.4722,798.2726,358.4835,799.0827,368.4948,798.3411,378.5062,798.3411,378.4899,796.7411,378.5413,795.1411,378.619,793.5411,378.6449,791.9411,378.5049,790.3411,378.5062,790.6283,378.5062,789.7687,368.4948,790.6255,358.4835,790.8893,348.4722,790.7857,338.4608,790.9542,328.4495,789.858,318.4382,789.6889,308.4268,789.7197,298.4155,790.2822,288.4042,790.1446,278.3928,791.0225,268.3815,790.1664,258.3702,789.9981,248.3588,790.5694,238.3475,789.6743,228.3362,789.822,218.3248,790.9901,208.3135,790.7768,198.3022,791.0756,188.2908,790.0193,178.2795,790.6603,168.2682,790.9315,158.2568,789.8687,148.2455,790.2453,138.2342,790.4671,128.2228,790.9929,118.2115,790.3411,108.2002"/><path d="M794.2962,108.2002 L794.5764,108.2002 L793.7438,118.2115 L794.5539,128.2228 L794.8291,138.2342 L793.345,148.2455 L794.1926,158.2568 L793.7275,168.2682 L793.7849,178.2795 L794.2053,188.2908 L793.3744,198.3022 L795.0344,208.3135 L793.4558,218.3248 L794.0325,228.3362 L794.8721,238.3475 L794.1818,248.3588 L794.3872,258.3702 L794.2536,268.3815 L794.5342,278.3928 L794.615,288.4042 L795.0771,298.4155 L795.1909,308.4268 L795.2019,318.4382 L794.6357,328.4495 L794.9143,338.4608 L795.2325,348.4722 L793.3346,358.4835 L795.2009,368.4948 L794.2962,378.5062" fill="none" style="stroke:#2F4F4F;stroke-width:0.5;stroke-dasharray:5,5;"/></g><g class="participant participant-head" data-participant="idp"><polygon fill="#F0F8FF" points="7.5,59.0478,7.5,59.258,17.9484,58.6335,28.3969,59.2411,38.8453,59.4475,49.2938,58.3344,59.7422,58.9701,70.1906,58.6213,80.6391,58.6643,91.0875,58.9797,101.5359,58.3565,111.9844,59.0478,112.055,59.2183,112.2575,59.0002,112.6663,59.2798,113.1001,59.6202,113.3876,59.6072,113.7521,59.7801,113.7732,59.7888,113.8888,60.1295,114.1,60.5099,114.2651,60.8712,114.5183,61.269,114.4844,61.5478,114.7081,61.5478,114.7108,70.1783,114.5693,78.8088,114.6389,87.4392,114.7185,96.0697,114.4844,104.7002,114.2623,104.6082,114.5469,105.1403,114.1002,105.3695,114.2094,105.8289,113.7461,106.0512,113.7521,106.4679,113.7434,106.4468,113.4932,106.8428,113.0388,106.7458,112.7049,106.9397,112.3811,107.158,111.9844,107.2002,111.9844,107.6164,101.5359,107.1963,91.0875,107.4874,80.6391,106.6278,70.1906,107.4846,59.7422,107.7484,49.2937,107.6447,38.8453,107.8132,28.3969,106.7171,17.9484,106.548,7.5,107.2002,7.4207,107.0088,7.1389,107.0356,6.7678,106.8468,6.5263,106.9707,6.0635,106.5606,5.7322,106.4679,5.6266,106.4242,5.6561,106.1435,5.234,105.6758,5.133,105.3411,5.3463,105.1365,5,104.7002,5.1452,104.7002,5.2448,96.0697,4.8927,87.4392,5.1064,78.8088,5.1968,70.1783,5,61.5478,4.8545,61.4876,5.1169,61.182,5.3317,60.8568,5.6401,60.5703,5.5845,60.1331,5.7322,59.7801,5.7912,59.9225,6.0151,59.4631,6.3529,59.2786,6.8571,59.4958,7.055,58.9735,7.5,59.0478" style="stroke:#006400;stroke-width:0.5;"/><text fill="#000000" font-family="Impact" font-size="14" lengthAdjust="spacing" textLength="95.4844" x="12" y="80.1709">Identity Provider</text><text fill="#000000" font-family="Impact" font-size="14" lengthAdjust="spacing" textLength="93.7344" x="12.875" y="97.247">(Azure AD / Okta)</text></g><g class="participant participant-tail" data-participant="idp"><polygon fill="#F0F8FF" points="7.5,377.5062,7.5,377.7164,17.9484,377.0918,28.3969,377.6995,38.8453,377.9058,49.2938,376.7928,59.7422,377.4285,70.1906,377.0797,80.6391,377.1227,91.0875,377.438,101.5359,376.8148,111.9844,377.5062,112.055,377.6767,112.2575,377.4585,112.6663,377.7382,113.1001,378.0785,113.3876,378.0655,113.7521,378.2384,113.7732,378.2471,113.8888,378.5879,114.1,378.9683,114.2651,379.3296,114.5183,379.7273,114.4844,380.0062,114.7081,380.0062,114.7108,388.6366,114.5693,397.2671,114.6389,405.8976,114.7185,414.528,114.4844,423.1585,114.2623,423.0665,114.5469,423.5986,114.1002,423.8278,114.2094,424.2873,113.7461,424.5096,113.7521,424.9263,113.7434,424.9052,113.4932,425.3011,113.0388,425.2042,112.7049,425.398,112.3811,425.6163,111.9844,425.6585,111.9844,426.0747,101.5359,425.6546,91.0875,425.9457,80.6391,425.0861,70.1906,425.9429,59.7422,426.2067,49.2937,426.103,38.8453,426.2715,28.3969,425.1754,17.9484,425.0063,7.5,425.6585,7.4207,425.4671,7.1389,425.4939,6.7678,425.3051,6.5263,425.429,6.0635,425.0189,5.7322,424.9263,5.6266,424.8825,5.6561,424.6018,5.234,424.1341,5.133,423.7994,5.3463,423.5948,5,423.1585,5.1452,423.1585,5.2448,414.528,4.8927,405.8976,5.1064,397.2671,5.1968,388.6366,5,380.0062,4.8545,379.9459,5.1169,379.6404,5.3317,379.3151,5.6401,379.0286,5.5845,378.5914,5.7322,378.2384,5.7912,378.3809,6.0151,377.9214,6.3529,377.7369,6.8571,377.9542,7.055,377.4318,7.5,377.5062" style="stroke:#006400;stroke-width:0.5;"/><text fill="#000000" font-family="Impact" font-size="14" lengthAdjust="spacing" textLength="95.4844" x="12" y="398.6292">Identity Provider</text><text fill="#000000" font-family="Impact" font-size="14" lengthAdjust="spacing" textLength="93.7344" x="12.875" y="415.7054">(Azure AD / Okta)</text></g><g class="participant participant-head" data-participant="scim"><polygon fill="#F0F8FF" points="187.6494,76.124,187.6494,76.3342,198.1311,75.7097,208.6128,76.3173,219.0945,76.5237,229.5762,75.4106,240.0579,76.0463,250.5396,75.6975,261.0212,75.7405,271.5029,76.124,271.4942,76.103,271.7683,76.0575,272.2807,76.5874,272.4832,76.3692,272.8919,76.6489,273.2707,76.8562,273.4037,76.9113,273.3907,77.1988,273.5846,77.572,273.7002,77.9128,273.9115,78.2932,274.0029,78.624,274.0826,78.624,274.1982,83.8392,274.2266,89.0545,274.2293,94.2697,274.0878,99.4849,274.0029,104.7002,274.1457,104.7593,274.0727,105.1433,273.4879,105.3153,273.7725,105.8474,273.3258,106.0766,273.2707,106.4679,273.3388,106.6323,272.854,106.4619,272.5549,106.7397,272.3046,107.1357,271.8503,107.0387,271.5029,107.2002,271.5029,107.3055,261.0212,107.5388,250.5396,107.6164,240.0579,107.1963,229.5762,107.4874,219.0945,106.6278,208.6128,107.4846,198.1311,107.7484,187.6494,107.2002,187.7061,107.3371,187.3741,107.2425,186.8807,106.7585,186.5056,106.56,186.1559,106.423,185.8816,106.4679,185.8635,106.4604,185.6747,106.0893,185.7986,105.8478,185.3885,105.385,185.1902,105.01,185.1494,104.7002,185.2255,104.7002,184.9271,99.4849,184.9764,94.2697,185.3657,89.0545,185.2946,83.8392,185.1494,78.624,185.3756,78.7177,185.1968,78.2294,185.5406,77.9576,185.7706,77.6387,185.5897,77.1495,185.8816,76.8562,185.8694,76.8267,186.2513,76.7486,186.6719,76.7641,186.9418,76.4156,187.3549,76.4129,187.6494,76.124" style="stroke:#006400;stroke-width:0.5;"/><text fill="#000000" font-family="Impact" font-size="14" lengthAdjust="spacing" textLength="74.8535" x="192.1494" y="97.247">Fiks SCIM API</text></g><g class="participant participant-tail" data-participant="scim"><polygon fill="#F0F8FF" points="187.6494,377.5062,187.6494,377.7164,198.1311,377.0918,208.6128,377.6995,219.0945,377.9058,229.5762,376.7928,240.0579,377.4285,250.5396,377.0797,261.0212,377.1227,271.5029,377.5062,271.4942,377.4852,271.7683,377.4397,272.2807,377.9696,272.4832,377.7514,272.8919,378.0311,273.2707,378.2384,273.4037,378.2935,273.3907,378.581,273.5846,378.9542,273.7002,379.295,273.9115,379.6754,274.0029,380.0062,274.0826,380.0062,274.1982,385.2214,274.2266,390.4366,274.2293,395.6519,274.0878,400.8671,274.0029,406.0823,274.1457,406.1415,274.0727,406.5255,273.4879,406.6975,273.7725,407.2296,273.3258,407.4587,273.2707,407.8501,273.3388,408.0145,272.854,407.8441,272.5549,408.1219,272.3046,408.5178,271.8503,408.4209,271.5029,408.5823,271.5029,408.6876,261.0212,408.921,250.5396,408.9986,240.0579,408.5784,229.5762,408.8696,219.0945,408.0099,208.6128,408.8667,198.1311,409.1305,187.6494,408.5823,187.7061,408.7192,187.3741,408.6247,186.8807,408.1407,186.5056,407.9422,186.1559,407.8052,185.8816,407.8501,185.8635,407.8426,185.6747,407.4715,185.7986,407.2299,185.3885,406.7672,185.1902,406.3921,185.1494,406.0823,185.2255,406.0823,184.9271,400.8671,184.9764,395.6519,185.3657,390.4366,185.2946,385.2214,185.1494,380.0062,185.3756,380.0999,185.1968,379.6116,185.5406,379.3398,185.7706,379.0208,185.5897,378.5317,185.8816,378.2384,185.8694,378.2089,186.2513,378.1308,186.6719,378.1462,186.9418,377.7978,187.3549,377.7951,187.6494,377.5062" style="stroke:#006400;stroke-width:0.5;"/><text fill="#000000" font-family="Impact" font-size="14" lengthAdjust="spacing" textLength="74.8535" x="192.1494" y="398.6292">Fiks SCIM API</text></g><g class="participant participant-head" data-participant="mongo"><text fill="#000000" font-family="Impact" font-size="14" lengthAdjust="spacing" textLength="79.3447" x="327.3578" y="105.247">Fiks Database</text><path d="M352.0302,55.124 L352.0302,55.124 L352.0953,55.191 L353.7018,53.242 L355.6901,51.6856 L357.554,50.0014 L359.0092,47.8967 L361.0302,46.374 L361.0254,46.3398 L362.8041,45.9363 L364.6067,45.7052 L366.426,45.594 L368.1879,45.0696 L370.0302,45.124 L370.0302,45.124 L370.064,45.3677 L371.7916,45.0965 L373.6181,45.5369 L375.4566,46.0642 L377.2249,46.0862 L379.0302,46.374 L379.0513,46.3957 L380.8203,48.1138 L382.6855,49.9309 L384.5043,51.7002 L386.4116,53.5606 L388.0302,55.124 L388.6267,55.124 L388.634,60.324 L388.2565,65.524 L388.4423,70.724 L388.6544,75.924 L388.0302,81.124 L388.0302,81.124 L387.8067,80.8942 L386.4404,83.0902 L384.3383,84.5295 L382.7956,86.5441 L380.6768,87.9663 L379.0302,89.874 L379.026,89.8438 L377.2755,90.4505 L375.4272,90.3525 L373.6366,90.6704 L371.8509,91.0231 L370.0302,91.124 L370.0302,91.124 L370.0556,91.3072 L368.2299,90.8723 L366.4477,90.7504 L364.5952,90.122 L362.8476,90.2492 L361.0302,89.874 L361.2,90.0487 L359.3679,88.2657 L357.6201,86.5693 L355.4805,84.4701 L353.6281,82.6662 L352.0302,81.124 L351.4778,81.124 L351.9778,75.924 L351.8555,70.724 L352.6359,65.524 L351.8749,60.324 L352.0302,55.124" fill="#F0F8FF" style="stroke:#181818;stroke-width:0.5;"/><path d="M352.0302,55.124 L352.0302,55.124 L352.0953,55.191 L353.7018,56.742 L355.6901,58.6856 L357.554,60.5014 L359.0092,61.8967 L361.0302,63.874 L361.0254,63.8398 L362.8041,63.9363 L364.6067,64.2052 L366.426,64.594 L368.1879,64.5696 L370.0302,65.124 L370.0302,65.124 L370.064,65.3677 L371.7916,64.5965 L373.6181,64.5369 L375.4566,64.5642 L377.2249,64.0862 L379.0302,63.874 L379.0513,63.8957 L380.8203,62.1138 L382.6855,60.4309 L384.5043,58.7002 L386.4116,57.0606 L388.0302,55.124" fill="none" style="stroke:#181818;stroke-width:0.5;"/></g><g class="participant participant-tail" data-participant="mongo"><text fill="#000000" font-family="Impact" font-size="14" lengthAdjust="spacing" textLength="79.3447" x="327.3578" y="391.6292">Fiks Database</text><path d="M352.0302,404.5823 L352.0302,404.5823 L352.0953,404.6493 L353.7018,402.7003 L355.6901,401.1439 L357.554,399.4597 L359.0092,397.355 L361.0302,395.8323 L361.0254,395.7981 L362.8041,395.3946 L364.6067,395.1635 L366.426,395.0523 L368.1879,394.528 L370.0302,394.5823 L370.0302,394.5823 L370.064,394.8261 L371.7916,394.5549 L373.6181,394.9953 L375.4566,395.5225 L377.2249,395.5446 L379.0302,395.8323 L379.0513,395.8541 L380.8203,397.5722 L382.6855,399.3892 L384.5043,401.1585 L386.4116,403.019 L388.0302,404.5823 L388.6267,404.5823 L388.634,409.7823 L388.2565,414.9823 L388.4423,420.1823 L388.6544,425.3823 L388.0302,430.5823 L388.0302,430.5823 L387.8067,430.3525 L386.4404,432.5486 L384.3383,433.9879 L382.7956,436.0024 L380.6768,437.4246 L379.0302,439.3323 L379.026,439.3022 L377.2755,439.9088 L375.4272,439.8109 L373.6366,440.1287 L371.8509,440.4814 L370.0302,440.5823 L370.0302,440.5823 L370.0556,440.7656 L368.2299,440.3306 L366.4477,440.2088 L364.5952,439.5804 L362.8476,439.7075 L361.0302,439.3323 L361.2,439.507 L359.3679,437.724 L357.6201,436.0277 L355.4805,433.9284 L353.6281,432.1245 L352.0302,430.5823 L351.4778,430.5823 L351.9778,425.3823 L351.8555,420.1823 L352.6359,414.9823 L351.8749,409.7823 L352.0302,404.5823" fill="#F0F8FF" style="stroke:#181818;stroke-width:0.5;"/><path d="M352.0302,404.5823 L352.0302,404.5823 L352.0953,404.6493 L353.7018,406.2003 L355.6901,408.1439 L357.554,409.9597 L359.0092,411.355 L361.0302,413.3323 L361.0254,413.2981 L362.8041,413.3946 L364.6067,413.6635 L366.426,414.0523 L368.1879,414.028 L370.0302,414.5823 L370.0302,414.5823 L370.064,414.8261 L371.7916,414.0549 L373.6181,413.9953 L375.4566,414.0225 L377.2249,413.5446 L379.0302,413.3323 L379.0513,413.3541 L380.8203,411.5722 L382.6855,409.8892 L384.5043,408.1585 L386.4116,406.519 L388.0302,404.5823" fill="none" style="stroke:#181818;stroke-width:0.5;"/></g><g class="participant participant-head" data-participant="sync"><polygon fill="#F0F8FF" points="521.5912,59.0478,521.5912,59.258,531.255,58.6335,540.9189,59.2411,550.5827,59.4475,560.2466,58.3344,569.9104,58.9701,579.5743,58.6213,589.2381,58.6643,598.902,58.9797,608.5658,58.3565,618.2297,59.6015,627.8935,58.4175,637.5574,58.8501,647.2212,59.4798,656.8851,59.0478,656.8742,59.0214,657.2474,59.2153,657.5881,59.3309,657.9685,59.5421,658.3298,59.7073,658.6529,59.7801,658.8332,59.8548,659.006,60.2192,659.1549,60.5738,659.1706,60.8732,659.3814,61.2534,659.3851,61.5478,659.6192,61.5478,659.1447,70.1783,659.6113,78.8088,659.2863,87.4392,659.563,96.0697,659.3851,104.7002,659.2327,104.637,659.2176,105.045,659.3206,105.5019,658.9308,105.7546,658.8317,106.1278,658.6529,106.4679,658.6961,106.5722,658.3524,106.7426,657.9453,106.7596,657.6288,106.9957,657.1656,106.8774,656.8851,107.2002,656.8851,107.4846,647.2212,107.7484,637.5574,107.6447,627.8935,107.8132,618.2297,106.7171,608.5658,106.548,598.902,106.5788,589.2381,107.1413,579.5743,107.0036,569.9104,107.8816,560.2466,107.0255,550.5827,106.8571,540.9189,107.4284,531.255,106.5333,521.5912,107.2002,521.5249,107.0403,521.3204,107.2536,520.9396,107.0414,520.6242,106.987,520.1359,106.5153,519.8234,106.4679,519.9217,106.5087,519.8588,106.1897,519.385,105.7006,519.3545,105.3951,519.2764,105.0698,519.0912,104.7002,519.3084,104.7002,519.0898,96.0697,519.2453,87.4392,518.9066,78.8088,518.8654,70.1783,519.0912,61.5478,519.2462,61.6121,519.0168,61.1028,519.5408,60.9056,519.5941,60.5135,519.5944,60.0994,519.8234,59.7801,519.7783,59.6711,520.2355,59.7749,520.4923,59.395,520.9595,59.523,521.1671,59.0241,521.5912,59.0478" style="stroke:#006400;stroke-width:0.5;"/><text fill="#000000" font-family="Impact" font-size="14" lengthAdjust="spacing" textLength="126.2939" x="526.0912" y="80.1709">Brukersynkronisering</text><text fill="#000000" font-family="Impact" font-size="14" lengthAdjust="spacing" textLength="48.3984" x="565.0389" y="97.247">Sync API</text></g><g class="participant participant-tail" data-participant="sync"><polygon fill="#F0F8FF" points="521.5912,377.5062,521.5912,377.7164,531.255,377.0918,540.9189,377.6995,550.5827,377.9058,560.2466,376.7928,569.9104,377.4285,579.5743,377.0797,589.2381,377.1227,598.902,377.438,608.5658,376.8148,618.2297,378.0598,627.8935,376.8759,637.5574,377.3084,647.2212,377.9381,656.8851,377.5062,656.8742,377.4798,657.2474,377.6736,657.5881,377.7892,657.9685,378.0005,658.3298,378.1656,658.6529,378.2384,658.8332,378.3131,659.006,378.6776,659.1549,379.0322,659.1706,379.3315,659.3814,379.7118,659.3851,380.0062,659.6192,380.0062,659.1447,388.6366,659.6113,397.2671,659.2863,405.8976,659.563,414.528,659.3851,423.1585,659.2327,423.0954,659.2176,423.5033,659.3206,423.9602,658.9308,424.213,658.8317,424.5862,658.6529,424.9263,658.6961,425.0306,658.3524,425.2009,657.9453,425.218,657.6288,425.4541,657.1656,425.3358,656.8851,425.6585,656.8851,425.9429,647.2212,426.2067,637.5574,426.103,627.8935,426.2715,618.2297,425.1754,608.5658,425.0063,598.902,425.0371,589.2381,425.5996,579.5743,425.462,569.9104,426.3399,560.2466,425.4838,550.5827,425.3155,540.9189,425.8868,531.255,424.9917,521.5912,425.6585,521.5249,425.4986,521.3204,425.7119,520.9396,425.4998,520.6242,425.4454,520.1359,424.9736,519.8234,424.9263,519.9217,424.967,519.8588,424.648,519.385,424.1589,519.3545,423.8534,519.2764,423.5281,519.0912,423.1585,519.3084,423.1585,519.0898,414.528,519.2453,405.8976,518.9066,397.2671,518.8654,388.6366,519.0912,380.0062,519.2462,380.0704,519.0168,379.5612,519.5408,379.364,519.5941,378.9719,519.5944,378.5578,519.8234,378.2384,519.7783,378.1295,520.2355,378.2332,520.4923,377.8533,520.9595,377.9813,521.1671,377.4824,521.5912,377.5062" style="stroke:#006400;stroke-width:0.5;"/><text fill="#000000" font-family="Impact" font-size="14" lengthAdjust="spacing" textLength="126.2939" x="526.0912" y="398.6292">Brukersynkronisering</text><text fill="#000000" font-family="Impact" font-size="14" lengthAdjust="spacing" textLength="48.3984" x="565.0389" y="415.7054">Sync API</text></g><g class="participant participant-head" data-participant="target"><polygon fill="#F0F8FF" points="728.7962,59.0478,728.7962,59.258,738.88,58.6335,748.9639,59.2411,759.0477,59.4475,769.1315,58.3344,779.2154,58.9701,789.2992,58.6213,799.383,58.6643,809.4669,58.9797,819.5507,58.3565,829.6345,59.6015,839.7184,58.4175,849.8022,58.8501,859.886,59.0478,859.9411,59.1809,860.2287,59.1679,860.6019,59.3617,860.9426,59.4773,861.323,59.6886,861.6538,59.7801,861.7275,59.8106,861.9806,60.2083,862.1534,60.5728,862.3023,60.9274,862.318,61.2268,862.386,61.5478,862.5406,61.5478,862.6201,70.1783,862.1457,78.8088,862.6122,87.4392,862.2872,96.0697,862.386,104.7002,862.5504,104.7683,862.0872,104.9906,862.0721,105.3985,862.1751,105.8554,861.7853,106.1082,861.6538,106.4679,861.6672,106.5004,861.3435,106.7187,860.9998,106.889,860.5927,106.9061,860.2762,107.1422,859.886,107.2002,859.886,106.6278,849.8022,107.4846,839.7184,107.7484,829.6345,107.6447,819.5507,107.8132,809.4669,106.7171,799.383,106.548,789.2992,106.5788,779.2154,107.1413,769.1315,107.0036,759.0477,107.8816,748.9639,107.0255,738.88,106.8571,728.7962,107.2002,728.8253,107.2705,728.3576,106.8484,728.0229,106.7474,727.8183,106.9607,727.4376,106.7486,727.0284,106.4679,727.2546,106.5616,726.7829,106.0733,726.8338,105.8015,726.7709,105.4826,726.2972,104.9935,726.2962,104.7002,726.2643,104.7002,726.3382,96.0697,726.5135,87.4392,726.2948,78.8088,726.4504,70.1783,726.2962,61.5478,726.1257,61.4772,726.2341,61.1079,726.7442,60.905,726.5148,60.3957,727.0387,60.1985,727.0284,59.7801,727.0548,59.8437,727.3478,59.5511,727.6904,59.3782,728.1476,59.482,728.4045,59.1021,728.7962,59.0478" style="stroke:#006400;stroke-width:0.5;"/><text fill="#000000" font-family="Impact" font-size="14" lengthAdjust="spacing" textLength="62.5967" x="763.0428" y="80.1709">M&#229;lsystem</text><text fill="#000000" font-family="Impact" font-size="14" lengthAdjust="spacing" textLength="122.0898" x="733.2962" y="97.247">(Ekstern applikasjon)</text></g><g class="participant participant-tail" data-participant="target"><polygon fill="#F0F8FF" points="728.7962,377.5062,728.7962,377.7164,738.88,377.0918,748.9639,377.6995,759.0477,377.9058,769.1315,376.7928,779.2154,377.4285,789.2992,377.0797,799.383,377.1227,809.4669,377.438,819.5507,376.8148,829.6345,378.0598,839.7184,376.8759,849.8022,377.3084,859.886,377.5062,859.9411,377.6392,860.2287,377.6262,860.6019,377.8201,860.9426,377.9357,861.323,378.1469,861.6538,378.2384,861.7275,378.2689,861.9806,378.6667,862.1534,379.0311,862.3023,379.3857,862.318,379.6851,862.386,380.0062,862.5406,380.0062,862.6201,388.6366,862.1457,397.2671,862.6122,405.8976,862.2872,414.528,862.386,423.1585,862.5504,423.2266,862.0872,423.4489,862.0721,423.8569,862.1751,424.3138,861.7853,424.5665,861.6538,424.9263,861.6672,424.9587,861.3435,425.177,860.9998,425.3474,860.5927,425.3644,860.2762,425.6005,859.886,425.6585,859.886,425.0861,849.8022,425.9429,839.7184,426.2067,829.6345,426.103,819.5507,426.2715,809.4669,425.1754,799.383,425.0063,789.2992,425.0371,779.2154,425.5996,769.1315,425.462,759.0477,426.3399,748.9639,425.4838,738.88,425.3155,728.7962,425.6585,728.8253,425.7288,728.3576,425.3067,728.0229,425.2057,727.8183,425.419,727.4376,425.2069,727.0284,424.9263,727.2546,425.02,726.7829,424.5317,726.8338,424.2599,726.7709,423.9409,726.2972,423.4518,726.2962,423.1585,726.2643,423.1585,726.3382,414.528,726.5135,405.8976,726.2948,397.2671,726.4504,388.6366,726.2962,380.0062,726.1257,379.9355,726.2341,379.5662,726.7442,379.3633,726.5148,378.8541,727.0387,378.6569,727.0284,378.2384,727.0548,378.302,727.3478,378.0094,727.6904,377.8366,728.1476,377.9403,728.4045,377.5604,728.7962,377.5062" style="stroke:#006400;stroke-width:0.5;"/><text fill="#000000" font-family="Impact" font-size="14" lengthAdjust="spacing" textLength="62.5967" x="763.0428" y="398.6292">M&#229;lsystem</text><text fill="#000000" font-family="Impact" font-size="14" lengthAdjust="spacing" textLength="122.0898" x="733.2962" y="415.7054">(Ekstern applikasjon)</text></g><polygon fill="#EEEEEE" points="0,140.0792,0,140.2894,9.97,139.6649,19.9399,140.2725,29.9099,140.4789,39.8798,139.3658,49.8498,140.0015,59.8197,139.6527,69.7897,139.6957,79.7596,140.011,89.7296,139.3878,99.6995,140.6328,109.6695,139.4489,119.6395,139.8814,129.6094,140.5111,139.5794,139.9934,149.5493,140.1474,159.5193,140.0472,169.4892,140.2577,179.4592,140.3183,189.4291,140.6649,199.3991,140.7502,209.369,140.7584,219.339,140.3338,229.309,140.5428,239.2789,140.7814,249.2489,139.358,259.2188,140.7577,269.1888,139.7827,279.1587,140.613,289.1287,139.5841,299.0986,140.0107,309.0686,140.8208,319.0385,140.0304,329.0085,140.1845,338.9785,140.4178,348.9484,140.4954,358.9184,140.0753,368.8883,140.3664,378.8583,139.5068,388.8282,140.3636,398.7982,140.6274,408.7681,140.5237,418.7381,140.6922,428.708,139.5961,438.678,139.427,448.648,139.4578,458.6179,140.0203,468.5879,139.8826,478.5578,140.7606,488.5278,139.9045,498.4977,139.7361,508.4677,140.3074,518.4376,139.4123,528.4076,139.56,538.3775,140.7281,548.3475,140.5148,558.3175,140.8137,568.2874,139.7574,578.2574,140.3984,588.2273,140.6696,598.1973,139.6068,608.1672,139.9833,618.1372,140.2052,628.1071,140.7309,638.0771,140.075,648.047,140.5417,658.017,139.5254,667.987,139.4019,677.9569,140.5828,687.9269,139.3622,697.8968,140.5881,707.8668,140.2858,717.8367,139.8113,727.8067,139.7254,737.7766,140.5379,747.7466,139.7798,757.7165,140.671,767.6865,139.5264,777.6565,140.6966,787.6264,140.5635,797.5964,140.3241,807.5663,140.1264,817.5363,140.8058,827.5062,140.6927,837.4762,140.2484,847.4461,140.3474,857.4161,139.9489,867.386,140.0792,867.6249,140.0792,867.4377,140.6792,867.4436,141.2792,867.1833,141.8792,867.251,142.4792,867.386,143.0792,867.386,143.6099,857.4161,143.5089,847.4461,143.0362,837.4762,142.757,827.5062,142.8602,817.5363,142.393,807.5663,143.4939,797.5964,143.8187,787.6264,143.6056,777.6565,143.7741,767.6865,142.9424,757.7165,143.1664,747.7466,142.6916,737.7766,143.3632,727.8067,143.3259,717.8367,143.6316,707.8668,142.8495,697.8968,142.9448,687.9269,143.5226,677.9569,143.6465,667.987,142.5666,658.017,142.8853,648.047,143.2284,638.0771,142.4683,628.1071,143.4326,618.1372,143.3372,608.1672,142.9784,598.1973,143.2214,588.2273,143.8078,578.2574,142.7663,568.2874,143.3942,558.3175,143.3648,548.3475,143.1949,538.3775,143.2201,528.4076,143.1926,518.4376,142.455,508.4677,142.6784,498.4977,142.6176,488.5278,143.143,478.5578,143.1673,468.5879,143.2409,458.6179,142.7882,448.648,143.0117,438.678,142.959,428.708,143.656,418.7381,143.5057,408.7681,142.5936,398.7982,143.0062,388.8282,142.5019,378.8583,143.3676,368.8883,143.6877,358.9184,143.6237,348.9484,142.6436,338.9785,143.5431,329.0085,142.3364,319.0385,143.2793,309.0686,142.7799,299.0986,143.1759,289.1287,143.3195,279.1587,143.5513,269.1888,142.3593,259.2188,143.5546,249.2489,143.2573,239.2789,143.4345,229.309,143.827,219.339,143.0847,209.369,143.2544,199.3991,143.2926,189.4291,143.2764,179.4592,143.0784,169.4892,143.7899,159.5193,142.4694,149.5493,143.6445,139.5794,142.4552,129.6094,142.5389,119.6395,143.1192,109.6695,143.1074,99.6995,142.5863,89.7296,143.4929,79.7596,143.188,69.7897,143.8058,59.8197,143.7463,49.8498,142.6309,39.8798,142.6812,29.9099,142.95,19.9399,143.4347,9.97,143.4822,0,143.0792,0.1004,143.0792,-0.114,142.4792,0.2121,141.8792,0.2113,141.2792,-0.0158,140.6792,0,140.0792" style="stroke:#EEEEEE;stroke-width:1;"/><path d="M0,140.0792 L0,140.3594 L9.97,139.5267 L19.9399,140.3369 L29.9099,140.6121 L39.8798,139.128 L49.8498,139.9756 L59.8197,139.5105 L69.7897,139.5678 L79.7596,139.9883 L89.7296,139.1573 L99.6995,140.8174 L109.6695,139.2388 L119.6395,139.8155 L129.6094,140.6551 L139.5794,139.9648 L149.5493,140.1702 L159.5193,140.0366 L169.4892,140.3172 L179.4592,140.398 L189.4291,140.8601 L199.3991,140.9739 L209.369,140.9848 L219.339,140.4187 L229.309,140.6973 L239.2789,141.0155 L249.2489,139.1176 L259.2188,140.9839 L269.1888,139.6838 L279.1587,140.7909 L289.1287,139.4191 L299.0986,139.9878 L309.0686,141.068 L319.0385,140.0142 L329.0085,140.2196 L338.9785,140.5307 L348.9484,140.6341 L358.9184,140.074 L368.8883,140.4621 L378.8583,139.3159 L388.8282,140.4584 L398.7982,140.8101 L408.7681,140.6719 L418.7381,140.8965 L428.708,139.4351 L438.678,139.2096 L448.648,139.2506 L458.6179,140.0007 L468.5879,139.8171 L478.5578,140.9877 L488.5278,139.8463 L498.4977,139.6218 L508.4677,140.3835 L518.4376,139.1901 L528.4076,139.387 L538.3775,140.9444 L548.3475,140.6601 L558.3175,141.0585 L568.2874,139.6501 L578.2574,140.5048 L588.2273,140.8664 L598.1973,139.4493 L608.1672,139.9514 L618.1372,140.2472 L628.1071,140.9482 L638.0771,140.0736 L648.047,140.6959 L658.017,139.3408 L667.987,139.1762 L677.9569,140.7507 L687.9269,139.1233 L697.8968,140.7578 L707.8668,140.3547 L717.8367,139.7219 L727.8067,139.6075 L737.7766,140.6909 L747.7466,139.6801 L757.7165,140.8683 L767.6865,139.3422 L777.6565,140.9024 L787.6264,140.7249 L797.5964,140.4058 L807.5663,140.1421 L817.5363,141.048 L827.5062,140.8973 L837.4762,140.3048 L847.4461,140.4368 L857.4161,139.9055 L867.386,140.0792" fill="#EEEEEE" style="stroke:#000000;stroke-width:1;"/><path d="M0,143.0792 L0,143.3594 L9.97,142.5267 L19.9399,143.3369 L29.9099,143.6121 L39.8798,142.128 L49.8498,142.9756 L59.8197,142.5105 L69.7897,142.5678 L79.7596,142.9883 L89.7296,142.1573 L99.6995,143.8174 L109.6695,142.2388 L119.6395,142.8155 L129.6094,143.6551 L139.5794,142.9648 L149.5493,143.1702 L159.5193,143.0366 L169.4892,143.3172 L179.4592,143.398 L189.4291,143.8601 L199.3991,143.9739 L209.369,143.9848 L219.339,143.4187 L229.309,143.6973 L239.2789,144.0155 L249.2489,142.1176 L259.2188,143.9839 L269.1888,142.6838 L279.1587,143.7909 L289.1287,142.4191 L299.0986,142.9878 L309.0686,144.068 L319.0385,143.0142 L329.0085,143.2196 L338.9785,143.5307 L348.9484,143.6341 L358.9184,143.074 L368.8883,143.4621 L378.8583,142.3159 L388.8282,143.4584 L398.7982,143.8101 L408.7681,143.6719 L418.7381,143.8965 L428.708,142.4351 L438.678,142.2096 L448.648,142.2506 L458.6179,143.0007 L468.5879,142.8171 L478.5578,143.9877 L488.5278,142.8463 L498.4977,142.6218 L508.4677,143.3835 L518.4376,142.1901 L528.4076,142.387 L538.3775,143.9444 L548.3475,143.6601 L558.3175,144.0585 L568.2874,142.6501 L578.2574,143.5048 L588.2273,143.8664 L598.1973,142.4493 L608.1672,142.9514 L618.1372,143.2472 L628.1071,143.9482 L638.0771,143.0736 L648.047,143.6959 L658.017,142.3408 L667.987,142.1762 L677.9569,143.7507 L687.9269,142.1233 L697.8968,143.7578 L707.8668,143.3547 L717.8367,142.7219 L727.8067,142.6075 L737.7766,143.6909 L747.7466,142.6801 L757.7165,143.8683 L767.6865,142.3422 L777.6565,143.9024 L787.6264,143.7249 L797.5964,143.4058 L807.5663,143.1421 L817.5363,144.048 L827.5062,143.8973 L837.4762,143.3048 L847.4461,143.4368 L857.4161,142.9055 L867.386,143.0792" fill="#EEEEEE" style="stroke:#000000;stroke-width:1;"/><polygon fill="#EEEEEE" points="347.445,128.2002,347.445,128.4104,357.5919,127.7859,367.7387,128.3935,377.8855,128.5999,388.0323,127.4868,398.1791,128.1225,408.326,127.7737,418.4728,127.8167,428.6196,128.132,438.7664,127.5088,448.9133,128.7538,459.0601,127.5699,469.2069,128.0024,479.3537,128.6321,489.5005,128.1144,499.6474,128.2684,509.7942,128.1682,519.941,128.2002,520.0005,128.2002,520.0207,133.3518,520.1362,138.5034,520.1647,143.655,520.1674,148.8066,519.941,153.9582,519.941,154.2128,509.7942,154.4218,499.6474,154.6604,489.5005,153.237,479.3537,154.6367,469.2069,153.6617,459.0601,154.492,448.9133,153.4631,438.7664,153.8897,428.6196,154.6998,418.4728,153.9094,408.326,154.0635,398.1791,154.2968,388.0323,154.3744,377.8855,153.9543,367.7387,154.2454,357.5919,153.3858,347.445,153.9582,347.5398,153.9582,347.6278,148.8066,347.5932,143.655,347.6494,138.5034,347.284,133.3518,347.445,128.2002" style="stroke:#000000;stroke-width:2;"/><text fill="#000000" font-family="Avenir" font-size="13" font-weight="bold" lengthAdjust="spacing" textLength="154.882" x="353.445" y="145.2002">Provisjonering (Inng&#229;ende)</text><g class="message" data-participant-1="idp" data-participant-2="scim"><polygon fill="#006400" points="217.5762,183.7162,217.6022,183.7812,219.5249,184.3879,221.6001,185.376,223.6257,186.2399,225.4879,186.6954,227.5762,187.7162,227.5666,187.6921,225.5234,188.3842,223.5287,189.1975,221.5677,190.0951,219.4906,190.7022,217.5762,191.7162,217.7067,191.8467,218.2276,190.7676,219.1296,190.0696,220.078,189.418,220.756,188.496,221.5762,187.7162,221.5923,187.7323,220.7686,186.9086,220.0183,186.1583,219.2325,185.3725,218.5142,184.6542,217.5762,183.7162" style="stroke:#006400;stroke-width:1;"/><path d="M59.7422,187.7162 L59.7422,187.9964 L69.9818,187.1637 L80.2214,187.9739 L90.4611,188.2491 L100.7007,186.765 L110.9403,187.6126 L121.1799,187.1475 L131.4196,187.2048 L141.6592,187.6253 L151.8988,186.7943 L162.1384,188.4544 L172.3781,186.8758 L182.6177,187.4525 L192.8573,188.2921 L203.0969,187.6018 L213.3365,187.8072 L223.5762,187.7162" fill="none" style="stroke:#006400;stroke-width:1;"/><text fill="#000000" font-family="Avenir" font-size="13" lengthAdjust="spacing" textLength="145.834" x="66.7422" y="180.9582">Bruker/gruppe-endringer</text></g><g class="message" data-participant-1="scim" data-participant-2="mongo"><polygon fill="#006400" points="358.0302,215.4742,358.0562,215.5392,359.9789,216.1459,362.0541,217.134,364.0797,217.9979,365.9419,218.4534,368.0302,219.4742,368.0206,219.4501,365.9774,220.1422,363.9827,220.9555,362.0217,221.8531,359.9446,222.4602,358.0302,223.4742,358.1607,223.6047,358.6816,222.5256,359.5836,221.8276,360.532,221.176,361.21,220.254,362.0302,219.4742,362.0463,219.4903,361.2227,218.6666,360.4723,217.9162,359.6865,217.1305,358.9682,216.4122,358.0302,215.4742" style="stroke:#006400;stroke-width:1;"/><path d="M229.5762,219.4742 L229.5762,219.7544 L239.9188,218.9217 L250.2614,219.7319 L260.604,220.0071 L270.9466,218.523 L281.2893,219.3706 L291.6319,218.9055 L301.9745,218.9628 L312.3171,219.3833 L322.6597,218.5523 L333.0023,220.2124 L343.3449,218.6338 L353.6876,219.2105 L364.0302,219.4742" fill="none" style="stroke:#006400;stroke-width:1;"/><text fill="#000000" font-family="Avenir" font-size="13" lengthAdjust="spacing" textLength="116.454" x="236.5762" y="212.7162">Lagre identitetsdata</text></g><polygon fill="#EEEEEE" points="0,249.3532,0,249.5634,9.97,248.9389,19.9399,249.5465,29.9099,249.7528,39.8798,248.6398,49.8498,249.2755,59.8197,248.9267,69.7897,248.9697,79.7596,249.285,89.7296,248.6618,99.6995,249.9068,109.6695,248.7229,119.6395,249.1554,129.6094,249.7851,139.5794,249.2674,149.5493,249.4214,159.5193,249.3212,169.4892,249.5317,179.4592,249.5923,189.4291,249.9389,199.3991,250.0242,209.369,250.0324,219.339,249.6078,229.309,249.8168,239.2789,250.0554,249.2489,248.632,259.2188,250.0317,269.1888,249.0567,279.1587,249.887,289.1287,248.8581,299.0986,249.2847,309.0686,250.0948,319.0385,249.3044,329.0085,249.4585,338.9785,249.6918,348.9484,249.7694,358.9184,249.3493,368.8883,249.6404,378.8583,248.7808,388.8282,249.6376,398.7982,249.9014,408.7681,249.7977,418.7381,249.9662,428.708,248.8701,438.678,248.701,448.648,248.7318,458.6179,249.2943,468.5879,249.1566,478.5578,250.0346,488.5278,249.1785,498.4977,249.0101,508.4677,249.5814,518.4376,248.6863,528.4076,248.834,538.3775,250.0021,548.3475,249.7888,558.3175,250.0877,568.2874,249.0314,578.2574,249.6724,588.2273,249.9436,598.1973,248.8808,608.1672,249.2573,618.1372,249.4792,628.1071,250.0049,638.0771,249.349,648.047,249.8157,658.017,248.7994,667.987,248.6759,677.9569,249.8568,687.9269,248.6362,697.8968,249.8621,707.8668,249.5598,717.8367,249.0853,727.8067,248.9994,737.7766,249.8119,747.7466,249.0538,757.7165,249.945,767.6865,248.8004,777.6565,249.9706,787.6264,249.8375,797.5964,249.5981,807.5663,249.4004,817.5363,250.0798,827.5062,249.9667,837.4762,249.5224,847.4461,249.6214,857.4161,249.2229,867.386,249.3532,867.6249,249.3532,867.4377,249.9532,867.4436,250.5532,867.1833,251.1532,867.251,251.7532,867.386,252.3532,867.386,252.8839,857.4161,252.7829,847.4461,252.3102,837.4762,252.031,827.5062,252.1342,817.5363,251.667,807.5663,252.7679,797.5964,253.0927,787.6264,252.8796,777.6565,253.0481,767.6865,252.2164,757.7165,252.4404,747.7466,251.9656,737.7766,252.6372,727.8067,252.5999,717.8367,252.9056,707.8668,252.1235,697.8968,252.2188,687.9269,252.7966,677.9569,252.9205,667.987,251.8406,658.017,252.1593,648.047,252.5024,638.0771,251.7423,628.1071,252.7066,618.1372,252.6112,608.1672,252.2524,598.1973,252.4954,588.2273,253.0818,578.2574,252.0403,568.2874,252.6682,558.3175,252.6388,548.3475,252.4689,538.3775,252.4941,528.4076,252.4666,518.4376,251.729,508.4677,251.9524,498.4977,251.8916,488.5278,252.417,478.5578,252.4413,468.5879,252.5149,458.6179,252.0622,448.648,252.2857,438.678,252.233,428.708,252.93,418.7381,252.7797,408.7681,251.8676,398.7982,252.2802,388.8282,251.7759,378.8583,252.6416,368.8883,252.9617,358.9184,252.8977,348.9484,251.9176,338.9785,252.8171,329.0085,251.6104,319.0385,252.5533,309.0686,252.0539,299.0986,252.4499,289.1287,252.5935,279.1587,252.8253,269.1888,251.6333,259.2188,252.8286,249.2489,252.5313,239.2789,252.7085,229.309,253.101,219.339,252.3587,209.369,252.5284,199.3991,252.5666,189.4291,252.5504,179.4592,252.3524,169.4892,253.0639,159.5193,251.7434,149.5493,252.9184,139.5794,251.7292,129.6094,251.8129,119.6395,252.3932,109.6695,252.3814,99.6995,251.8603,89.7296,252.7669,79.7596,252.462,69.7897,253.0798,59.8197,253.0203,49.8498,251.9049,39.8798,251.9552,29.9099,252.224,19.9399,252.7087,9.97,252.7562,0,252.3532,0.1004,252.3532,-0.114,251.7532,0.2121,251.1532,0.2113,250.5532,-0.0158,249.9532,0,249.3532" style="stroke:#EEEEEE;stroke-width:1;"/><path d="M0,249.3532 L0,249.6334 L9.97,248.8007 L19.9399,249.6109 L29.9099,249.8861 L39.8798,248.402 L49.8498,249.2496 L59.8197,248.7845 L69.7897,248.8418 L79.7596,249.2623 L89.7296,248.4313 L99.6995,250.0914 L109.6695,248.5128 L119.6395,249.0895 L129.6094,249.9291 L139.5794,249.2388 L149.5493,249.4442 L159.5193,249.3106 L169.4892,249.5912 L179.4592,249.672 L189.4291,250.1341 L199.3991,250.2479 L209.369,250.2588 L219.339,249.6927 L229.309,249.9713 L239.2789,250.2895 L249.2489,248.3916 L259.2188,250.2579 L269.1888,248.9578 L279.1587,250.0649 L289.1287,248.6931 L299.0986,249.2618 L309.0686,250.342 L319.0385,249.2882 L329.0085,249.4936 L338.9785,249.8047 L348.9484,249.9081 L358.9184,249.348 L368.8883,249.7361 L378.8583,248.5899 L388.8282,249.7324 L398.7982,250.0841 L408.7681,249.9459 L418.7381,250.1705 L428.708,248.7091 L438.678,248.4836 L448.648,248.5246 L458.6179,249.2747 L468.5879,249.0911 L478.5578,250.2617 L488.5278,249.1203 L498.4977,248.8958 L508.4677,249.6575 L518.4376,248.4641 L528.4076,248.661 L538.3775,250.2184 L548.3475,249.9341 L558.3175,250.3325 L568.2874,248.9241 L578.2574,249.7788 L588.2273,250.1404 L598.1973,248.7233 L608.1672,249.2254 L618.1372,249.5211 L628.1071,250.2222 L638.0771,249.3476 L648.047,249.9699 L658.017,248.6148 L667.987,248.4502 L677.9569,250.0247 L687.9269,248.3972 L697.8968,250.0318 L707.8668,249.6287 L717.8367,248.9959 L727.8067,248.8815 L737.7766,249.9648 L747.7466,248.9541 L757.7165,250.1423 L767.6865,248.6162 L777.6565,250.1764 L787.6264,249.9989 L797.5964,249.6798 L807.5663,249.4161 L817.5363,250.322 L827.5062,250.1713 L837.4762,249.5788 L847.4461,249.7108 L857.4161,249.1795 L867.386,249.3532" fill="#EEEEEE" style="stroke:#000000;stroke-width:1;"/><path d="M0,252.3532 L0,252.6334 L9.97,251.8007 L19.9399,252.6109 L29.9099,252.8861 L39.8798,251.402 L49.8498,252.2496 L59.8197,251.7845 L69.7897,251.8418 L79.7596,252.2623 L89.7296,251.4313 L99.6995,253.0914 L109.6695,251.5128 L119.6395,252.0895 L129.6094,252.9291 L139.5794,252.2388 L149.5493,252.4442 L159.5193,252.3106 L169.4892,252.5912 L179.4592,252.672 L189.4291,253.1341 L199.3991,253.2479 L209.369,253.2588 L219.339,252.6927 L229.309,252.9713 L239.2789,253.2895 L249.2489,251.3916 L259.2188,253.2579 L269.1888,251.9578 L279.1587,253.0649 L289.1287,251.6931 L299.0986,252.2618 L309.0686,253.342 L319.0385,252.2882 L329.0085,252.4936 L338.9785,252.8047 L348.9484,252.9081 L358.9184,252.348 L368.8883,252.7361 L378.8583,251.5899 L388.8282,252.7324 L398.7982,253.0841 L408.7681,252.9459 L418.7381,253.1705 L428.708,251.7091 L438.678,251.4836 L448.648,251.5246 L458.6179,252.2747 L468.5879,252.0911 L478.5578,253.2617 L488.5278,252.1203 L498.4977,251.8958 L508.4677,252.6575 L518.4376,251.4641 L528.4076,251.661 L538.3775,253.2184 L548.3475,252.9341 L558.3175,253.3325 L568.2874,251.9241 L578.2574,252.7788 L588.2273,253.1404 L598.1973,251.7233 L608.1672,252.2254 L618.1372,252.5211 L628.1071,253.2222 L638.0771,252.3476 L648.047,252.9699 L658.017,251.6148 L667.987,251.4502 L677.9569,253.0247 L687.9269,251.3972 L697.8968,253.0318 L707.8668,252.6287 L717.8367,251.9959 L727.8067,251.8815 L737.7766,252.9648 L747.7466,251.9541 L757.7165,253.1423 L767.6865,251.6162 L777.6565,253.1764 L787.6264,252.9989 L797.5964,252.6798 L807.5663,252.4161 L817.5363,253.322 L827.5062,253.1713 L837.4762,252.5788 L847.4461,252.7108 L857.4161,252.1795 L867.386,252.3532" fill="#EEEEEE" style="stroke:#000000;stroke-width:1;"/><polygon fill="#EEEEEE" points="348.5565,237.4742,348.5565,237.6844,358.5726,237.0599,368.5886,237.6675,378.6047,237.8739,388.6208,236.7608,398.6368,237.3965,408.6529,237.0477,418.6689,237.0907,428.685,237.406,438.7011,236.7828,448.7171,238.0278,458.7332,236.8439,468.7492,237.2764,478.7653,237.9061,488.7813,237.3884,498.7974,237.5424,508.8135,237.4422,518.8295,237.4742,518.889,237.4742,518.9092,242.6258,519.0248,247.7774,519.0532,252.929,519.0559,258.0806,518.8295,263.2322,518.8295,263.4868,508.8135,263.6958,498.7974,263.9344,488.7813,262.511,478.7653,263.9107,468.7492,262.9357,458.7332,263.766,448.7171,262.7371,438.7011,263.1637,428.685,263.9738,418.6689,263.1834,408.6529,263.3375,398.6368,263.5708,388.6208,263.6484,378.6047,263.2283,368.5886,263.5194,358.5726,262.6598,348.5565,263.2322,348.6513,263.2322,348.7393,258.0806,348.7047,252.929,348.7609,247.7774,348.3955,242.6258,348.5565,237.4742" style="stroke:#000000;stroke-width:2;"/><text fill="#000000" font-family="Avenir" font-size="13" font-weight="bold" lengthAdjust="spacing" textLength="152.659" x="354.5565" y="254.4742">Synkronisering (Utg&#229;ende)</text><g class="message" data-participant-1="target" data-participant-2="sync"><polygon fill="#006400" points="600.2381,292.9902,600.2641,293.0552,598.1868,293.6619,596.2621,294.65,594.2876,295.5139,592.1498,295.9694,590.2381,296.9902,590.2285,296.9661,592.1853,297.6582,594.1907,298.4715,596.2297,299.3691,598.1525,299.9762,600.2381,300.9902,600.3686,301.1207,599.2896,300.0416,598.5915,299.3436,597.9399,298.692,597.0179,297.77,596.2381,296.9902,596.2542,297.0063,597.0306,296.1826,597.8802,295.4322,598.6945,294.6465,599.5762,293.9282,600.2381,292.9902" style="stroke:#006400;stroke-width:1;"/><path d="M594.2381,296.9902 L594.2381,297.2704 L604.1933,296.4377 L614.1484,297.2479 L624.1036,297.5231 L634.0587,296.039 L644.0139,296.8866 L653.969,296.4215 L663.9242,296.4788 L673.8793,296.8993 L683.8345,296.0683 L693.7896,297.7284 L703.7448,296.1498 L713.6999,296.7265 L723.6551,297.5661 L733.6102,296.8758 L743.5654,297.0812 L753.5205,296.9476 L763.4757,297.2282 L773.4308,297.309 L783.386,297.7711 L793.3411,296.9902" fill="none" style="stroke:#006400;stroke-width:1;"/><text fill="#000000" font-family="Avenir" font-size="13" lengthAdjust="spacing" textLength="159.367" x="606.2381" y="290.2322">Hent endringer (Delta-sync)</text></g><g class="message" data-participant-1="sync" data-participant-2="mongo"><polygon fill="#006400" points="381.0302,324.7482,381.0562,324.8132,378.9789,325.4199,377.0541,326.408,375.0797,327.2719,372.9419,327.7274,371.0302,328.7482,371.0206,328.7241,372.9774,329.4162,374.9827,330.2295,377.0217,331.1271,378.9446,331.7342,381.0302,332.7482,381.1607,332.8787,380.0816,331.7996,379.3836,331.1016,378.732,330.45,377.81,329.528,377.0302,328.7482,377.0463,328.7643,377.8227,327.9406,378.6723,327.1902,379.4865,326.4045,380.3682,325.6862,381.0302,324.7482" style="stroke:#006400;stroke-width:1;"/><path d="M375.0302,328.7482 L375.0302,329.0284 L385.1829,328.1957 L395.3357,329.0059 L405.4885,329.2811 L415.6412,327.797 L425.794,328.6446 L435.9467,328.1795 L446.0995,328.2368 L456.2523,328.6573 L466.405,327.8263 L476.5578,329.4864 L486.7105,327.9078 L496.8633,328.4845 L507.0161,329.3241 L517.1688,328.6338 L527.3216,328.8392 L537.4743,328.7056 L547.6271,328.9862 L557.7799,329.067 L567.9326,329.5291 L578.0854,329.6429 L588.2381,328.7482" fill="none" style="stroke:#006400;stroke-width:1;"/><text fill="#000000" font-family="Avenir" font-size="13" lengthAdjust="spacing" textLength="195.2079" x="387.0302" y="321.9902">Finn endringer siden forrige gang</text></g><g class="message" data-participant-1="sync" data-participant-2="target"><polygon fill="#006400" points="782.3411,356.5062,782.3671,356.5712,784.2898,357.1779,786.3651,358.166,788.3906,359.0299,790.2528,359.4854,792.3411,360.5062,792.3315,360.4821,790.2883,361.1742,788.2936,361.9875,786.3327,362.8851,784.2555,363.4922,782.3411,364.5062,782.4716,364.6367,782.9926,363.5576,783.8945,362.8596,784.8429,362.208,785.5209,361.286,786.3411,360.5062,786.3572,360.5223,785.5336,359.6986,784.7832,358.9482,783.9975,358.1625,783.2792,357.4442,782.3411,356.5062" style="stroke:#006400;stroke-width:1;"/><path d="M589.2381,360.5062 L589.2381,360.7864 L599.1933,359.9537 L609.1484,360.7639 L619.1036,361.0391 L629.0587,359.555 L639.0139,360.4026 L648.969,359.9375 L658.9242,359.9948 L668.8793,360.4153 L678.8345,359.5843 L688.7896,361.2444 L698.7448,359.6658 L708.6999,360.2425 L718.6551,361.0821 L728.6102,360.3918 L738.5654,360.5972 L748.5205,360.4636 L758.4757,360.7442 L768.4308,360.825 L778.386,361.2871 L788.3411,360.5062" fill="none" style="stroke:#006400;stroke-width:1;stroke-dasharray:2,2;"/><text fill="#000000" font-family="Avenir" font-size="13" lengthAdjust="spacing" textLength="181.103" x="596.2381" y="353.7482">Batch med events + syncToken</text></g><!--SRC=[jLJDJjj04BxlKqov45JHg5UaL0gaj96W88NUk2phmTdQddLdnz2qwkFm9BnOnsiJEHHIgG8VejZppVSpitOiFDMMRGM_3EYrj9JTiXT10k46qyChwugSGqEP2sLWk5rwwIeplBPDASU1v8kj4AOtI9xDRnFNl56iOC- -nishsZf9pmu3PyX7YNXckVZ4Y9GgK-Pm-spXOkbTGHWZlEzurYQxbcdf7HwMROGDE_YzGN8FZXwhTmqlAQxNYR_64q_uM6nHwcYKUTLR-V7qB8RsAVmzp7xespVrPD0Xi-v3Irlsj3NYlvrVjQsMLwyeWIHUNbD0VyKxNrkILrHnoicXV765WKHcnLxPYF-biS7aGbK7mkq3UUubswOntdtZoPLDXj2glQkRgjmT6wChBX7ERf2LbL102VMG5z8mN2l7OaKEfkTpOuRRsfbd_Uauvt3ZrSubZQO_6zRNPmPZE2l4xks0ZU2pUhFps1SH5aVpqvOrGQBpbLcFi0FC-ji4g0BbOPFba9i2EQweu40-8dlAB-d1R4UhDvjDf_TtPLn5mKhTVYpq3nFOkYvzOUEtG9rZiPoZ63EPTE7QIkA7qPmelxz3od0F9XEZsM3_G_8F1z1P6kVSr3NkAwZjGJQfhB2KGd4dDjSn-Mw0AB5DdjGM6sbWz5M6OfsjfDUcF83FxIbPoy1eXgNO_RQuPn9ae7diYGROsAgtwsMV8-IMyhv3MteTpMF5BQ72352_Y1BXRLA-28KU_py0]--></g></svg>